<svg id="Layer_2_00000152943422468468299960000016367902668412972714_" enable-background="new 0 0 512 512" viewBox="0 0 512 512" xmlns="http://www.w3.org/2000/svg" xmlns:xlink="http://www.w3.org/1999/xlink"><linearGradient id="SVGID_1_" gradientTransform="matrix(1 0 0 -1 0 512)" gradientUnits="userSpaceOnUse" x1="251.56" x2="251.56" y1="55" y2="110"><stop offset="0" stop-color="#3d5969"/><stop offset="1" stop-color="#698999"/></linearGradient><linearGradient id="SVGID_00000157308172427156175410000005239895332034692510_" gradientTransform="matrix(1 0 0 -1 0 512)" gradientUnits="userSpaceOnUse" x1="251.56" x2="251.56" y1="0" y2="55"><stop offset="0" stop-color="#f90"/><stop offset="1" stop-color="#fcd34f"/></linearGradient><linearGradient id="SVGID_00000070084220180781076250000008480622577355895972_" gradientTransform="matrix(1 0 0 -1 0 512)" gradientUnits="userSpaceOnUse" x1="256" x2="256" y1="110" y2="512"><stop offset="0" stop-color="#fd7b0a"/><stop offset="1" stop-color="#fdac33"/></linearGradient><linearGradient id="SVGID_00000076587790966007998000000003640408014167709067_" gradientTransform="matrix(1 0 0 -1 0 512)" gradientUnits="userSpaceOnUse" x1="269.05" x2="269.05" y1="137.55" y2="415.43"><stop offset="0" stop-color="#f90"/><stop offset="1" stop-color="#ffd426"/></linearGradient><linearGradient id="SVGID_00000088110395636959819660000009574670596959705762_" gradientTransform="matrix(1 0 0 -1 0 512)" gradientUnits="userSpaceOnUse" x1="256" x2="256" y1="340.78" y2="512"><stop offset="0" stop-color="#ffb429"/><stop offset="1" stop-color="#ffdb26"/></linearGradient><linearGradient id="SVGID_00000115514446469356767680000013326805853466993547_" gradientTransform="matrix(1 0 0 -1 0 512)" gradientUnits="userSpaceOnUse" x1="330.7" x2="330.7" y1="110" y2="367.52"><stop offset="0" stop-color="#de6700"/><stop offset="1" stop-color="#fdac33"/></linearGradient><g id="Icon"><g id="_86"><g><path d="m191.6 402h120c11 0 20 9 20 20v35h-160v-35c0-11 8.9-20 20-20z" fill="url(#SVGID_1_)"/><path d="m159.1 457h185c15.2 0 27.5 12.3 27.5 27.5 0 15.2-12.3 27.5-27.5 27.5h-185c-15.2 0-27.5-12.3-27.5-27.5 0-15.2 12.3-27.5 27.5-27.5z" fill="url(#SVGID_00000157308172427156175410000005239895332034692510_)"/></g><g><path d="m102.1 0 307.8 144.5-133.7 257.5h-48.9z" fill="url(#SVGID_00000070084220180781076250000008480622577355895972_)"/><path d="m183.9 96.6 170.3 74.6-102.7 203.3z" fill="url(#SVGID_00000076587790966007998000000003640408014167709067_)"/><path d="m102.1 0 81.8 96.6 170.3 74.6 55.7-26.7z" fill="url(#SVGID_00000088110395636959819660000009574670596959705762_)"/><path d="m251.5 374.5v27.5h24.7l133.7-257.5-55.7 26.7z" fill="url(#SVGID_00000115514446469356767680000013326805853466993547_)"/></g></g></g></svg>