<svg id="Capa_1" enable-background="new 0 0 512 512" height="512" viewBox="0 0 512 512" width="512" xmlns="http://www.w3.org/2000/svg"><g><path d="m507.574 365.344-30.998-30.802c-5.877-5.84-15.376-5.81-21.215.066-5.84 5.876-5.81 15.372.066 21.212l5.197 5.164h-189.596v-309.677l5.189 5.196c5.854 5.863 15.353 5.869 21.215.018 5.864-5.853 5.872-15.35.018-21.212l-30.298-30.341c-5.864-6.494-15.836-6.555-21.817-.537l-30.757 30.943c-5.84 5.876-5.81 15.372.066 21.212 5.857 5.82 15.356 5.829 21.215-.066l5.166-5.197v309.66h-226.023c-8.285 0-15.002 6.716-15.002 15s6.717 14.999 15.002 14.999h226.023v105.994c0 8.284 6.717 14.999 15.002 14.999s15.002-6.715 15.002-14.999v-105.994h189.631l-5.198 5.173c-5.873 5.843-5.895 15.34-.051 21.212 5.841 5.869 15.341 5.897 21.215.051l30.957-30.803c5.893-5.866 5.888-15.412-.009-21.271z" fill="#0acefa"/><path d="m507.587 386.617-30.963 30.798c-5.871 5.85-15.372 5.82-21.212-.05-5.851-5.87-5.821-15.369.05-21.209l5.201-5.18h-189.63v105.994c0 8.29-6.721 14.999-15.002 14.999h-.03v-511.969c4.07 0 8.151 1.64 11.151 4.97l30.293 30.338c5.861 5.86 5.851 15.359-.01 21.209-5.86 5.86-15.361 5.85-21.222-.01l-5.18-5.2v309.672h189.589l-5.191-5.16c-5.88-5.84-5.91-15.339-.07-21.209 5.84-5.88 15.341-5.91 21.212-.07l31.003 30.798c5.891 5.86 5.901 15.41.011 21.279z" fill="#00adea"/><path d="m466.047.505c-8.285 0-15.002 6.715-15.002 14.999 0 93.799-21.123 181.758-59.479 247.673-36.87 63.362-85.006 98.258-135.54 98.258s-98.67-34.895-135.54-98.258c-38.356-65.915-59.479-153.874-59.479-247.673 0-8.284-6.717-14.999-15.002-14.999s-15.001 6.715-15.001 14.999c0 99.017 22.569 192.333 63.548 262.759 35.505 61.017 90.903 113.17 161.474 113.17 70.559 0 125.957-52.136 161.474-113.17 40.98-70.427 63.548-163.742 63.548-262.759 0-8.284-6.716-14.999-15.001-14.999z" fill="#fa4954"/><path d="m481.044 15.499c0 99.024-22.562 192.339-63.547 262.765-35.514 61.036-90.909 113.173-161.466 113.173v-29.998c50.525 0 98.67-34.898 135.534-98.264 38.354-65.916 59.476-153.871 59.476-247.675 0-8.28 6.721-14.999 15.002-14.999 8.29-.001 15.001 6.719 15.001 14.998z" fill="#cc193b"/><path d="m226.023 151.496h60.006c8.285 0 15.002-6.715 15.002-14.999s-6.717-14.999-15.002-14.999h-60.006c-8.285 0-15.002 6.715-15.002 14.999.001 8.283 6.717 14.999 15.002 14.999z" fill="#97e4f9"/><path d="m301.035 136.492c0 8.29-6.721 14.999-15.002 14.999h-30.003v-29.998h30.003c8.282 0 15.002 6.719 15.002 14.999z" fill="#0acefa"/><path d="m286.029 181.494h-60.006c-8.285 0-15.002 6.715-15.002 14.999s6.717 14.999 15.002 14.999h60.006c8.285 0 15.002-6.715 15.002-14.999s-6.717-14.999-15.002-14.999z" fill="#97e4f9"/><path d="m301.035 196.488c0 8.29-6.721 14.999-15.002 14.999h-30.003v-29.998h30.003c8.282 0 15.002 6.72 15.002 14.999z" fill="#0acefa"/><path d="m286.029 241.49h-60.006c-8.285 0-15.002 6.715-15.002 14.999s6.717 14.999 15.002 14.999h60.006c8.285 0 15.002-6.715 15.002-14.999s-6.717-14.999-15.002-14.999z" fill="#97e4f9"/><path d="m301.035 256.485c0 8.29-6.721 14.999-15.002 14.999h-30.003v-29.998h30.003c8.282 0 15.002 6.719 15.002 14.999z" fill="#0acefa"/><path d="m286.029 301.487h-60.006c-8.285 0-15.002 6.715-15.002 14.999s6.717 14.999 15.002 14.999h60.006c8.285 0 15.002-6.715 15.002-14.999s-6.717-14.999-15.002-14.999z" fill="#97e4f9"/><path d="m301.035 316.481c0 8.29-6.721 14.999-15.002 14.999h-30.003v-29.998h30.003c8.282 0 15.002 6.72 15.002 14.999z" fill="#0acefa"/><path d="m412.255 476.884 9.512-9.511c5.859-5.857 5.859-15.355 0-21.212-5.858-5.857-15.357-5.857-21.215 0l-9.512 9.511-9.512-9.511c-5.858-5.857-15.357-5.857-21.215 0-5.859 5.857-5.859 15.355 0 21.212l9.512 9.511-9.512 9.511c-5.859 5.857-5.859 15.355 0 21.212 5.859 5.858 15.357 5.857 21.215 0l9.512-9.511 9.512 9.511c5.859 5.858 15.357 5.857 21.215 0 5.859-5.857 5.859-15.355 0-21.212z" fill="#3e5157"/><path d="m183.443 4.256c-6.213-5.481-15.692-4.888-21.174 1.323l-11.014 12.481-10.739-12.692c-5.35-6.324-14.815-7.114-21.142-1.765-6.326 5.349-7.116 14.814-1.765 21.138l18.404 21.754v24.556c0 8.284 6.717 14.999 15.002 14.999s15.002-6.715 15.002-14.999v-24.379l18.749-21.245c5.482-6.211 4.889-15.69-1.323-21.171z" fill="#59717a"/></g></svg>