<svg id="Capa_1" enable-background="new 0 0 512 512" height="512" viewBox="0 0 512 512" width="512" xmlns="http://www.w3.org/2000/svg"><g><path d="m334.785 324.354v30.442h-244.935v-30.442c0-2.143-13.6-4.263-13.41-6.356 3.209-35.344 32.917-63.029 69.098-63.029h135.304c36.171 0 65.888 27.685 69.098 63.029.189 2.094-15.155 4.214-15.155 6.356z" fill="#da4a54"/><path d="m338.216 354.796v24.264c0 2.143 11.914 4.262 11.723 6.355-3.21 35.344-32.926 63.029-69.098 63.029h-85.313l-66.569 54.55v-56.552c-28.327-6.949-49.818-31.269-52.52-61.029-.19-2.093 13.41-4.212 13.41-6.354v-24.264h248.367z" fill="#5986cb"/><path d="m350.226 324.354v54.706c0 2.145-.093 4.26-.299 6.354h-273.485c-.196-2.094-.289-4.209-.289-6.354v-54.706c0-2.146.093-4.26.299-6.355h273.475c.207 2.095.299 4.21.299 6.355z" fill="#f7f9f9"/><g><path d="m512 165.868v54.706c0 32.609-22.489 59.946-52.807 67.373v56.562l-34.321-28.121-36.568-110.131 36.568-109.773h17.743c38.324 0 69.385 31.061 69.385 69.384z" fill="#da4a54"/><path d="m325.055 96.484 28.945 93.307-28.945 100.168h-17.743c-38.313 0-69.385-31.061-69.385-69.385v-54.706c0-38.324 31.072-69.385 69.385-69.385h17.743z" fill="#5986cb"/><path d="m424.872 96.484v219.904l-32.258-26.429h-67.559v-193.475z" fill="#f7f9f9"/></g><path d="m258.632 78.39v30.442h-244.935v-30.442c0-2.143-13.6-4.263-13.41-6.356 3.209-35.344 32.917-63.029 69.098-63.029h135.304c36.171 0 65.888 27.685 69.098 63.029.189 2.093-15.155 4.213-15.155 6.356z" fill="#5e6b75"/><path d="m262.063 108.832v24.264c0 2.143 11.914 4.262 11.723 6.355-3.21 35.344-32.926 63.029-69.098 63.029h-85.313l-66.568 54.55v-56.552c-28.326-6.948-49.818-31.268-52.52-61.028-.19-2.093 13.41-4.212 13.41-6.354v-24.264z" fill="#ffd064"/><path d="m274.073 78.39v54.706c0 2.145-.093 4.26-.299 6.354h-273.485c-.196-2.094-.289-4.21-.289-6.355v-54.705c0-2.146.093-4.26.299-6.355h273.475c.207 2.094.299 4.209.299 6.355z" fill="#da4a54"/></g></svg>