<svg id="Capa_1" enable-background="new 0 0 512.004 512.004" viewBox="0 0 512.004 512.004" xmlns="http://www.w3.org/2000/svg"><g><path d="m351.999 81.002c8.193 47.833 16.385 95.667 24.577 143.5-8.193 43.117-16.385 86.234-24.577 129.35-15.298 7.511-30.596 15.022-45.894 22.533-15.035-5.548-30.071-11.095-45.106-16.643-4.904-7.361-9.808-14.721-14.712-22.082 4.904-9.833 9.808-19.665 14.712-29.498l30.97-59.98c10.08-19.51 15.4-41.43 15.4-63.38v-103.8c8.12-2.752 16.24-5.505 24.36-8.257 6.756 2.752 13.513 5.504 20.27 8.257z" fill="#e6f0f2"/><path d="m465.749 350.782c-21.101 17.158-42.202 34.317-63.303 51.475-16.816-16.135-33.631-32.27-50.447-48.405v-272.85c7.771-5 15.543-10 23.314-15 7.352 5 14.704 10 22.056 15v103.8c0 21.95 5.32 43.87 15.4 63.38z" fill="#cfdfe6"/><path d="m351.999 353.852c9.326 24.986 18.652 49.972 27.979 74.958-9.329 27.73-18.658 55.461-27.987 83.192-46.66 0-93.321 0-139.981 0-.408-34.199-.816-68.397-1.223-102.596 16.738-16.555 33.475-33.109 50.213-49.664l14.99-7.55c25.159-10.44 50.989-9.86 76.009 1.66z" fill="#80bfff"/><path d="m503.519 484.292c-3.585 5.887-10.074 14.189-20.88 20.294-11.986 6.772-23.25 7.433-28.43 7.416-34.073 0-68.146 0-102.218 0 .003-52.717.005-105.433.008-158.15 1.657.89 4.061 2.139 7.01 3.52 9.681 4.533 26.37 12.61 46.9 12.61 11.67 0 23.36-2.32 34.91-6.93l24.93-12.27 39.76 77c9.32 18.04 8.57 39.17-1.99 56.51z" fill="#69f"/><path d="m351.999 51.002c2.858 5 5.716 10 8.575 15-2.858 5-5.716 10-8.575 15h-48.5c-8.229 0-15-6.771-15-15s6.771-15 15-15z" fill="#cfdfe6"/><path d="m415.499 66.002c0 8.229-6.771 15-15 15h-48.5v-30h48.5c8.229 0 15 6.771 15 15z" fill="#b9c9d9"/><path d="m145.499 178.002c6.897 18.128 13.794 36.255 20.691 54.383-6.897 15.362-13.794 30.725-20.691 46.087-15.457 7.673-30.915 15.346-46.372 23.019-23.043-2.336-46.085-4.673-69.128-7.009v-44.83l-28.03-49.23c-2.65-4.64-2.62-10.34.06-14.96 2.69-4.62 7.63-7.46 12.97-7.46z" fill="#e6f0f2"/><path d="m260.999 193.002v79.73c-22.298 19.516-44.596 39.031-66.894 58.547-16.202-17.602-32.404-35.204-48.606-52.807v-100.47h100.5c8.28 0 15 6.72 15 15z" fill="#cfdfe6"/><path d="m145.499 278.472c6.897 38.005 13.794 76.01 20.692 114.015-6.897 39.838-13.794 79.677-20.692 119.515h-65.1c-27.835 0-50.4-22.565-50.4-50.4v-44.64c4.745-5.497 9.489-10.995 14.234-16.492-4.745-4.503-9.489-9.005-14.234-13.508v-30l12.702-15.981c-4.234-4.673-8.468-9.346-12.702-14.019v-32.48l32.813-14.296c26.227-11.666 55.476-12.166 82.687-1.714z" fill="#ff80aa"/><path d="m260.999 272.732v188.87c.112 27.863-23.025 50.542-50.4 50.4h-65.1v-233.53c2.34.89 4.66 1.85 6.98 2.9 15.31 6.91 30.97 10.38 46.66 10.38 13.913-.074 28.398-2.494 41.018-8.791z" fill="#ff4d88"/><path d="m99.999 341.962c0 8.29-6.72 15-15 15h-55v-30h55c8.28 0 15 6.72 15 15z" fill="#ff4d88"/><path d="m99.999 401.962c0 8.29-6.72 15-15 15h-55v-30h55c8.28 0 15 6.72 15 15z" fill="#ff4d88"/><path d="m145.749.002 22.5 42.538-22.5 47.462c-24.81 0-45-20.19-45-45s20.19-45 45-45z" fill="#ff80aa"/><circle cx="40.999" cy="15.002" fill="#ff80aa" r="15"/><circle cx="72.999" cy="132.002" fill="#ff80aa" r="15"/><circle cx="229.999" cy="118.002" fill="#ff4d88" r="15"/><g fill="#69f"><circle cx="453.999" cy="108.002" r="15"/><circle cx="496.999" cy="15.002" r="15"/><circle cx="496.999" cy="192.002" r="15"/></g><path d="m190.749 45.002c0 24.81-20.19 45-45 45v-90c24.81 0 45 20.19 45 45z" fill="#ff4d88"/></g><g/><g/><g/><g/><g/><g/><g/><g/><g/><g/><g/><g/><g/><g/><g/></svg>