<svg id="Layer_1" height="512" viewBox="0 0 48 48" width="512" xmlns="http://www.w3.org/2000/svg"><path d="m19 35h10v6h-10z" fill="#00286f"/><path d="m37.333 39h-26.666c-2.025 0-3.667 1.642-3.667 3.667 0 .736.597 1.333 1.333 1.333h31.333c.736 0 1.333-.597 1.333-1.333 0-2.025-1.642-3.667-3.667-3.667z" fill="#0d3b8d"/><rect fill="#0d3b8d" height="33" rx="5" width="42" x="3" y="4"/><circle cx="24" cy="34" fill="#cfe0f3" r="1.5"/><rect fill="#47caf0" height="24" rx="2" width="36" x="6" y="7"/><circle cx="33.5" cy="15.5" fill="#eff3f9" r="5.5"/><path d="m38.365 18.063c.404-.766.635-1.637.635-2.563 0-3.038-2.462-5.5-5.5-5.5v5.5z" fill="#ffc343"/><rect fill="#ffc343" height="6" rx="1" width="4" x="9" y="15"/><rect fill="#eff3f9" height="11" rx="1" width="4" x="15" y="10"/><rect fill="#1761b2" height="8" rx="1" width="4" x="21" y="13"/><g fill="#338dd6"><path d="m37.999 25h-8.999c-.553 0-1-.448-1-1s.447-1 1-1h8.999c.553 0 1 .448 1 1s-.447 1-1 1z"/><path d="m35 28h-6c-.553 0-1-.448-1-1s.447-1 1-1h6c.553 0 1 .448 1 1s-.447 1-1 1z"/><path d="m24 25h-14c-.553 0-1-.448-1-1s.447-1 1-1h14c.553 0 1 .448 1 1s-.447 1-1 1z"/><path d="m20 28h-10c-.553 0-1-.448-1-1s.447-1 1-1h10c.553 0 1 .448 1 1s-.447 1-1 1z"/></g></svg>