<svg id="Capa_1" enable-background="new 0 0 512.013 512.013" height="512" viewBox="0 0 512.013 512.013" width="512" xmlns="http://www.w3.org/2000/svg"><path d="m264.139 261.055c-3.892-3.892-6.079-9.171-6.079-14.675v-208.409h-2.06v1.602c-.36.116-.73.21-1.115.265-1.107.158-2.277.043-3.305.484-2.817 1.207-2.562 5.225-3.856 8.003-1.36 2.92-4.689 4.515-7.904 4.717-3.215.201-6.378-.745-9.461-1.681-3.978-1.209-8.252-2.624-10.646-6.022-1.312-1.863-1.908-4.139-3.077-6.096-2.072-3.467-5.716-5.615-8.976-8-7.324-5.359-13.217-14.072-17.117-22.717-15.157 3.993-30.023 9.375-44.382 16.19l.683.789c.299 3.403 1.959 6.521 4.659 8.68l18.771 15.017c2.5 2 3.934 4.984 3.934 8.186v21.331c0 6.917 5.627 12.544 12.544 12.544h8.772c5.78 0 10.483 4.703 10.483 10.483v10.1c0 3.306-1.587 6.455-4.244 8.424l-51.498 38.147c-1.793 1.328-4.009 2.059-6.24 2.059h-31.837c-6.917 0-12.544 5.627-12.544 12.544v20.999c0 3.351 1.305 6.501 3.674 8.869l22.314 22.313c2.369 2.369 5.519 3.674 8.869 3.674h31.416c5.78 0 10.483 4.703 10.483 10.483v9.32c0 6.917 5.627 12.544 12.544 12.544h21.93c5.78 0 10.483 4.703 10.483 10.483 0 6.917 5.627 12.544 12.544 12.544h28.509c5.78 0 10.483 4.703 10.483 10.484v30.139c0 3.181-1.419 6.152-3.892 8.152l-42.987 34.755c-2.96 2.393-4.658 5.949-4.658 9.755v14.728c0 2.89-1.21 5.681-3.32 7.655l-16.144 15.105c-2.525 2.363-3.973 5.701-3.973 9.16v32.835c0 5.78-4.703 10.483-10.483 10.483h-17.133c-5.78 0-10.483-4.703-10.483-10.483v-20.948c0-1.873-.43-3.755-1.242-5.442l-11.975-24.872c-.679-1.409-1.038-2.981-1.038-4.547v-47.397c0-4.024-1.949-7.83-5.214-10.18l-45.253-32.583c-2.729-1.964-4.358-5.145-4.358-8.508v-32.781c0-1.781.458-3.544 1.323-5.098l2.388-4.29c2.723-4.893 1.848-11.065-2.128-15.007l-39.739-39.407c-1.971-1.955-3.101-4.668-3.101-7.444v-25.092c0-3.505-1.481-6.874-4.064-9.243l-20.398-18.688c-45.542 95.185-28.903 212.683 49.955 291.54 99.977 99.977 262.071 99.977 362.048 0 .517-.517 1.015-1.045 1.526-1.565z" fill="#23a8fe"/><path d="m190.543 8.526c-15.157 3.993-30.023 9.375-44.382 16.19l.683.789c.299 3.403 1.959 6.521 4.659 8.68l14.518 11.615c11.273-7.855 23.042-14.681 35.17-20.514-4.363-4.886-7.975-10.836-10.648-16.76z" fill="#0193fa"/><path d="m167.209 467.032c-2.128-.659-3.959-1.985-5.271-3.725-10.763-7.82-21.058-16.572-30.764-26.277-60.941-60.941-84.734-144.962-71.382-223.926l-7.207-7.148c-1.971-1.955-3.101-4.668-3.101-7.444v-25.092c0-3.505-1.481-6.874-4.064-9.243l-20.399-18.687c-45.542 95.185-28.903 212.683 49.955 291.54 57.147 57.147 134.587 81.61 209.123 73.427-41.153-4.518-81.414-18.997-116.89-43.425z" fill="#0193fa"/><path d="m262.079 262.085 174.945 174.945c49.988-49.988 74.95-115.506 74.949-181.024h.033c0-65.518-24.994-131.035-74.983-181.024-49.987-49.988-115.505-74.982-181.023-74.982v.033 247.377c0 5.504 2.187 10.783 6.079 14.675z" fill="#bc7c63"/><path d="m305.217 246.289c-3.892-3.892-6.079-9.171-6.079-14.675v-227.971c-14.269-2.426-28.703-3.643-43.138-3.643v.033 247.377c0 5.505 2.187 10.783 6.079 14.675l174.945 174.945c10.036-10.036 19.046-20.707 27.065-31.87z" fill="#ab6b51"/><path d="m262.079 262.085 135.056 135.056c38.973-38.973 58.435-90.054 58.434-141.134h.026c0-51.081-19.487-102.161-58.46-141.135s-90.054-58.46-141.135-58.46v.025 190.973c0 5.504 2.187 10.783 6.079 14.675z" fill="#fee55a"/><path d="m305.815 305.821 91.32 91.32c10.108-10.108 18.891-21.035 26.375-32.56l-118.293-118.292c-3.892-3.892-6.079-9.171-6.079-14.675v-170.507c-14.196-3.128-28.667-4.696-43.138-4.696v.025 190.974c0 1.376.137 2.738.402 4.068.266 1.33.661 2.627 1.178 3.874 1.033 2.495 2.553 4.787 4.499 6.733z" fill="#ffd301"/><path d="m262.079 262.085 95.234 95.234c27.976-27.976 41.947-64.644 41.946-101.312h.019c0-36.668-13.988-73.336-41.965-101.312-27.977-27.977-64.645-41.965-101.312-41.965v.018 134.662c-.001 5.504 2.186 10.783 6.078 14.675z" fill="#ffa85d"/><path d="m305.815 305.821 51.497 51.497c10.251-10.251 18.614-21.672 25.105-33.829l-77.201-77.201c-3.892-3.892-6.079-9.171-6.079-14.675v-112.257c-14.017-4.412-28.577-6.626-43.138-6.626v.018 134.662c0 1.376.137 2.738.402 4.068.266 1.33.661 2.627 1.178 3.874 1.033 2.495 2.553 4.787 4.499 6.733z" fill="#ff9839"/><path d="m262.079 262.085 55.411 55.411c16.98-16.98 25.459-39.235 25.459-61.49h.011c0-22.255-8.49-44.51-25.47-61.49s-39.235-25.47-61.49-25.47v.011 78.352c0 5.505 2.187 10.784 6.079 14.676z" fill="#ff656f"/><path d="m305.815 305.821 11.675 11.675c10.679-10.679 17.99-23.446 21.949-36.985l-34.222-34.222c-3.892-3.892-6.079-9.171-6.079-14.675v-51.114c-13.324-7.623-28.227-11.454-43.138-11.454v.011 78.352c0 1.376.137 2.738.402 4.068.266 1.33.661 2.627 1.178 3.874 1.033 2.495 2.553 4.787 4.499 6.733z" fill="#ff4756"/><path d="m262.411 283.218h-28.509c-6.359 0-11.514-5.155-11.514-11.513 0-6.359-5.155-11.513-11.513-11.513h-21.93c-6.359 0-11.513-5.155-11.513-11.513v-9.32c0-6.359-5.155-11.513-11.513-11.513h-31.416c-3.054 0-5.982-1.213-8.141-3.372l-22.313-22.313c-2.159-2.159-3.372-5.088-3.372-8.141v-20.999c0-6.359 5.155-11.513 11.513-11.513h31.837c2.468 0 4.87-.793 6.853-2.262l51.498-38.147c2.932-2.172 4.66-5.604 4.66-9.252v-10.1c0-6.359-5.155-11.513-11.513-11.513h-8.772c-6.359 0-11.513-5.155-11.513-11.513v-21.333c0-3.498-1.59-6.806-4.321-8.99l-18.771-15.017c-2.731-2.185-4.321-5.493-4.321-8.99v-.484c-26.372 12.289-51.083 29.311-72.849 51.077-21.382 21.382-38.175 45.611-50.411 71.46l20.159 18.494c2.377 2.18 3.73 5.258 3.73 8.484v25.092c0 3.07 1.226 6.013 3.406 8.175l39.738 39.407c3.665 3.635 4.463 9.265 1.953 13.775l-2.388 4.29c-.953 1.712-1.453 3.64-1.453 5.599v32.782c0 3.703 1.781 7.18 4.786 9.343l45.253 32.583c3.005 2.164 4.786 5.641 4.786 9.344v47.397c0 1.729.389 3.437 1.14 4.995l11.975 24.871c.75 1.558 1.14 3.265 1.14 4.995v20.948c0 6.359 5.155 11.513 11.513 11.513h17.133c6.359 0 11.513-5.155 11.513-11.513v-32.835c0-3.186 1.321-6.23 3.647-8.407l16.144-15.105c2.327-2.177 3.647-5.221 3.647-8.407v-14.728c0-3.477 1.571-6.767 4.275-8.953l42.987-34.755c2.703-2.186 4.275-5.476 4.275-8.953v-30.14c-.002-6.362-5.157-11.517-11.515-11.517z" fill="#43cb8e"/><path d="m44.723 164.937c2.377 2.181 3.73 5.258 3.73 8.484v25.092c0 3.07 1.226 6.013 3.406 8.175l7.735 7.67c8.37-51.032 32.222-100.018 71.58-139.376 11.188-11.188 23.155-21.118 35.725-29.799l-14.754-11.803c-2.664-2.131-4.321-5.25-4.321-9.462-55.708 25.946-99.556 71.472-123.259 122.525z" fill="#00ba66"/><path d="m159.817 461.75c1.678 3.71 5.258 6.369 9.501 6.73-3.207-2.161-6.373-4.408-9.501-6.73z" fill="#00ba66"/><path d="m216.635 41.303c1.169 1.956 1.765 4.232 3.077 6.096 2.394 3.399 6.668 4.814 10.646 6.022 3.082.936 6.246 1.882 9.461 1.681 3.215-.202 6.544-1.797 7.904-4.717 1.294-2.778 1.039-6.796 3.856-8.003 1.028-.441 2.198-.326 3.305-.484.385-.055.755-.149 1.115-.265v-41.6c-22.296 0-44.59 2.898-66.273 8.682 3.87 9.241 10.08 18.843 17.933 24.589 3.26 2.384 6.904 4.533 8.976 7.999z" fill="#43cb8e"/><path d="m199.929 25.879c18.012-8.781 36.841-15.32 56.071-19.624v-6.222s-31.32-.729-66.273 8.682c2.491 5.948 5.957 12.041 10.202 17.164z" fill="#00ba66"/></svg>