<svg id="Layer_1" viewBox="0 0 512 512" xmlns="http://www.w3.org/2000/svg" data-name="Layer 1"><path d="m476.807 106.808h-104.228c-12.2 0-22.182 9.982-22.182 22.183s9.982 22.182 22.182 22.182h3.648v237.744l-95.239-164.979c-9.661-16.754-14.127-33.303-14.127-52.654v-112.051h7.618c12.726 0 23.116-10.42 23.116-23.117s-10.391-23.116-23.116-23.116h-126.703c-12.697 0-23.087 10.42-23.087 23.116s10.391 23.117 23.087 23.117h7.618v112.05c0 19.352-4.437 35.901-14.098 52.654l-122.878 212.835c-7.209 12.492-7.209 26.794 0 39.315 7.209 12.492 19.614 19.643 34.033 19.643h317.384c9.021 0 17.262-2.799 23.925-7.961 8.41 7.003 19.205 11.23 30.948 11.23 26.648 0 48.48-21.803 48.48-48.451v-299.375h3.619c12.2 0 22.182-9.982 22.182-22.182s-9.982-22.183-22.182-22.183z" fill="#b3ddf4"/><path d="m424.707 499c26.648 0 48.48-21.803 48.48-48.451v-138.698c-11.529-16.141-33.974-4.904-59.776 3.036-15.499 4.757-33.274.759-37.185-3.298v138.961c0 26.648 21.803 48.451 48.48 48.451z" fill="#ef5350"/><path d="m376.227 450.549v-61.632l-38.399-66.518c-31.406-43.986-92.711-13.205-163.052 8.424-35.244 10.847-74.77 5.033-93.102-3.611l-63.255 109.562c-7.209 12.492-7.209 26.794 0 39.315 7.209 12.492 19.614 19.643 34.033 19.643h317.384c9.021 0 17.262-2.799 23.925-7.961-10.696-8.906-17.532-22.303-17.532-37.221z" fill="#ffd54f"/><path d="m376.227 450.549v-61.632l-38.399-66.518c-31.406-43.986-92.711-13.205-163.052 8.424-35.244 10.847-74.77 5.033-93.102-3.611l-63.255 109.562c-7.209 12.492-7.209 26.794 0 39.315 7.209 12.492 19.614 19.643 34.033 19.643h317.384c9.021 0 17.262-2.799 23.925-7.961-10.696-8.906-17.532-22.303-17.532-37.221z" fill="#ffd54f"/><path d="m372.578 151.173h104.228c12.2 0 22.182-9.982 22.182-22.182 0-12.201-9.982-22.183-22.182-22.183h-104.228c-12.2 0-22.182 9.982-22.182 22.183 0 12.2 9.982 22.182 22.182 22.182z" fill="#92cdf4"/><path d="m476.807 106.808h-2.055c2.087 3.379 3.297 7.352 3.297 11.594 0 12.2-9.982 22.182-22.182 22.182h-102.173c3.916 6.339 10.928 10.588 18.886 10.588h104.228c12.2 0 22.182-9.982 22.182-22.182s-9.982-22.183-22.182-22.183z" fill="#7ac2ea"/><g fill="#464f5e"><path d="m398.32 214.72h-22.094v14h22.094c3.866 0 7-3.134 7-7s-3.134-7-7-7z"/><path d="m424.35 250.265c0-3.866-3.134-7-7-7h-41.124v14h41.124c3.866 0 7-3.134 7-7z"/><path d="m405.32 278.839c0-3.866-3.134-7-7-7h-22.094v14h22.094c3.866 0 7-3.134 7-7z"/><path d="m417.35 186.145h-41.124v14h41.124c3.866 0 7-3.134 7-7s-3.134-7-7-7z"/></g><path d="m453.515 82.291c10.858 0 19.702-8.844 19.702-19.701s-8.844-19.672-19.702-19.672-19.672 8.844-19.672 19.672 8.844 19.701 19.672 19.701z" fill="#ef5350"/><path d="m392.105 44.814c8.756 0 15.878-7.151 15.878-15.907s-7.122-15.907-15.878-15.907-15.907 7.151-15.907 15.907 7.122 15.907 15.907 15.907z" fill="#ef5350"/><path d="m460.012 44.042c1.69 2.901 2.675 6.257 2.675 9.842 0 10.858-8.844 19.701-19.702 19.701-2.263 0-4.431-.406-6.458-1.116 3.417 5.861 9.751 9.822 16.988 9.822 10.858 0 19.702-8.844 19.702-19.701 0-8.556-5.531-15.853-13.205-18.547z" fill="#e53935"/><path d="m396.307 13.585c2.039 2.676 3.264 6.004 3.264 9.617 0 8.756-7.122 15.907-15.878 15.907-1.468 0-2.883-.216-4.233-.589 2.906 3.814 7.481 6.295 12.644 6.295 8.756 0 15.878-7.151 15.878-15.907 0-7.3-4.956-13.467-11.676-15.323z" fill="#e53935"/><path d="m432.559 369.495c8.756 0 15.907-7.122 15.907-15.907s-7.151-15.878-15.907-15.878-15.907 7.122-15.907 15.878 7.151 15.907 15.907 15.907z" fill="#ce2929"/><path d="m407.954 416.312c3.969 0 7.18-3.24 7.18-7.21s-3.211-7.209-7.18-7.209-7.209 3.24-7.209 7.209 3.24 7.21 7.209 7.21z" fill="#ce2929" fill-rule="evenodd"/><path d="m439.68 451.22c6.801 0 12.346-5.546 12.346-12.376s-5.546-12.346-12.346-12.346-12.376 5.546-12.376 12.346 5.546 12.376 12.376 12.376z" fill="#ce2929" fill-rule="evenodd"/><path d="m147.777 59.233h126.703c12.726 0 23.116-10.42 23.116-23.117 0-12.696-10.391-23.116-23.116-23.116h-126.703c-12.697 0-23.087 10.42-23.087 23.116 0 12.697 10.391 23.117 23.087 23.117z" fill="#92cdf4"/><path d="m274.479 13h-3.687c2.079 3.467 3.279 7.512 3.279 11.822 0 12.697-10.391 23.117-23.116 23.117h-122.987c4.044 6.746 11.422 11.294 19.809 11.294h126.703c12.726 0 23.116-10.42 23.116-23.117s-10.391-23.116-23.116-23.116z" fill="#7ac2ea"/><g fill="#ffb74d"><path d="m276.931 427.637c14.681 0 26.677-11.996 26.677-26.677s-11.996-26.677-26.677-26.677-26.707 11.967-26.707 26.677 11.996 26.677 26.707 26.677z"/><path d="m123.113 459.48c10.858 0 19.702-8.844 19.702-19.701s-8.844-19.672-19.702-19.672-19.702 8.844-19.702 19.672 8.873 19.701 19.702 19.701z"/><path d="m216.192 394.888c6.83 0 12.375-5.546 12.375-12.346s-5.546-12.376-12.375-12.376-12.346 5.575-12.346 12.376 5.546 12.346 12.346 12.346z" fill-rule="evenodd"/><path d="m184.786 423.463c3.969 0 7.209-3.24 7.209-7.209s-3.24-7.21-7.209-7.21-7.209 3.24-7.209 7.21 3.24 7.209 7.209 7.209z" fill-rule="evenodd"/></g><path d="m206.239 271.834c10.858 0 19.702-8.844 19.702-19.701s-8.844-19.673-19.702-19.673-19.672 8.844-19.672 19.673 8.844 19.701 19.672 19.701z" fill="#ffd54f"/><path d="m286.579 376.1c4.246 4.725 6.838 10.966 6.838 17.801 0 14.681-11.996 26.677-26.677 26.677-3.408 0-6.668-.651-9.669-1.823 4.895 5.444 11.988 8.882 19.86 8.882 14.681 0 26.677-11.996 26.677-26.677 0-11.304-7.087-20.981-17.029-24.86z" fill="#f2a949"/><path d="m128.633 420.909c2.493 3.296 3.991 7.381 3.991 11.811 0 10.858-8.844 19.701-19.702 19.701-1.91 0-3.755-.288-5.506-.801 3.606 4.762 9.302 7.86 15.696 7.86 10.858 0 19.702-8.844 19.702-19.702 0-8.917-6.002-16.475-14.182-18.87z" fill="#f2a949"/><path d="m211.758 233.262c2.493 3.296 3.991 7.381 3.991 11.812 0 10.857-8.844 19.701-19.701 19.701-1.903 0-3.74-.287-5.483-.796 3.598 4.759 9.281 7.855 15.674 7.855 10.858 0 19.702-8.844 19.702-19.701 0-8.917-6.002-16.475-14.182-18.871z" fill="#efc44b"/><g fill="#464f5e"><path d="m184.488 115.857c0-3.866-3.134-7-7-7h-22.094v14h22.094c3.866 0 7-3.134 7-7z"/><path d="m184.488 169.503c0-3.866-3.134-7-7-7h-22.094v8.78c0 1.765-.05 3.499-.124 5.22h22.218c3.866 0 7-3.134 7-7z"/><path d="m203.518 142.68c0-3.866-3.134-7-7-7h-41.124v14h41.124c3.866 0 7-3.134 7-7z"/><path d="m196.518 82.062h-41.124v14h41.124c3.866 0 7-3.134 7-7s-3.134-7-7-7z"/></g><g fill="#efc44b"><path d="m377.437 461.282c-.662 5.061-2.353 10.061-5.085 14.806-7.209 12.492-19.614 19.643-34.033 19.643h31.515c9.021 0 17.262-2.799 23.925-7.961-8.053-6.705-13.915-15.958-16.322-26.488z"/><path d="m372.352 436.772c1.695 2.937 2.977 5.977 3.875 9.068v-56.924l-38.4-66.519c-11.272-15.788-26.397-21.942-44.409-22.346l78.935 136.72z"/></g><path d="m293.418 300.052c18.012.404 33.137 6.558 44.409 22.346l-56.839-98.46c-9.661-16.754-14.127-33.303-14.127-52.654v-112.051h-31.486v112.05c0 19.352 4.437 35.901 14.098 52.654l43.944 76.115z" fill="#92cdf4"/><path d="m452.187 303.85v146.699c0 23.032-16.314 42.433-37.947 47.277 3.376.752 6.872 1.175 10.466 1.175 26.648 0 48.48-21.803 48.48-48.451v-138.698c-5.088-7.124-12.308-8.907-21-8z" fill="#e53935"/><path d="m452.187 151.173v152.676c8.692-.906 15.911.876 21 8v-160.677h-21z" fill="#92cdf4"/></svg>