<svg id="Capa_1" enable-background="new 0 0 512 512" height="512" viewBox="0 0 512 512" width="512" xmlns="http://www.w3.org/2000/svg"><g><g fill="#7a6d79"><path d="m220.034 174.729-65.582-37.864 13.618-4.447c4.056-1.324 6.271-5.687 4.946-9.743-1.324-4.055-5.685-6.269-9.743-4.946l-30.082 9.822c-3.751 1.225-5.976 5.079-5.161 8.94l6.534 30.963c.768 3.637 3.977 6.133 7.552 6.132.528 0 1.065-.054 1.603-.168 4.175-.881 6.846-4.98 5.964-9.155l-2.958-14.016 65.582 37.864c1.217.703 2.545 1.037 3.856 1.037 2.67 0 5.267-1.386 6.698-3.865 2.135-3.695.869-8.421-2.827-10.554z"/><path d="m419.148 292.649-6.534-30.963c-.881-4.175-4.978-6.848-9.155-5.964-4.175.881-6.846 4.98-5.964 9.155l2.958 14.016-65.582-37.863c-3.696-2.135-8.421-.868-10.554 2.828-2.134 3.696-.868 8.421 2.828 10.554l65.582 37.864-13.618 4.447c-4.056 1.324-6.271 5.687-4.946 9.743 1.064 3.26 4.09 5.33 7.343 5.33.795 0 1.603-.124 2.4-.384l30.082-9.822c3.75-1.226 5.975-5.08 5.16-8.941z"/><path d="m355.741 109.052c1.064 3.26 4.09 5.33 7.343 5.33.795 0 1.604-.124 2.4-.384 4.056-1.324 6.271-5.687 4.946-9.743l-9.823-30.082c-1.225-3.751-5.077-5.977-8.94-5.161l-30.963 6.534c-4.175.881-6.846 4.98-5.964 9.155.881 4.175 4.976 6.848 9.155 5.964l14.017-2.958-37.864 65.582c-2.134 3.696-.868 8.421 2.828 10.554 1.217.703 2.545 1.037 3.856 1.037 2.67 0 5.267-1.386 6.698-3.865l37.864-65.581z"/></g><path d="m359.007 199.224-61.15 105.915-114.836-66.301 61.15-105.915c2.845-4.927 9.145-6.616 14.073-3.771l96.993 55.999c4.927 2.846 6.615 9.146 3.77 14.073z" fill="#f79595"/><path d="m355.236 185.152-20.007-11.551c.717 2.722.404 5.716-1.115 8.346l-62.408 108.095 26.151 15.098 61.15-105.915c2.845-4.928 1.157-11.228-3.771-14.073z" fill="#f47c7c"/><path d="m0 150.689v282.165c0 5.69 4.612 10.302 10.302 10.302h492.354c9.544 0 12.929-12.635 4.664-17.407l-491.867-283.981c-6.868-3.965-15.453.991-15.453 8.921z" fill="#fee97d"/><path d="m507.32 425.75-177.264-102.345c31.98 34.024 31.41 84.736 6.971 119.751h165.629c9.544 0 12.929-12.634 4.664-17.406z" fill="#fed402"/><path d="m302.886 357.461c-2.851-3.175-7.736-3.437-10.911-.588l-10.659 9.57v-151.872c0-4.267-3.459-7.726-7.726-7.726s-7.726 3.459-7.726 7.726v151.872l-10.66-9.57c-3.175-2.851-8.061-2.588-10.911.588-2.851 3.175-2.588 8.06.588 10.911l23.548 21.14c1.468 1.318 3.315 1.977 5.161 1.977s3.694-.659 5.161-1.977l23.547-21.14c3.176-2.851 3.439-7.736.588-10.911z" fill="#7a6d79"/></g></svg>