<svg id="Layer_1" height="512" viewBox="0 0 48 48" width="512" xmlns="http://www.w3.org/2000/svg" xmlns:xlink="http://www.w3.org/1999/xlink" data-name="Layer 1"><linearGradient id="linear-gradient" gradientUnits="userSpaceOnUse" x1="8.107" x2="39.094" y1="8.107" y2="39.094"><stop offset="0" stop-color="#4793eb"/><stop offset="1" stop-color="#2367ec"/></linearGradient><linearGradient id="linear-gradient-2" gradientUnits="userSpaceOnUse" x1="8.508" x2="38.208" y1="9.527" y2="39.227"><stop offset="0" stop-color="#4aff9e"/><stop offset="1" stop-color="#43dc8f"/></linearGradient><linearGradient id="linear-gradient-3" x1="2.397" x2="32.097" xlink:href="#linear-gradient-2" y1="15.639" y2="45.339"/><linearGradient id="linear-gradient-4" x1="15.735" x2="45.435" xlink:href="#linear-gradient-2" y1="2.3" y2="32.001"/><linearGradient id="linear-gradient-5" x1="21.217" x2="50.917" xlink:href="#linear-gradient-2" y1="-3.181" y2="26.519"/><circle cx="24" cy="24" fill="url(#linear-gradient)" r="22"/><path d="m22.938 11.253v.037a1.916 1.916 0 0 1 -1.061 1.716l-5.118 2.56a1.835 1.835 0 0 0 -.206.119l-2.619 1.746a1.931 1.931 0 0 0 -.653.739l-.389.782a1.906 1.906 0 0 0 0 1.716 1.92 1.92 0 0 1 -.361 2.215l-.057.058a1.918 1.918 0 0 1 -2.344.288l-3.345-2.006a1.922 1.922 0 0 1 -.833-1.039l-.823-2.47a2.278 2.278 0 0 1 -1.926-.9 22.063 22.063 0 0 1 9.988-11.98l3.059 2.124a1.932 1.932 0 0 1 .622.718l.3.6a1.917 1.917 0 0 0 1.716 1.061h2.133a1.919 1.919 0 0 1 1.917 1.916z" fill="url(#linear-gradient-2)"/><path d="m26.081 30.038v1.085a1.292 1.292 0 0 1 -.066.409l-.885 2.654a1.289 1.289 0 0 1 -.312.506l-1.6 1.6a1.289 1.289 0 0 0 -.354.662l-.847 4.232a1.293 1.293 0 0 1 -.691.9l-.694.348a1.3 1.3 0 0 1 -1.495-.243l-1.286-1.286a1.346 1.346 0 0 1 -.243-.337l-.817-1.634a1.307 1.307 0 0 1 -.136-.579v-4.126a1.3 1.3 0 0 0 -.716-1.159l-1.072-.535a1.29 1.29 0 0 1 -.5-.44l-1.687-2.531a1.293 1.293 0 0 1 -.218-.718v-.9a1.3 1.3 0 0 1 .716-1.158l.993-.5a1.288 1.288 0 0 0 .579-.579l.5-.993a1.3 1.3 0 0 1 1.155-.716h1.806a1.294 1.294 0 0 1 .916.379l.289.289a1.3 1.3 0 0 0 .916.38h.268a1.3 1.3 0 0 1 1.295 1.294 1.3 1.3 0 0 0 .715 1.159l2.76 1.379a1.3 1.3 0 0 1 .711 1.158z" fill="url(#linear-gradient-3)"/><path d="m46 24a21.929 21.929 0 0 1 -6.276 15.385l-.963-2.385a2.079 2.079 0 0 1 -.108-.663v-2.309a2.1 2.1 0 0 0 -.221-.937l-1.654-3.306a2.1 2.1 0 0 1 -.221-.937v-.306a2.095 2.095 0 0 0 -3.031-1.874l-.717.359a2.1 2.1 0 0 1 -.937.221h-.09a2.1 2.1 0 0 1 -1.988-1.434l-.462-1.387a2.1 2.1 0 0 1 -.108-.663v-1.681a2.094 2.094 0 0 1 .933-1.743l1.908-1.272a2.085 2.085 0 0 1 .654-.289l3.246-.812a2.1 2.1 0 0 1 1.172.045l2.241.747a2.1 2.1 0 0 0 .663.108h5.359a22.041 22.041 0 0 1 .6 5.133z" fill="url(#linear-gradient-4)"/><path d="m43.881 14.571h-3.129a1.779 1.779 0 0 1 -1.257-.52l-.216-.216a1.78 1.78 0 0 0 -1.257-.521h-1.358a1.775 1.775 0 0 0 -.8.188l-1.762.882a1.777 1.777 0 0 1 -.8.187h-.317a1.779 1.779 0 0 1 -1.257-3.035l1.791-1.79a1.791 1.791 0 0 1 .461-.333l1.88-.94a1.787 1.787 0 0 1 .8-.187h2.74a22.031 22.031 0 0 1 4.481 6.285z" fill="url(#linear-gradient-5)"/></svg>