<svg height="512" viewBox="0 0 64 64" width="512" xmlns="http://www.w3.org/2000/svg"><g id="flat"><path d="m55 55h-25l6 6h19a6 6 0 0 0 6-6v-4c-3 4-6 4-6 4z" fill="#da1c4b"/><path d="m30 55 6 6h-9l-4.2-6z" fill="#f9bb4b"/><path d="m20 51h-4c4-2 4-4 4-4l-3-1a6.925 6.925 0 0 0 4-3l-4-1a6.83 6.83 0 0 0 4-4h-4c2-1 2-4 2-4l-4 1h-1c1-1 0-3 0-3l-5 3v4l-6 1 .316.949a2.8 2.8 0 0 0 2.684 2.051h2a2 2 0 0 1 2 2 2.5 2.5 0 0 1 -1.461 2.625l-1.521.652a6.533 6.533 0 0 0 -4.018 5.723 7.021 7.021 0 0 0 7 7h17z" fill="#f9bb4b"/><path d="m12 38h2v2h-2z" fill="#fcf05a"/><path d="m12.919 41.5h3.162v2h-3.162z" fill="#fcf05a" transform="matrix(.949 -.316 .316 .949 -12.701 6.77)"/><path d="m12.919 45.5h3.162v2h-3.162z" fill="#fcf05a" transform="matrix(.949 -.316 .316 .949 -13.967 6.976)"/><path d="m20 51h-4a5 5 0 0 0 0 10h11z" fill="#ffd782"/><path d="m17 58a3 3 0 0 1 -3-3h2a1 1 0 0 0 2 0h2a3 3 0 0 1 -3 3z" fill="#f9bb4b"/><path d="m7.081 53.443a6.146 6.146 0 0 1 -2.528-.543l.888-1.8a3.852 3.852 0 0 0 3.112 0l.894 1.79a5.251 5.251 0 0 1 -2.366.553z" fill="#fcf05a"/><path d="m8.081 57.443a6.146 6.146 0 0 1 -2.528-.543l.888-1.8a3.857 3.857 0 0 0 3.112 0l.894 1.79a5.251 5.251 0 0 1 -2.366.553z" fill="#fcf05a"/><path d="m25 41h30v14h-30z" fill="#f9bb4b"/><path d="m51 19h-22a2 2 0 0 1 -2-2v-4l3 2h20l3-2v4a2 2 0 0 1 -2 2z" fill="#4da19a"/><path d="m33 11h14v4h-14z" fill="#f0f0d9"/><path d="m42 11h-4l-1-4h6z" fill="#4da19a"/><path d="m43 7h-6l2-4h2z" fill="#f9bb4b"/><path d="m52 26h-24l-3-2v4a2 2 0 0 0 2 2h26a2 2 0 0 0 2-2v-4z" fill="#4da19a"/><path d="m29 19v7h9.286l1.714-3 1.714 3h9.286v-7z" fill="#f0f0d9"/><path d="m44 30h-8l4-7z" fill="#f9bb4b"/><path d="m54 37h-28l-3-2v4a2 2 0 0 0 2 2h30a2 2 0 0 0 2-2v-4z" fill="#4da19a"/><path d="m27 30v7h5.286l1.714-3 1.714 3h8.572l1.714-3 1.714 3h5.286v-7z" fill="#f0f0d9"/><path d="m38 41h-8l4-7z" fill="#f9bb4b"/><path d="m50 41h-8l4-7z" fill="#f9bb4b"/><path d="m33 8h2v3h-2z" fill="#f9bb4b"/><path d="m45 8h2v3h-2z" fill="#f9bb4b"/><path d="m32 41h4v14h-4z" fill="#ffd782"/><path d="m32 49v-8h-4z" fill="#fcf05a"/><path d="m36 49v-8h4z" fill="#fcf05a"/><path d="m44 41h4v14h-4z" fill="#ffd782"/><path d="m44 49v-8h-4z" fill="#fcf05a"/><path d="m48 49v-8h4z" fill="#fcf05a"/><path d="m39 41h2v10h-2z" fill="#66342e"/><g fill="#d3843d"><path d="m25 51h7v4h-7z"/><path d="m48 51h7v4h-7z"/><path d="m36 51h8v4h-8z"/><path d="m30 30h2v3h-2z"/><path d="m37 30h2v3h-2z"/><path d="m41 30h2v3h-2z"/><path d="m48 30h2v3h-2z"/><path d="m32 19h2v3h-2z"/><path d="m36 19h2v3h-2z"/><path d="m46 19h2v3h-2z"/><path d="m42 19h2v3h-2z"/></g></g></svg>