<svg enable-background="new 0 0 283.465 283.465" height="512" viewBox="0 0 283.465 283.465" width="512" xmlns="http://www.w3.org/2000/svg"><g id="Layer_1_39_"><g clip-rule="evenodd" fill-rule="evenodd"><g><path d="m104.798 190.72c.6-2.098 3.297-3.296 6.293-4.196 2.998-.899 3.596-.899 6.594-1.497 2.996-.6 1.498-2.098 2.397-7.193.9-5.096 2.996-1.798 5.693-1.798 2.698 0 .6 1.199 3.596 3.895 2.997 2.697 2.698 5.395 3.896 10.189 1.199 4.795.189 16.634 1.687 23.527 1.498 6.892 4.328 8.825 7.625 12.422 3.296 3.596 1.058 9.296 2.256 13.79 1.199 4.495 2.228 5.294 3.727 8.59 1.498 3.296-.524 6.097-.524 11.492 0 1.158-.925 3.724-.988 5.652-.068 2.081.702 3.578.029 6.281.001-.001 2.654-1.977 4.675-4.731.917-1.249 1.409-3.456 1.982-4.315 1.837-2.754 2.295-4.132 1.998-10.098-.296-5.966 1.675-5.508 0-10.097-1.673-4.59-2.456-3.213-4.292-8.721-1.836-5.507 1.965-10.219-.789-14.81-2.971-4.952-8.552-10.959-6.176-17.29 1.376-3.668.538-4.62 2.375-8.75 1.837-4.131 0-3.672-2.754-7.344s-1.376-5.049-3.212-9.639c-1.837-4.589-5.967-6.883-6.885-9.179-.918-2.295 3.511-9.543 3.97-13.674.46-4.132-2.594-7.438.16-11.57 2.755-4.131 5.967-1.836 10.557-4.131s15.146-6.426 19.736-10.097c4.589-3.672 5.049-3.672 7.343-7.344 2.296-3.672 3.202-7.335 3.202-7.335-2.503-2.503-4.505-1.001-8.008-1.001-3.504 0-5.506 0-7.008-3.503-1.501-3.504-1.501-2.003-4.505-2.503-3.003-.501-6.007-5.005-5.505-7.508.5-2.503 5.505-4.004 4.005-6.507-1.503-2.503-5.006 1.502-7.929-1.001s-.08-5.006-.001-9.01-5.084-8.008-8.375-5.005-6.219 3.003-7.22 0c-1.001-3.004-2.002-3.504 0-8.009 2.003-4.505 4.005-8.008 7.759-14.515s4.254-6.007 5.256-11.012c1-5.005 3.003-11.012 2.502-15.015-.5-4.004-3.003-3.504-6.007-4.004-3.003-.501-2.502-1.501-3.003-4.505-.5-3.003-1.628-6.504-6.507-8.008-1.801-.556-2.354 3.161-5.351 5.558-2.996 2.397-2.097 3.896-2.697 6.593s-1.797 2.697-3.896 3.896c-2.098 1.199-1.799.6-5.395 2.098-3.597 1.498-2.697 2.398-7.492 3.895-4.795 1.499-5.994 4.196-8.091 9.291-2.098 5.094-.899 6.593-4.496 8.991-3.595 2.397-2.097 2.997-2.697 9.289-.599 6.294-6.593 12.288-8.391 13.785-1.798 1.499-6.293 3.297-8.091 6.893-1.799 3.596-.6 4.196-1.198 7.492-.6 3.297 0 5.394-1.199 10.489-1.2 5.094-2.998 2.997-4.496 8.391-1.499 5.394-3.297 3.596-4.795 5.694-.866 1.213-1.732 3.027-1.73 5.441.002 1.762.466 3.844 1.73 6.246 2.996 5.693 8.99 13.485 13.186 14.684 4.195 1.199-.899 3.297 2.398 6.293 3.295 2.997 4.195 2.697 7.86 8.991 3.665 6.293 2.629 20.079 1.43 24.275s-2.998 7.492 1.199 11.089c4.196 3.599 11.988 1.801 12.587-.297z" fill="#30ab4c"/><path d="m104.798 190.72c.6-2.097 3.297-3.296 6.293-4.196 2.998-.899 3.596-.898 6.594-1.497 2.996-.6 1.498-2.098 2.397-7.193.9-5.096 2.996-1.798 5.693-1.798 2.698 0 .6 1.199 3.596 3.896 2.998 2.697 2.698 5.395 3.896 10.189 1.199 4.795.189 16.634 1.687 23.527 1.498 6.892 4.328 8.825 7.625 12.422 3.296 3.596 1.058 9.296 2.257 13.79 1.199 4.495 2.227 5.294 3.727 8.59 1.498 3.296-.524 6.097-.524 11.492 0 1.158-.925 3.724-.988 5.652-.068 2.081.702 3.579.029 6.281 0 0 3.223-10.393 3.743-10.912.52-.52-1.486-4.084.519-5.05s.372-1.263.52-1.857c.149-.594-.743-3.342 0-4.382s-.075-1.857-.297-5.05c-.223-3.194-.892-3.638-.892-3.638s-1.634-1.188-2.377-3.862.743-1.931.594-5.941c-.149-4.011-1.486-2.228-2.228-5.199-.743-2.971-1.337-3.268-2.376-6.684s-2.674-7.427-4.605-7.427-1.485-2.228-1.931-5.05 2.97-6.387 2.525-10.991c-.311-3.222-3.296-4.579-4.043-8.263-.523-2.584-.302-7.338-.413-9.561-.297-5.942-5.719-4.827-8.392-6.313-2.674-1.486-3.788-2.674-6.759-2.971s-10.546 5.718-6.386-1.412-.297-4.753-.297-4.753-5.644-5.644-6.536-9.506c-.891-3.862-4.753-1.783-6.833-3.862s-9.803-6.238-10.992-11.586c-1.188-5.347 6.833-8.912 6.239-14.854-.594-5.941-13.071 4.456-15.745 0-2.673-4.456-.594-10.399 1.782-12.478s2.377-1.783 6.239-5.347c3.862-3.565-.594-2.674-1.188-4.159-.594-1.486-1.188-4.753-1.485-11.883-.297-7.129 2.376-4.456 5.645-7.13 3.268-2.674 5.05-7.724 6.239-12.18 1.188-4.456 3.565-7.723 6.832-9.506 3.268-1.782 4.159-2.079 4.456-5.05s2.971-9.209 7.13-13.962 9.803-6.536 9.803-6.536 2.377-1.782 4.753-10.1c2.373-8.304 3.115-12.613 3.118-12.628-1.149.763-1.987 3.504-4.37 5.41-2.996 2.397-2.097 3.896-2.697 6.593s-1.797 2.697-3.895 3.896-1.799.6-5.395 2.098c-3.597 1.498-2.697 2.398-7.492 3.896-4.795 1.499-5.994 4.195-8.091 9.291-2.098 5.094-.899 6.593-4.496 8.991-3.595 2.397-2.097 2.997-2.697 9.289-.599 6.294-6.593 12.288-8.391 13.785-1.798 1.499-6.293 3.297-8.091 6.893-1.799 3.596-.6 4.196-1.198 7.492-.6 3.297 0 5.394-1.199 10.489-1.2 5.094-2.998 2.997-4.496 8.391-1.499 5.394-3.297 3.597-4.795 5.694-.866 1.213-1.732 3.027-1.73 5.441.002 1.762.466 3.844 1.73 6.247 2.996 5.693 8.99 13.485 13.186 14.684 4.195 1.199-.899 3.297 2.398 6.293 3.295 2.997 4.195 2.698 7.86 8.99 3.665 6.293 2.629 20.079 1.43 24.275s-2.998 7.492 1.199 11.089c4.195 3.597 11.987 1.799 12.586-.299z" fill="#299847"/></g><g><ellipse cx="185.419" cy="169.39" fill="#cdcccd" rx="33.637" ry="33.637" transform="matrix(.987 -.16 .16 .987 -24.739 31.888)"/><path d="m185.42 203.027c-18.578 0-33.637-15.059-33.637-33.636 0-18.578 15.06-33.637 33.637-33.637z" fill="#b3b5b5"/><path d="m185.653 195.76h-.468c-10.933-.095-20.277-6.842-24.183-16.391h48.835c-3.907 9.549-13.252 16.296-24.184 16.391z" fill="#ca2026"/><path d="m185.185 143.02h.468c10.933.095 20.277 6.842 24.184 16.391h-48.835c3.906-9.549 13.249-16.296 24.183-16.391z" fill="#f8e100"/><path d="m161.001 159.41h48.835c1.26 3.078 1.955 6.447 1.955 9.979s-.696 6.901-1.956 9.98h-48.835c-1.26-3.079-1.956-6.448-1.956-9.98.002-3.531.698-6.9 1.957-9.979z" fill="#009f4c"/><path d="m185.419 151.777 4.167 13.737 14.353-.282-11.778 8.208 4.703 13.563-11.445-8.665-11.446 8.665 4.703-13.563-11.777-8.208 14.352.282z" fill="#fff"/></g></g></g></svg>