<svg id="svg97" clip-rule="evenodd" fill-rule="evenodd" height="512" stroke-linejoin="round" stroke-miterlimit="2" viewBox="0 0 64 64" width="512" xmlns="http://www.w3.org/2000/svg" xmlns:svg="http://www.w3.org/2000/svg"><g fill="#05bc3d"><path id="path4" d="m11.901243 15.332039 8.941028 1.560005c.160001-.356002.420001-.740003.865003-1.185004.304001-.304001.380001-.769002.187-1.154004-.154-.309001-.206-.567001-.138-.783002.077-.247001.286001-.414001.499001-.537002.254001-.147.535002-.233.745003-.233.430001 0 .813002-.275001.949003-.684003 0 0 1.051003-3.1900095 1.051003-5.3160161 0-.4040013-.244001-.7690024-.617002-.9240029-.374001-.1550004-.804003-.069-1.090003.2170007 0 0-.196001.1960006-.428002.1070003-.123-.3780011-.354001-1.0060031-.702002-1.6060049-.431001-.7450023-1.045003-1.4230044-1.790005-1.7220054-.308001-.1240004-.658002-.086-.933003.1000003-.275001.1850006-.440002.4960016-.440002.8280026 0 1.280004-.449001 1.9130059-.769002 2.5530079-.102.2020006-.197001.4050013-.277001.6160019l-.065-.029c-.980003-.4290014-2.447008-.4720015-4.489014 1.0600032-.387001.2900009-.511002.8150025-.294001 1.2470039.227001.4560014.027.9020025-.219001 1.2840035-.540001.840003-1.442004 1.437005-1.442004 1.437005-.417001.278001-.563002.821002-.343001 1.271004.2.410001.648002.627002 1.085003.543002-.004.226-.024.591001-.105.858002-.049.163001-.109.328001-.181001.492002z"/><path id="path8" d="m12.175244 14.257035c-.013.192001-.04.408002-.093.583002-.168001.558002-.473002 1.147004-.887003 1.591005-.317001.340001-.695002.608002-1.143003.600002-.4210017-.008-.8600031-.254001-1.3450046-.738002-.3710012-.371001-.966003-.392002-1.3620042-.048-.3970013.343001-.4600015.935002-.1450005 1.355004.2740009.365001.4930015.692002.6650021.988003.1420004.242001.2500008.460001.328001.656002.085.214001.1330004.391001.1400004.541002.002.05.014.089-.007.114-.1110003.132-.326001.101-.326001.101-.4040013 0-.7690024.244001-.9240029.617002-.1550004.374001-.069.804003.2170007 1.090003.2970009.297001.5140016.556002.6600021.785003.056.089.1050003.204001.1340004.279001-.08.038-.2130007.099-.303001.123-.3940012.105-.7840024.106-.7840024.106-.5520017 0-1.0000031.448002-1.0000031 1.000004 0 0 0 .676002-.1620005 1.325004-.013.051-.027.102-.041.152l19.2030595-1.477004.224001-.112001c-.005-.012-.009-.025-.012-.038-.066-.227001 0-.499001.146-.783002.218001-.424002.616002-.848003 1.197004-1.235004.404001-.270001.556001-.792003.360001-1.237004-.197001-.444001-.686002-.683002-1.158004-.565002 0 0-.365001.09-.776002.08-.131001-.002-.269001-.014-.396001-.053-.046-.014-.103001-.012-.125001-.059-.04-.088-.026-.205-.002-.356001.052-.319001.194001-.710002.436002-1.195004.181-.362001.126-.797002-.139001-1.102003-.265001-.306001-.688002-.422001-1.071003-.294001 0 0-1.529005.511002-3.15101 1.172004.006-.047.012-.094.018-.141001.078-.590002.154001-1.144003.685002-1.841005z"/><path id="path12" d="m25.316285 23.153063-19.3950602 1.763005c-.022.134001-.049.272001-.083.409002-.041.164-.092.326001-.1610005.469001-.021.044-.059.102-.088.142001-.130001-.071001-.5550023-.316001-.8820033-.643002-.328001-.328001-.8380026-.387002-1.2330038-.144001-.3940013.244001-.5690018.727002-.4230013 1.167004 1.1290035 3.38701 3.3580104 4.264013 4.9100152 4.969015.2320007.106001.4440014.205001.6220019.316001.1000003.062.2020006.103.2340007.200001.034.102-.001.224-.048.386001-.1020003.346001-.308001.768002-.626002 1.299004-.1860005.308001-.1910005.693002-.013 1.007003.1770006.313001.5100016.507002.8700027.507002.8550027 0 1.4740046.12 1.8360056.486001.314001.318001.351001.801003.269001 1.403005-.163001 1.200003-.852003 2.745008-1.9620062 4.597014-.2290007.381001-.1790005.867002.1230004 1.193004.302001.327001.7840028.414001 1.1810038.215.145-.072.251001-.121.348001-.098.115.029.195.12.284001.202.19.176001.370001.373002.562001.543002.341002.302001.719003.531002 1.165004.622002.449001.093.982003.061 1.641005-.269001.261001-.13.452002-.368001.523002-.651002.149-.596002.339001-.991003.577002-1.259004.367001-.412001.821002-.518001 1.222003-.690002.487002-.208.935003-.461001 1.310004-.892003.213001-.244.410002-.555001.566002-.972003.493002.856003.653002 1.586005.771003 2.188007l3.038009-3.067009c-.204001-.327001-.485001-.641002-.911003-.924003.212001-.391001.301001-.741002.319001-1.047003.042-.691003-.246001-1.262004-.702002-1.746006-.226001-.239001-.494002-.455001-.743002-.662002-.042-.035-.091-.08-.138001-.125.08-.07.179001-.151001.276001-.215001.207001-.138.355001-.348001.415001-.589002 0 0 .178001-.717002.622002-1.289004.202001-.260001.461002-.514001.840003-.514001.292001 0 .622002.131 1.013003.392001.307001.205001.702002.224001 1.027003.05s.528002-.513002.528002-.882003c0-.231.014-.421001.05-.577001.017-.075.022-.136001.062-.172001.087-.077.215001-.077.355001-.101.345001-.059.749003-.089 1.197004-.164001 1.683005-.280001 3.987012-1.053003 6.230019-5.539017.220001-.438001.089-.971003-.309001-1.258004s-.945003-.243001-1.292004.104c0 0-1.153003 1.157004-2.307007 1.850006-.246001.147001-.490001.273001-.720002.350001-.057.019-.136.034-.196001.044-.027-.118-.07-.343001-.07-.537001 0-.321001-.155-.623002-.415001-.811003-.261001-.188-.596002-.239001-.901003-.138-.406001.136-.756002.18-1.043003.126-.216001-.04-.378001-.148-.429001-.327001-.059-.204-.012-.444001.104-.697002z"/><path id="path16" d="m22.003275 37.994109-2.785009 2.777009c.14.480001.204001.903002.282001 1.267004.121.571001.288001 1.042003.586002 1.432004.204.869003.914003 4.052013.914003 6.53002 0 .265001.105.520002.293.707002 0 0 .391002.398002.688003.990003.253.507002.462001 1.180004.125 1.856006-.141001.281001-.141001.613002 0 .894003.872003 1.746005.818002 2.618008-.055 5.237016-.166001.498002.081 1.039003.566002 1.240004.485001.201001 1.043003-.007 1.277003-.477001 1.125004-2.249007 1.916006-2.808009 2.366008-3.302011.469001-.516001.740002-.973003.740002-2.145006 0-.265001-.105-.520002-.293001-.707002-.810002-.810003-1.238004-1.607005-1.340004-2.417008-.101-.811002.122-1.618005.527002-2.429008.211-.422001.099-.933002-.269001-1.228003-1.152004-.921003-1.908006-1.662005-2.354007-2.295007-.296001-.420002-.442002-.745003-.404002-1.050004.039-.310001.246001-.562001.488002-.833002.380001-.425002.867002-.848003 1.352004-1.334004.245001-.245001.346001-.599002.266001-.937003-.079-.337001-.328001-.609002-.657002-.719003-1.341004-.447001-1.281004-1.213003-1.549005-1.875005-.165001-.407002-.379001-.812003-.764002-1.182004z"/></g><path id="path20" d="m12.175244 14.257035c-.013.192001-.04.408002-.093.583002-.168001.558002-.473002 1.147004-.887003 1.591005-.317001.601002-.695002 1.577005-1.143003 1.569005-.4210017-.008-1.0680037-.515002-1.5520052-1.000003-.3710012-.371001-.7590024-1.099004-1.1550036-.755002-.3970013.343001-.4600015.935002-.1450005 1.355004.2740009.365001.4930015.692002.6650021.988003.1420004.242001.2500008.460001.328001.656002.085.214001.1330004.391001.1400004.541002.002.05.014.089-.007.114-.1110003.132-.326001.101-.326001.101-.4040013 0-.7690024.244001-.9240029.617002-.1550004.374001-.069.804003.2170007 1.090003.2970009.297001.5140016.556002.6600021.785003.056.089.1050003.204001.1340004.279001-.08.038-.2130007.099-.303001.123-.3940012.105-.7840024.106-.7840024.106-.5520017 0-1.0000031.448002-1.0000031 1.000004 0 0 0 .676002-.1620005 1.325004-.013.051-.027.102-.041.152l18.2030565-1.400004s-.012-.798003 0-.804003c.052-.735002.707002-1.025003 1.000003-1.566005.292001-.539001 1.370004-1.510004.757002-1.677005 0 0-.365001.09-.776002.08-.131001-.002-.269001-.014-.396001-.053-.046-.014-1.564005-.01-1.585005-.057-.04-.088 1.067003-3.077009.684002-2.949009 0 0-1.529005.511002-3.15101 1.172004.006-.047-1.539005.824002-1.533005.777002.078-.591002.502002-2.260007.801003-3.074009z" fill="#07fa51"/><path id="path24" d="m21.362273 38.633111-2.144007 2.138007c.14.480001.204001.903002.282001 1.267004.121.571001.288001 1.042003.586002 1.432004.204.869003.914003 4.052013.914003 6.53002 0 .265001.105.520002.293.707002 0 0 .391002.398002.688003.990003.253.507002.462001 1.180004.125 1.856006-.141001.281001-.141001.613002 0 .894003.872003 1.746005.818002 2.618008-.055 5.237016-.166001.498002.800002.614002.949003.316001 1.000003-2.000006 3.16401-3.514011 3.16401-4.687014 0-.265001-.105001-.519002-.292001-.707003-.810003-.810002-1.271004-1.796005-1.372005-2.606008-.101-.811002.148001-1.689005.554002-2.500007.211001-.422002.314001-.705003-.054-1.000003-1.152004-.921003-1.554005-1.367005-2.000006-2.000007-.296001-.420001-.933003-1.195003-.894003-1.500004.038-.310001-.133-1.391005 1.441004-2.327008.339001-.071.782003-.907002.453002-1.017003-1.341004-.447001-1.626005-.994003-1.894006-1.656005-.166001-.407001-.359001-.996003-.744002-1.367004z" fill="#07fa51"/><path id="path28" d="m11.901243 15.332039 7.599024 1.326004c.16-.357001.428001-1.213004.873003-1.658005.304-.304001.059-1.784006.127-2.000007.077-.246.787002-.561001 1.000003-.684002.254001-.147.790002-.316001 1.000003-.316001.430001 0 2.256007-5.7690175 1.883006-5.924018-.374001-.1550004-.804003-.069-1.090003.2170007 0 0-.196001.1960006-.428002.1070003-.351001.1350005-1.092003.3640012-1.365004 0-.415001-.5550017-.382001-3.0290093-1.127003-3.3280103-.308001-.1240004-.658002-.086-.933003.1000003-.275001.1850006-.440002.4960016-.440002.8280026 0 1.280004-.449001 1.9130059-.769002 2.5530079-.102.2020006-.197001.4050013-.277001.6160019l-.065-.029c-.980003-.4290014-2.447008-.4720015-4.489014 1.0600032-.387001.2900009-.511002.8150025-.294001 1.2470039.227001.4560014.027.9020025-.219001 1.2840035-.540001.840003-1.442004 1.437005-1.442004 1.437005-.417001.278001-.563002.821002-.343001 1.271004.2.410001.648002.627002 1.085003.543002-.004.226-.024.591001-.105.858002-.049.163001-.109.328001-.181001.492002z" fill="#07fa51"/><path id="path32" d="m24.000281 23.273063-18.0790562 1.643005c-.022.134001-.049.272001-.083.409002-.041.164-.092.326001-.1610005.469001-.021.044-.059.102-.088.142001-.130001-.071001-.5550023-.316001-.8820033-.643002-.328001-.328001-.8380026-.387002-1.2330038-.144001-.3940013.244001-.5690018.727002-.4230013 1.167004.7530023 2.037006 5.9490184 3.684011 6.133019 4.684014.022.115001-.3990013.704002-.3670012.801003.034.102-.001.224-.048.386001-.1020003.346001-.308001.768002-.626002 1.299004-.1860005.308001.9970031.514002 1.3570042.514002.8550031 0 1.6390051.456001 2.0000061.822002.314001.318001-.313001 1.465005-.395001 2.067007-.163001 1.200003-.852003 2.745008-1.9620062 4.597014-.2290007.381001 1.1580032.332001 1.6310052.055.983003-.577002 1.289004.832003 1.482004 1.002003.341001.302001.996003.497002 1.655006.167001.261-.130001.851002-1.442005 1.089003-1.710006.367001-.412001 1.099003-.828002 1.500005-1.000003.487001-.209 1.124003-1.069003 1.500004-1.500004.213001-.244001.440002.263.645002.930002.493002.856003.653002 1.586005.771003 2.188007l2.349007-2.378007c-.205001-.327001-.672002-1.068003-1.098004-1.351004.212001-.391002.371002-.950003.263001-1.418005-.111-.482001-.474001-.987003-.930003-1.471004-.225-.239001-.917002-.667002-1.000003-1.000003-.083-.333001.333001-.667002.500002-1.000004.167-.333001.440001-.759002.500001-1.000003 0 0 1.148004.526002 1.592005-.046.202001-.260001.461002-.514001.840003-.514001.292001 0 .622002.131 1.013003.392001.307001.205001.702002.224001 1.027003.05s.528002-.513002.528002-.882003c0-.231.014-.421001.05-.577001.017-.075.022-.136001.062-.172001.087-.077.215001-.077.355001-.101.345001-.059.749003-.089 1.197004-.164001 1.683005-.280001 3.987012-1.053003 6.230019-5.539017.220001-.438001.089-.971003-.309001-1.258004s-.945003-.243001-1.292004.104c0 0-1.153003 1.157004-2.307007 1.850006-.246001.147001-.490001.273001-.720002.350001-.057.019-.136.034-.196001.044-.027-.118-.07-.343001-.07-.537001 0-.321001-.155-.623002-.415001-.811003-.261001-.188-.596002-.239001-.901003-.138-.406001.136-.756002.18-1.043003.126-.216001-.04-1.368004.474002-1.641005.323001-.177001-.145-.065-.900003 0-1.227004z" fill="#07fa51"/><path id="path36" d="m31.12359 31.928167-1.133367-3.96387-14.990124 4.036307 14.591716 4.759204z" fill="#165b80" stroke-width="1.552"/><path id="path40" d="m31.12359 31.928167-1.436993-5.017423-14.686498 5.08986z" fill="#269ede" stroke-width="1.552"/><ellipse id="ellipse44" cx="15" cy="32" fill="#de1614" rx="3" ry="3" stroke-width=".084"/><path id="path48" d="m12.438138 33.562108c.455002.278.990003.438001 1.562005.438001 1.656005 0 3.00001-1.344004 3.00001-3.000009 0-.572002-.160001-1.107004-.438002-1.562005-.455001-.278001-.990003-.438002-1.562005-.438002-1.656005 0-3.000009 1.344005-3.000009 3.00001 0 .572001.16 1.107003.438001 1.562005z" fill="#ff5250"/><ellipse id="ellipse52" cx="15" cy="32" fill="#fffc40" rx="1" ry="1" stroke-width=".084"/><circle id="circle56" cx="43" cy="32" fill="#2cb6ff" r="18"/><path id="path60" d="m33.028202 46.984139c1.869006.658002 3.879013 1.016004 5.972019 1.016004 9.934031 0 18.000056-8.066025 18.000056-18.000056 0-6.24802-3.19001-11.756037-8.028025-14.984047-1.869006-.658002-3.879012-1.016003-5.972019-1.016003-9.93403 0-18.000055 8.066025-18.000055 18.000056 0 6.248019 3.190009 11.756036 8.028024 14.984046z" fill="#95daff"/><ellipse id="ellipse64" cx="43" cy="32" fill="#c0be30" rx="15" ry="15" stroke-width=".632"/><path id="path68" d="m36.786214 45.654135c-5.182016-2.364007-8.786027-7.591023-8.786027-13.654042 0-8.279026 6.721021-15.000047 15.000046-15.000047 1.104004 0 2.179007.119001 3.21401.346002 5.182016 2.364007 8.786028 7.591023 8.786028 13.654042 0 8.279026-6.721021 15.000046-15.000047 15.000046-1.104003 0-2.179007-.119-3.21401-.346001z" fill="#fffc40"/><path id="path72" d="m58.00028 32.000093c0 8.279025-6.721021 15.000046-15.000047 15.000046-8.279025 0-15.000046-6.721021-15.000046-15.000046z" fill="#c01311"/><path id="path76" d="m54.96727 32.000093c-.515001 7.813024-7.024021 14.000043-14.967046 14.000043-1.104003 0-2.179007-.119-3.21501-.346001-5.181016-2.364007-8.785027-7.591024-8.785027-13.654042z" fill="#ff1917"/><path id="path80" d="m57.145277 27.000077c.554002 1.565005.855003 3.24701.855003 5.000016 0 1.753005-.301001 3.43501-.855003 5.000015h-28.290088c-.554001-1.565005-.855002-3.24701-.855002-5.000015 0-1.753006.301001-3.435011.855002-5.000016z" fill="#047d29"/><path id="path84" d="m54.460269 27.000077c.352001 1.274004.540002 2.615008.540002 4.000012 0 2.133007-.446002 4.162013-1.250004 6.000019h-24.895078c-.554001-1.565005-.855002-3.24701-.855002-5.000015 0-1.753006.301001-3.435011.855002-5.000016z" fill="#06da47"/><path id="path88" d="m42.97718 25.000083 1.887691 5.347671h6.112812l-4.945626 3.304567 1.88922 5.347671-4.944097-3.304567-4.944096 3.304567 1.88769-5.347671-4.944096-3.304567h6.111282z" fill="#fff" stroke-width="1.405"/></svg>