<svg id="Capa_1" enable-background="new 0 0 512 512" viewBox="0 0 512 512" xmlns="http://www.w3.org/2000/svg"><g><path d="m494.894 267c0 54.566-18.874 99.284-49.037 140.004-1.491 2.013 4.129 9.684 2.578 11.65-4.216 5.343-8.65 10.506-13.288 15.475-2.207 2.365-3.996-.894-6.294 1.382-41.842 41.436-98.544 67.894-161.399 70.668-1.937.085-4.344 5.728-6.292 5.768-1.717.035-3.438.053-5.162.053-5.006 0-9.978-.15-14.91-.446-2.315-.139-7.049-8.096-9.346-8.298-61.75-5.452-104.751-27.412-144.79-70.128-1.241-1.324-12.21-1.277-13.422-2.629-4.325-4.823-8.461-9.819-12.397-14.975-1.665-2.182 2.036-7.392.443-9.63-28.491-40.038-46.829-86.01-46.829-138.894 0-20.176 4.397-39.783 8.996-58.541.64-2.609-4.385-5.203-3.663-7.778 3.758-13.395 8.625-26.325 14.498-38.686 1.259-2.65 9.261-3.561 10.612-6.158 30.511-58.673 82.537-99.936 147.141-118.812 3.283-.959 1.427-7.074 4.766-7.898 18.867-4.657 38.595-7.127 58.901-7.127 114.438 0 210.551 78.461 237.479 184.522.164.644-5.755.039-5.336 1.944 3.743 17.022 6.751 40.388 6.751 58.534z" fill="#008c80"/><circle cx="267" cy="247.766" fill="#009a8e" r="200"/><path d="m50.967 132.836c.957-1.46 7.195-1.781 8.182-3.22 27.379-39.874 65.732-65.729 111.319-83.808 1.858-.737-1.018-8.091.862-8.784 8.383-3.087 16.982-5.73 25.768-7.898 11.621 6.913 22.914 14.387 33.837 22.398 3.48 2.552 5.775 6.409 6.357 10.685 4.654 34.156 5.108 68.754 1.351 103.021-.47 4.291-2.663 8.206-6.075 10.849-27.253 21.109-56.989 38.8-88.543 52.68-3.951 1.738-8.438 1.797-12.433.163-31.907-13.048-62.096-29.954-89.894-50.341-3.48-2.552-5.775-6.409-6.358-10.686-.268-1.966-.521-3.933-.761-5.902 4.809-10.119 10.291-19.858 16.388-29.157z" fill="#a3e72d"/><path d="m353.485 365.178c3.757-34.267 3.303-68.864-1.351-103.021-.583-4.276-2.877-8.133-6.357-10.685-27.797-20.387-57.987-37.293-89.894-50.341-3.995-1.634-8.482-1.575-12.433.163-31.554 13.88-61.29 31.572-88.543 52.68-3.412 2.643-5.605 6.558-6.075 10.848-3.757 34.267-3.303 68.864 1.351 103.021.583 4.276 2.877 8.133 6.357 10.685 27.797 20.387 57.987 37.293 89.894 50.341 3.995 1.634 8.482 1.575 12.433-.163 31.554-13.88 61.29-31.572 88.543-52.68 3.412-2.643 5.605-6.558 6.075-10.848z" fill="#a3e72d"/><path d="m468.327 165.231c3.757-34.267 3.303-68.864-1.351-103.021-.583-4.276-2.877-8.133-6.357-10.685-27.797-20.387-57.987-37.293-89.894-50.341-3.995-1.634-8.482-1.575-12.433.163-31.554 13.88-61.29 31.572-88.543 52.68-3.412 2.643-5.605 6.558-6.075 10.848-3.757 34.267-3.303 68.864 1.351 103.021.583 4.276 2.877 8.133 6.357 10.685 27.797 20.387 57.987 37.293 89.894 50.341 3.995 1.634 8.482 1.575 12.433-.163 31.554-13.88 61.29-31.572 88.543-52.68 3.412-2.642 5.604-6.558 6.075-10.848z" fill="#a3e72d"/><path d="m494.894 267c0-9.674-.561-19.218-1.651-28.599-.342-2.942 5.37-5.868 4.925-8.778-1.198-7.828-2.767-15.535-4.688-23.101-4.167-1.864-8.367-3.662-12.596-5.392-3.995-1.634-8.482-1.575-12.433.163-31.554 13.88-61.29 31.572-88.543 52.68-3.412 2.643-5.605 6.558-6.075 10.848-3.757 34.267-3.303 68.865 1.351 103.021.583 4.276 2.877 8.133 6.357 10.685 21.027 15.421 43.422 28.85 66.895 40.125 3.99-5.056 7.784-10.272 11.373-15.638 1.488-2.225-2.058-7.441-.641-9.717 23.347-37.521 35.726-78.851 35.726-126.297z" fill="#a3e72d"/><path d="m230.935 451.418c-27.797-20.387-57.987-37.293-89.894-50.341-3.995-1.634-8.482-1.575-12.433.163-19.072 8.389-37.479 18.171-55.075 29.259 4.292 4.787 8.77 9.404 13.422 13.84 2.202 2.1 9.234.304 11.513 2.321 32.678 28.926 67.203 44.652 111.907 52.851 3.536.649 8.245 9.683 11.833 10.178 6.223.858 12.52 1.483 18.882 1.865-.296-16.528-1.562-33.04-3.798-49.45-.582-4.277-2.876-8.134-6.357-10.686z" fill="#a3e72d"/><path d="m370.725 401.077c22.398 9.159 43.95 20.22 64.422 33.051-4.419 4.735-9.024 9.294-13.802 13.667-2.263 2.071-7.551.028-9.891 2.013-35.088 29.777-78.67 49.849-126.601 56.069-2.6.337-2.227 4.706-4.851 4.961-6.215.604-12.498.976-18.84 1.107-.043-15.746.793-31.496 2.513-47.177.47-4.29 2.663-8.206 6.075-10.848 27.253-21.109 56.989-38.8 88.543-52.68 3.949-1.738 8.436-1.796 12.432-.163z" fill="#a3e72d"/><path d="m127.134 262.157c4.654 34.156 5.108 68.754 1.351 103.021-.47 4.29-2.663 8.206-6.075 10.848-19.263 14.919-39.765 28.132-61.274 39.498-3.932-5.151-7.664-10.462-11.185-15.922-1.42-2.202 6.489-3.571 5.139-5.821-22.092-36.8-35.43-80.735-35.43-126.781 0-12.54 1.577-24.004 3.395-36.037.308-2.04-8.653-4.929-8.295-6.953 1.401-7.914 3.182-15.698 5.323-23.33 3.525-1.109 7.347-.962 10.801.45 31.907 13.048 62.097 29.954 89.894 50.341 3.479 2.553 5.774 6.409 6.356 10.686z" fill="#a3e72d"/><path d="m219.146 471.6c1.723 12.642 2.743 25.357 3.062 38.088-52.104-7.188-98.978-30.761-135.253-65.35 13.785-8.546 28.166-16.121 43.039-22.663 3.241-1.425 6.921-1.474 10.198-.134 26.173 10.703 50.937 24.571 73.739 41.294 2.855 2.094 4.737 5.257 5.215 8.765z" fill="#d1f29c"/><path d="m421.344 447.795c-16.382-10.161-33.597-18.946-51.469-26.254-3.277-1.34-6.958-1.292-10.198.134-25.883 11.385-50.275 25.898-72.631 43.213-2.799 2.168-4.598 5.38-4.983 8.899-1.35 12.316-2.037 24.685-2.062 37.052 54.241-5.274 103.303-28.235 141.343-63.044z" fill="#d1f29c"/><path d="m108.987 271.654c-.478-3.508-2.36-6.671-5.215-8.765-22.802-16.723-47.566-30.591-73.739-41.294-3.277-1.34-6.958-1.292-10.198.134-1.698.747-3.39 1.508-5.076 2.282-2.47 13.957-3.759 28.322-3.759 42.989 0 3.365.068 6.714.202 10.047.092 2.273 6.942 4.285 7.096 6.542 1.586 23.362 6.447 45.826 14.128 66.935.607 1.669-5.496 3.583-4.853 5.235 6.045 15.546 13.631 30.322 22.571 44.14 19.363-9.856 37.769-21.519 54.969-34.841 2.799-2.168 4.598-5.38 4.983-8.899 3.081-28.107 2.709-56.488-1.109-84.505z" fill="#d1f29c"/><path d="m221.996 133.354c-.036.839.257 2.504.215 3.342-.342 6.791-1.215 12.749-1.957 19.517-.386 3.519-2.184 6.731-4.983 8.899-22.355 17.315-46.747 31.827-72.631 43.213-3.241 1.426-6.921 1.474-10.198.134-26.173-10.703-50.937-24.571-73.739-41.294-2.855-2.094-4.737-5.257-5.215-8.765-1.157-8.494-1.997-17.021-2.521-25.563 10.367-15.812 22.515-30.351 36.157-43.335.79-.751 68.097 45.747 111.187 45.747 8.062-.001 15.974-.649 23.685-1.895z" fill="#d1f29c"/><path d="m483.234 345.043c-.957 2.789 2.59 7.087 1.536 9.83-6.552 17.047-14.955 33.177-24.963 48.143-21.586-9.833-42.116-21.861-61.263-35.904-2.855-2.094-4.737-5.257-5.215-8.765-3.818-28.018-4.19-56.398-1.108-84.506.386-3.519 2.184-6.731 4.983-8.899 6.539-5.065 13.253-9.89 20.127-14.467 1.371-.913 6.306 1.419 7.689.526 15.396-9.937 53.356-24.907 53.356-24.907 6.124 2.504 12.171 5.182 18.133 8.029 1.865 12.187 2.298 19.064 2.298 31.772.002 27.854-7.009 54.197-15.573 79.148z" fill="#d1f29c"/><path d="m446.625 131.805c2.538-.788 5.08 1.209 4.948 3.863l-.003.057c-.341 6.839-.885 13.672-1.632 20.488-.386 3.519-2.184 6.731-4.983 8.899-21.196 16.417-44.223 30.315-68.616 41.416-2.838 1.292-5.931 1.93-9.049 1.93-3.526 0-7.008-.741-10.25-2.128-24.298-10.391-47.332-23.53-68.652-39.166-2.858-2.096-4.737-5.254-5.215-8.766-3.818-28.018-4.19-56.398-1.108-84.506.201-1.834.786-3.585 1.696-5.148.836-1.436 1.947-2.713 3.287-3.751 6.987-5.412 14.173-10.549 21.541-15.403 3.874-2.552 9.076-.31 9.886 4.259 8.301 46.853 49.226 82.437 98.462 82.437 10.336.001 20.308-1.568 29.688-4.481z" fill="#d1f29c"/><path d="m331.783 332.238c2.538-.788 5.08 1.209 4.947 3.863l-.003.057c-.341 6.839-.885 13.672-1.632 20.488-.386 3.519-2.184 6.731-4.983 8.899-21.196 16.417-44.223 30.315-68.616 41.416-2.838 1.292-5.931 1.93-9.049 1.93-3.526 0-7.008-.741-10.25-2.128-24.298-10.391-47.332-23.53-68.652-39.166-2.858-2.096-4.737-5.254-5.215-8.766-3.818-28.018-4.19-56.398-1.108-84.506.201-1.834.786-3.585 1.696-5.148.836-1.436 1.947-2.713 3.287-3.751 6.987-5.412 14.173-10.549 21.541-15.403 3.874-2.552 9.076-.31 9.886 4.259 8.301 46.853 49.226 82.437 98.462 82.437 10.338 0 20.309-1.569 29.689-4.481z" fill="#d1f29c"/><path d="m448.829 71.707c2.892 21.223 3.806 42.655 2.74 64.018-13.4 6.668-28.507 10.417-44.49 10.417-53.759 0-97.61-42.421-99.905-95.615 16.626-11.071 34.191-20.691 52.503-28.746 3.241-1.425 6.921-1.474 10.198-.134 26.173 10.703 50.937 24.571 73.739 41.294 2.855 2.095 4.737 5.258 5.215 8.766z" fill="#dff6bc"/><path d="m333.988 272.139c2.892 21.223 3.806 42.655 2.74 64.018-13.4 6.668-28.507 10.417-44.49 10.417-53.759 0-97.61-42.421-99.905-95.615 16.626-11.071 34.191-20.691 52.503-28.746 3.241-1.425 6.921-1.474 10.198-.134 26.173 10.703 50.937 24.571 73.739 41.294 2.855 2.095 4.737 5.258 5.215 8.766z" fill="#dff6bc"/><path d="m480.034 221.595c6.124 2.504 12.171 5.182 18.133 8.029 1.865 12.186 2.833 24.668 2.833 37.376 0 5.137-.158 10.238-.47 15.297-.151 2.454-6.967 2.3-7.19 4.734-1.662 18.143-5.301 35.714-10.702 52.495-17.968-5.224-27.219-12.755-39.464-26.245-15.201-16.745-24.801-38.666-25.842-62.807 16.626-11.071 34.191-20.691 52.503-28.746 3.241-1.425 6.922-1.473 10.199-.133z" fill="#dff6bc"/><path d="m87.123 89.501c23.969-22.812 52.553-40.819 84.207-52.477 14.932 7.896 29.28 16.881 42.926 26.888 2.855 2.094 4.737 5.257 5.215 8.765 2.892 21.223 3.806 42.655 2.74 64.018-13.4 6.668-28.507 10.417-44.49 10.417-40.076.002-74.645-23.573-90.598-57.611z" fill="#dff6bc"/><path d="m287.755 333.02c-6.698 13.577-20.727 22.888-36.919 22.763-22.168-.171-40.289-18.292-40.46-40.46-.125-16.214 9.212-30.26 22.82-36.947.361-.177.751.186.595.557-2.106 4.989-3.247 10.485-3.19 16.253.217 22.102 18.272 40.156 40.373 40.373 5.746.056 11.221-1.076 16.194-3.166.391-.165.775.246.587.627z" fill="#80cf00"/><path d="m172.914 133.073c-6.698 13.577-20.727 22.888-36.919 22.763-22.168-.171-40.289-18.292-40.46-40.46-.125-16.214 9.212-30.26 22.82-36.947.361-.177.751.186.595.557-2.106 4.989-3.247 10.485-3.19 16.253.217 22.102 18.272 40.156 40.373 40.373 5.746.056 11.221-1.076 16.194-3.166.39-.164.774.246.587.627z" fill="#80cf00"/><path d="m455.6 295.186c-.057-5.769 1.085-11.264 3.19-16.253.156-.371-.233-.735-.595-.557-13.607 6.687-22.945 20.733-22.82 36.947.171 22.168 18.292 40.29 40.46 40.46 3.067.024 6.057-.292 8.934-.91 2.241-5.832 4.266-11.771 6.065-17.808.18-.603-.974-2.021-1.717-2.156-18.862-3.428-33.323-19.957-33.517-39.723z" fill="#80cf00"/><path d="m26.158 274.216c-5.28 0-10.325 1.004-14.956 2.83 1.116 27.666 6.819 54.15 16.37 78.712 15.443-.526 28.708-9.638 35.169-22.713.002-.003.003-.007.005-.01.003-.005.005-.011.008-.016.001-.001.001-.002.001-.003 2.68-5.433 4.185-11.549 4.185-18.016.002-22.524-18.257-40.784-40.782-40.784z" fill="#80cf00"/><path d="m402.597 133.073c-6.698 13.577-20.727 22.888-36.919 22.763-22.168-.171-40.289-18.292-40.46-40.46-.125-16.214 9.212-30.26 22.82-36.947.361-.177.751.186.595.557-2.105 4.989-3.247 10.485-3.19 16.253.217 22.102 18.272 40.156 40.373 40.373 5.746.056 11.221-1.076 16.194-3.166.39-.164.774.246.587.627z" fill="#80cf00"/><path d="m291.942 315c0 6.479-1.511 12.605-4.2 18.046-5.44 2.689-11.567 4.2-18.046 4.2-22.524 0-40.784-18.259-40.784-40.784 0-6.479 1.511-12.605 4.2-18.046 5.44-2.689 11.567-4.2 18.046-4.2 22.525 0 40.784 18.26 40.784 40.784z" fill="#a3e72d"/><path d="m136.317 74.27c-6.479 0-12.605 1.511-18.046 4.2-2.689 5.44-4.2 11.567-4.2 18.046 0 22.524 18.259 40.784 40.784 40.784 6.479 0 12.605-1.511 18.046-4.2 2.689-5.44 4.2-11.567 4.2-18.046-.001-22.525-18.26-40.784-40.784-40.784z" fill="#a3e72d"/><path d="m476.158 274.216c-6.479 0-12.605 1.511-18.046 4.2-2.689 5.44-4.2 11.567-4.2 18.046 0 21.222 16.209 38.657 36.922 40.603 5.218-17.515 8.53-35.851 9.695-54.768-6.798-5.076-15.234-8.081-24.371-8.081z" fill="#a3e72d"/><path d="m366 74.27c-6.479 0-12.605 1.511-18.046 4.2-2.689 5.44-4.2 11.567-4.2 18.046 0 22.524 18.259 40.784 40.784 40.784 6.479 0 12.605-1.511 18.046-4.2 2.689-5.44 4.2-11.567 4.2-18.046 0-22.525-18.26-40.784-40.784-40.784z" fill="#a3e72d"/><g fill="#6db000"><circle cx="137.869" cy="447.766" r="10"/><circle cx="429.483" cy="89.27" r="10"/><circle cx="192.332" cy="78.382" r="10"/><circle cx="291.942" cy="359.526" r="10"/><circle cx="307.174" cy="283.842" r="10"/><circle cx="187.1" cy="337.064" r="10"/><circle cx="416.784" cy="309.3" r="10"/><circle cx="446.741" cy="261.719" r="10"/></g><circle cx="241.158" cy="251.719" fill="#006e66" r="10"/><circle cx="365.789" cy="445.252" fill="#006e66" r="10"/><circle cx="87.123" cy="310.261" fill="#006e66" r="10"/><circle cx="177.1" cy="467" fill="#006e66" r="10"/><circle cx="416.784" cy="349.526" fill="#006e66" r="10"/><circle cx="307.174" cy="149.461" fill="#006e66" r="10"/><circle cx="136.591" cy="176.27" fill="#006e66" r="10"/><circle cx="82.158" cy="273.842" fill="#fff" r="10"/><circle cx="182.332" cy="155.837" fill="#fff" r="10"/><circle cx="77.123" cy="349.526" fill="#fff" r="10"/><circle cx="417.332" cy="149.461" fill="#fff" r="10"/><circle cx="307.174" cy="74.27" fill="#fff" r="10"/><circle cx="212.641" cy="364.346" fill="#fff" r="10"/><circle cx="477.221" cy="248.953" fill="#fff" r="10"/></g><g/><g/><g/><g/><g/><g/><g/><g/><g/><g/><g/><g/><g/><g/><g/></svg>