<svg id="Capa_1" enable-background="new 0 0 489.998 489.998" height="512" viewBox="0 0 489.998 489.998" width="512" xmlns="http://www.w3.org/2000/svg"><path d="m155.907 0-2.773.009c-11.005.037-19.897 8.988-19.86 19.993l.62 185.728c-12.275-6.209-26.893-9.804-42.59-9.752-43.24.144-78.201 27.806-78.088 61.786.113 33.979 35.258 61.408 78.498 61.263 43.24-.144 78.201-27.807 78.088-61.786l-.541-162.201c.131 39.152 71.853 15.608 87.754 31.402 2.08 2.066 3.618 4.42 4.721 6.953 6.431 14.764 28.667 9.883 28.835-6.22.003-.28.004-.562.003-.845-.299-89.549-99.862-94.549-118.606-118.29-3.922-4.965-9.735-8.061-16.061-8.04z" fill="#fba615"/><path d="m118.295 309.693c6.113-.021 12.065-.594 17.778-1.653-12.594 6.88-27.877 10.93-44.358 10.984-43.246.151-78.381-27.283-78.499-61.261-.097-29.162 25.641-53.669 60.278-60.117-20.424 11.168-33.774 29.767-33.698 50.785.108 33.98 35.253 61.403 78.499 61.262z" fill="#fc840d"/><path d="m169.716 5.586-2.11.015c-11.006.033-19.895 8.989-19.853 19.993l.614 185.73c-4.532-2.291-9.379-4.225-14.475-5.758l-.619-185.563c-.033-11.007 8.858-19.953 19.862-19.995l2.774-.006c5.206-.019 10.056 2.07 13.807 5.584z" fill="#fc840d"/><path d="m476.782 408.085c.108 33.979-34.854 61.64-78.089 61.791-43.246.141-78.381-27.293-78.499-61.272-.108-33.979 34.854-61.64 78.089-61.769 15.693-.065 30.317 3.543 42.587 9.742l-.508-107.143-167.659 16.568.54 162.205c.108 33.979-34.854 61.639-78.089 61.791-43.246.129-78.381-27.293-78.499-61.272-.108-33.979 34.854-61.64 78.089-61.78 15.693-.054 30.318 3.543 42.587 9.753l-.616-185.728 14.473-1.426 225.108-22.26.162 78.586z" fill="#fa4954"/><g fill="#e21f2d"><path d="m251.188 189.544v199.164l-13.857-12.01-.616-185.729z"/><path d="m454.727 248.019v120.568l-13.857-12.011-.357-107.153z"/><path d="m221.738 480.653c6.113-.021 12.065-.594 17.778-1.653-12.594 6.88-27.877 10.93-44.358 10.984-43.246.151-78.381-27.283-78.499-61.261-.097-29.162 25.641-53.668 60.278-60.117-20.424 11.168-33.774 29.767-33.698 50.785.107 33.98 35.253 61.403 78.499 61.262z"/><path d="m425.273 460.533c6.113-.021 12.065-.594 17.778-1.653-12.594 6.88-27.877 10.93-44.358 10.984-43.246.151-78.381-27.283-78.499-61.261-.097-29.162 25.641-53.669 60.278-60.117-20.424 11.168-33.774 29.767-33.698 50.785.108 33.979 35.254 61.402 78.499 61.262z"/></g></svg>