<svg id="Capa_1" enable-background="new 0 0 512 512" viewBox="0 0 512 512" xmlns="http://www.w3.org/2000/svg"><g><path d="m490 267c0 135.31-109.69 245-245 245-9.465 0-18.805-.537-27.99-1.581-3.144-.358-2.775-8.943-5.882-9.419-55.658-8.518-105.149-35.765-141.84-75.106-2.017-2.162-7.491 3.807-9.429 1.573-37.291-42.987-59.859-99.092-59.859-160.467 0-135.31 109.69-245 245-245s245 109.69 245 245z" fill="#ffcebf"/><circle cx="260.75" cy="251.25" fill="#ffdfcf" r="200"/><g fill="#ff5757"><circle cx="225" cy="345" r="15"/><circle cx="260" cy="380" r="10"/><circle cx="270" cy="480" r="10"/><path d="m499.578 174.462c-19.871 40.28-61.495 67.905-109.533 67.535-65.77-.508-119.534-54.271-120.041-120.041-.371-48.105 27.332-89.779 67.704-109.617 1.071-.526 2.228.553 1.764 1.653-6.247 14.802-9.633 31.107-9.465 48.222.643 65.573 54.209 119.139 119.782 119.78 17.047.167 33.291-3.192 48.047-9.392 1.159-.488 2.299.731 1.742 1.86z"/><path d="m225.894 444.894c4.083 20.165.948 43.189-8.885 65.525-13.237-1.506-26.154-4.066-38.665-7.595-1.877-.529-2.33-2.977-.763-4.138 5.899-4.371 11.615-9.25 17.068-14.623 12.142-11.967 21.861-25.219 29.034-38.914.565-1.078 2.011-1.243 2.211-.255z"/><path d="m239.322 208.235c-7.173 13.695-16.892 26.947-29.034 38.914-46.705 46.029-112.755 55.734-147.697 21.701-9.12-8.883-15.301-19.853-18.669-32.055-.25-.907-1.636-.657-2.117.378-18.114 38.981-15.785 80.488 9.779 105.526 34.951 34.233 101.244 24.493 148.017-21.747 34.163-33.773 49.067-77.735 41.932-112.971-.2-.988-1.647-.823-2.211.254z"/><path d="m391.161 285.981c-10.031 4.847-19.631 11.637-28.163 20.308-32.688 33.222-37.383 82.368-10.499 109.898 6.99 7.157 15.417 12.208 24.656 15.215.727.236.587 1.322-.211 1.658-28.488 11.999-59.643 8.612-79.388-11.506-27.034-27.544-22.321-76.871 10.522-110.136 24.022-24.33 56.461-33.78 83.181-26.999.71.179.647 1.202-.098 1.562z"/></g><path d="m206.56 407.992c10.11 10.11 16.5 22.84 19.349 36.97-7.218 15.609-17.712 30.819-31.305 44.412-4.971 4.971-10.159 9.528-15.503 13.662-9.013-2.511-17.817-5.525-26.38-9.009-2.554-1.039-1.977-10.612-4.486-11.734-21.849-9.766-42.006-22.638-59.909-38.054-1.942-1.672-6.966 5.118-8.854 3.387-6.914-6.34-13.463-13.071-19.612-20.159 47.082-45.137 112.167-54.007 146.7-19.475z" fill="#ff7a7a"/><path d="m391 0c-19.223 0-37.399 4.483-53.54 12.46-7.977 16.141-12.46 34.317-12.46 53.54 0 66.826 54.174 121 121 121 19.223 0 37.399-4.483 53.54-12.46 7.977-16.141 12.46-34.317 12.46-53.54 0-66.826-54.174-121-121-121z" fill="#ff7a7a"/><g><ellipse cx="211.1" cy="96.972" fill="#ff7a7a" rx="28.828" ry="38.758" transform="matrix(.893 -.45 .45 .893 -21.055 105.397)"/></g><g><ellipse cx="289.42" cy="259.42" fill="#ff7a7a" rx="30" ry="28.828" transform="matrix(.707 -.707 .707 .707 -98.669 280.634)"/></g><g><ellipse cx="482.58" cy="257.994" fill="#ff7a7a" rx="28.828" ry="30" transform="matrix(.707 -.707 .707 .707 -41.085 416.802)"/></g><path d="m72.999 193c-13.593 13.593-24.087 28.803-31.305 44.412 2.849 14.13 9.238 26.859 19.348 36.97 35.147 35.147 101.946 25.333 149.2-21.92 13.593-13.593 24.087-28.803 31.305-44.412-2.849-14.13-9.238-26.859-19.348-36.97-35.147-35.148-101.946-25.334-149.2 21.92z" fill="#ff7a7a"/><path d="m419.572 300.329c-7.976-7.976-17.77-13.264-28.477-15.952-11.422 4.802-22.417 12.077-32.078 21.738-33.585 33.585-38.334 83.289-10.607 111.016 7.976 7.976 17.77 13.264 28.477 15.952 11.422-4.802 22.417-12.077 32.077-21.738 33.587-33.585 38.335-83.288 10.608-111.016z" fill="#ff7a7a"/><path d="m94.697 426.237c-6.556 6.556-11.658 13.871-15.226 21.389 21.296 19.526 46.055 35.336 73.25 46.401 1.739-1.466 3.438-3.025 5.09-4.676 23.431-23.432 28.298-56.555 10.869-73.983-17.429-17.429-50.552-12.563-73.983 10.869z" fill="#ff4343"/><ellipse cx="208.832" cy="91.025" fill="#ff4343" rx="16.493" ry="22.174" transform="matrix(.893 -.45 .45 .893 -18.621 103.739)"/><ellipse cx="293.346" cy="256.415" fill="#ff4343" rx="17.164" ry="16.493" transform="matrix(.707 -.707 .707 .707 -95.393 282.53)"/><ellipse cx="479.575" cy="254.068" fill="#ff4343" rx="16.493" ry="17.164" transform="matrix(.707 -.707 .707 .707 -39.189 413.527)"/><circle cx="420" cy="92" fill="#ff4343" r="60"/><ellipse cx="141.893" cy="220.881" fill="#ff4343" rx="60" ry="44.628" transform="matrix(.707 -.707 .707 .707 -114.627 165.028)"/><ellipse cx="385.368" cy="358.599" fill="#ff4343" rx="42.645" ry="35.207" transform="matrix(.707 -.707 .707 .707 -140.696 377.527)"/></g><g/><g/><g/><g/><g/><g/><g/><g/><g/><g/><g/><g/><g/><g/><g/></svg>