<svg id="Flat" height="512" viewBox="0 0 64 64" width="512" xmlns="http://www.w3.org/2000/svg"><path d="m52 49h-3a4 4 0 0 1 -4-4v-1a5 5 0 0 1 5-5h2" fill="#b47864"/><path d="m51 39h6.032a1.468 1.468 0 0 1 1.468 1.468 1.465 1.465 0 0 1 -.34.94l-2.16 2.592h-5" fill="#b47864"/><circle cx="32" cy="18" fill="#678efa" r="17"/><path d="m42.416 4.584a16.982 16.982 0 0 1 -23.832 23.832 16.987 16.987 0 1 0 23.832-23.832z" fill="#5878f5"/><path d="m36 31v-4l-2-4-5 1-2-2 2-3-3-4 3.875-4.083v-2.834l-4.064-5.9a16.994 16.994 0 0 0 -10.811 15.817c0 .529.032 1.051.079 1.568l3.921-1.568 4 3-2 4 2 3-2.873 2.155a16.913 16.913 0 0 0 17.4 3.907z" fill="#58efc7"/><path d="m49 18a16.9 16.9 0 0 0 -3.117-9.79l-4.883 2.79 2 3v3l-3 3-.917 2.958 5.081 6.905a16.935 16.935 0 0 0 4.836-11.863z" fill="#58efc7"/><path d="m18.506 55.287-4.506-1.287h-4l-4.506 1.287a4 4 0 0 0 -2.861 3.281l-.633 4.432h20l-.633-4.432a4 4 0 0 0 -2.861-3.281z" fill="#678efa"/><path d="m12 49h-3a4 4 0 0 1 -4-4v-1a5 5 0 0 1 5-5h2" fill="#b47864"/><path d="m12 52a2 2 0 0 1 2 2v2a0 0 0 0 1 0 0h-4a0 0 0 0 1 0 0v-2a2 2 0 0 1 2-2z" fill="#f0b0a1" transform="matrix(-1 0 0 -1 24 108)"/><path d="m12 53a4 4 0 0 1 -4-4v-3a2 2 0 0 1 2-2h6v5a4 4 0 0 1 -4 4z" fill="#f8c3b8"/><path d="m11 39h5a2.5 2.5 0 0 1 2.5 2.5 2.5 2.5 0 0 1 -2.5 2.5h-5" fill="#b47864"/><path d="m39 48.764v-2.764a7 7 0 0 0 -7-7 7 7 0 0 0 -7 7v2.764a3.618 3.618 0 0 1 -2 3.236 3 3 0 0 0 3 3h12a3 3 0 0 0 3-3 3.618 3.618 0 0 1 -2-3.236z" fill="#ffdc6e"/><path d="m38.506 55.287-4.506-1.287h-4l-4.506 1.287a4 4 0 0 0 -2.861 3.281l-.633 4.432h20l-.633-4.432a4 4 0 0 0 -2.861-3.281z" fill="#f04678"/><path d="m32 52a2 2 0 0 1 2 2v2a0 0 0 0 1 0 0h-4a0 0 0 0 1 0 0v-2a2 2 0 0 1 2-2z" fill="#f0b0a1" transform="matrix(-1 0 0 -1 64 108)"/><path d="m32 53a4 4 0 0 1 -4-4v-1.764a2 2 0 0 1 1.106-1.789l2.894-1.447 2.894 1.447a2 2 0 0 1 1.106 1.789v1.764a4 4 0 0 1 -4 4z" fill="#f8c3b8"/><path d="m58.506 55.287-4.506-1.287h-4l-4.506 1.287a4 4 0 0 0 -2.861 3.281l-.633 4.432h20l-.633-4.432a4 4 0 0 0 -2.861-3.281z" fill="#58efc7"/><path d="m52 52a2 2 0 0 1 2 2v2a0 0 0 0 1 0 0h-4a0 0 0 0 1 0 0v-2a2 2 0 0 1 2-2z" fill="#f0b0a1" transform="matrix(-1 0 0 -1 104 108)"/><path d="m52 53a4 4 0 0 1 -4-4v-3a2 2 0 0 1 2-2h6v5a4 4 0 0 1 -4 4z" fill="#f8c3b8"/><g fill="#54deb9"><path d="m20.624 29.782-.5.373a16.913 16.913 0 0 0 17.4 3.907l-1.524-3.062v-.52a16.9 16.9 0 0 1 -15.376-.7z"/><path d="m49 18a16.9 16.9 0 0 0 -3.117-9.79l-1.06.606a16.895 16.895 0 0 1 -3.223 17.565l2.562 3.482a16.935 16.935 0 0 0 4.838-11.863z"/></g></svg>