<svg id="Icon" height="512" viewBox="0 0 60 60" width="512" xmlns="http://www.w3.org/2000/svg"><path d="m39 9.4 5 3.329v5.799s-1.96 9.048-1.96 9.048c-.23 1.08.46 2.15 1.53 2.379 1.08.23 2.15-.45 2.38-1.53l2.05-9.458 2.05 9.458c.23 1.08 1.3 1.76 2.38 1.53 1.07-.23 1.76-1.3 1.53-2.379l-1.96-9.048v-5.799s6.11-4.069 6.11-4.069c.92-.61 1.17-1.85.55-2.769-.61-.92-1.85-1.17-2.77-.55l-4.76 3.169c-.73-.92-1.86-1.51-3.13-1.51s-2.4.59-3.13 1.51l-4.67-3.109-.09-.06z" fill="#51b767"/><path d="m19.89 5.341-.09.06-4.67 3.109c-.73-.92-1.86-1.51-3.13-1.51s-2.4.59-3.13 1.51l-4.76-3.169c-.92-.62-2.16-.37-2.77.55-.62.92-.37 2.16.55 2.769l6.11 4.069v5.799l-1.96 9.048c-.23 1.08.46 2.15 1.53 2.379 1.08.23 2.15-.45 2.38-1.53l2.05-9.458 2.05 9.458c.23 1.08 1.3 1.76 2.38 1.53 1.07-.23 1.76-1.3 1.53-2.379l-1.96-9.048v-5.799l5-3.329z" fill="#e52940"/><path d="m2.07 30h55.86c.598 0 1.091.493 1.069 1.089-.573 15.515-13.334 27.911-28.999 27.911s-28.426-12.396-28.999-27.911c-.022-.597.472-1.089 1.069-1.089z" fill="#3a2ee5"/><g fill="#78e565"><path d="m43.63 30 2.36 2.76c1.23 1.44 1.53 3.45.77 5.18l-5.22 11.94c-.33.75-1.07 1.23-1.88 1.23-.97 0-1.8-.68-2.01-1.62l-2.25-10.53c-.23-1.08-1.19-1.85-2.29-1.85-2.82 0-5.11-2.29-5.11-5.11 0-.7.15-1.38.41-2z"/><path d="m24.536 41.559-2.788 9.759c-.224.785-.942 1.327-1.759 1.327-.857 0-1.6-.596-1.786-1.432l-1.448-6.516c-.085-.384-.299-.727-.607-.973l-3.103-2.482c-.718-.574-1.055-1.5-.875-2.401l.395-1.973c.163-.815.726-1.492 1.497-1.8l2.227-.891c.796-.319 1.701-.199 2.388.316l4.656 3.492c1.103.827 1.581 2.249 1.203 3.575z"/><path d="m59 31.09c-.09 2.59-.53 5.1-1.27 7.48l-3.56-7.65c-.18-.37-.45-.69-.77-.92h4.53c.6 0 1.09.49 1.07 1.09z"/></g><circle cx="30" cy="4" fill="#f6c24d" r="3"/><path d="m40.109 8.66-6.109 4.068v5.797l1.96 9.046c.23 1.08-.46 2.149-1.53 2.379-1.08.23-2.15-.45-2.38-1.529l-2.05-9.456-2.05 9.456c-.23 1.08-1.3 1.759-2.38 1.529-1.07-.23-1.76-1.299-1.53-2.379l1.96-9.046v-5.797l-6.109-4.068c-.92-.61-1.17-1.849-.55-2.769.61-.92 1.85-1.17 2.77-.55l4.76 3.169c.73-.92 1.86-1.51 3.13-1.51s2.4.59 3.13 1.51l4.76-3.169c.92-.62 2.16-.37 2.77.55.62.92.37 2.159-.55 2.769z" fill="#f6c24d"/><circle cx="12" cy="4" fill="#e52940" r="3"/><circle cx="48" cy="4" fill="#51b767" r="3"/></svg>