<svg id="Capa_1" enable-background="new 0 0 512 512" height="512" viewBox="0 0 512 512" width="512" xmlns="http://www.w3.org/2000/svg"><g><path d="m432.079 91.338h-61.907c-8.407 0-15.223-6.816-15.223-15.223v-60.892c0-8.407 6.816-15.223 15.223-15.223h61.907c8.407 0 15.223 6.816 15.223 15.223v60.892c0 8.407-6.815 15.223-15.223 15.223z" fill="#fd9468"/><path d="m432.079 228.25h-61.907c-8.407 0-15.223-6.816-15.223-15.223v-60.892c0-8.407 6.816-15.223 15.223-15.223h61.907c8.407 0 15.223 6.816 15.223 15.223v60.892c0 8.408-6.815 15.223-15.223 15.223z" fill="#98d5b9"/><g><path d="m294.057 91.338h-275.028c-8.407 0-15.223-6.816-15.223-15.223v-60.892c0-8.407 6.815-15.223 15.223-15.223h275.029c8.407 0 15.223 6.816 15.223 15.223v60.892c-.001 8.407-6.816 15.223-15.224 15.223z" fill="#fd9468"/><g><path d="m263.612 53.28h-153.245c-4.204 0-7.611-3.408-7.611-7.611s3.407-7.611 7.611-7.611h153.245c4.204 0 7.611 3.408 7.611 7.611s-3.407 7.611-7.611 7.611z" fill="#fff"/></g><circle cx="49.475" cy="45.669" fill="#fff" r="15.223"/></g><g><path d="m294.057 228.25h-275.028c-8.407 0-15.223-6.816-15.223-15.223v-60.892c0-8.407 6.816-15.223 15.223-15.223h275.029c8.407 0 15.223 6.816 15.223 15.223v60.892c-.001 8.408-6.816 15.223-15.224 15.223z" fill="#98d5b9"/><g><path d="m263.612 190.193h-153.245c-4.204 0-7.611-3.408-7.611-7.611 0-4.204 3.407-7.611 7.611-7.611h153.245c4.204 0 7.611 3.408 7.611 7.611s-3.407 7.611-7.611 7.611z" fill="#fff"/></g><circle cx="49.475" cy="182.581" fill="#fff" r="15.223"/></g><g><path d="m294.057 365.163h-275.028c-8.407 0-15.223-6.816-15.223-15.223v-60.892c0-8.407 6.816-15.223 15.223-15.223h275.029c8.407 0 15.223 6.816 15.223 15.223v60.892c-.001 8.407-6.816 15.223-15.224 15.223z" fill="#fee45a"/><g><path d="m263.612 327.105h-153.245c-4.204 0-7.611-3.408-7.611-7.611s3.407-7.612 7.611-7.612h153.245c4.204 0 7.611 3.408 7.611 7.612s-3.407 7.611-7.611 7.611z" fill="#fff"/></g><circle cx="49.475" cy="319.494" fill="#fff" r="15.223"/></g><g><path d="m294.057 504.388h-275.028c-8.407 0-15.223-6.816-15.223-15.223v-60.892c0-8.407 6.816-15.223 15.223-15.223h275.029c8.407 0 15.223 6.816 15.223 15.223v60.892c-.001 8.408-6.816 15.223-15.224 15.223z" fill="#8ac9fe"/><g><path d="m263.612 466.331h-153.245c-4.204 0-7.611-3.408-7.611-7.612s3.407-7.611 7.611-7.611h153.245c4.204 0 7.611 3.408 7.611 7.611 0 4.204-3.407 7.612-7.611 7.612z" fill="#fff"/></g><circle cx="49.475" cy="458.72" fill="#fff" r="15.223"/></g><g><path d="m477.676 330.909v-28.242c0-8.427 6.832-15.259 15.259-15.259 8.427 0 15.259 6.832 15.259 15.259v95.424l-15.332 69.402h-108.68l-63.832-134.93c-2.646-5.594-1.741-12.223 2.309-16.902 6.03-6.967 16.749-7.228 23.111-.563l33.353 34.946c2.529 2.649 6.996.86 6.996-2.803v-142.126c0-8.427 6.832-15.259 15.259-15.259 8.427 0 15.259 6.832 15.259 15.259v93.663z" fill="#ffcebf"/><g fill="#ffb09e"><path d="m492.61 287.411c-.005.006-.006.008-.011.014.161.887.257 1.796.257 2.73v95.424c-8.956 40.54-44.891 69.402-86.408 69.402h-28.185l5.919 12.513h108.68l15.332-69.402v-95.424c0-8.537-7.008-15.436-15.584-15.257z"/><path d="m401.301 192.602v128.929c0 8.19 7.222 14.501 15.338 13.403v-129.819c0-8.427-6.832-15.259-15.259-15.259-.113 0-.223.015-.336.017.16.887.257 1.796.257 2.729z"/></g><path d="m508.085 501.851v-14.061c0-11.21-9.087-20.297-20.297-20.297h-98.531c-11.21 0-20.297 9.087-20.297 20.297v14.061c0 5.605 4.544 10.149 10.149 10.149h118.828c5.605 0 10.148-4.544 10.148-10.149z" fill="#fe646f"/><path d="m416.639 330.909v-28.242c0-8.427 6.832-15.259 15.259-15.259 8.427 0 15.259 6.832 15.259 15.259v42.249z" fill="#ffcebf"/><path d="m447.157 330.909v-28.242c0-8.427 6.832-15.259 15.259-15.259 8.427 0 15.259 6.832 15.259 15.259v36.686z" fill="#ffcebf"/><g fill="#ffb09e"><path d="m462.416 287.407c-2.298 0-4.469.523-6.424 1.432 5.214 2.427 8.835 7.697 8.835 13.827v19.8c0 7.877 5.257 14.785 12.848 16.886v-36.686c.001-8.427-6.831-15.259-15.259-15.259z"/><path d="m431.897 287.407c-2.298 0-4.469.523-6.424 1.432 5.214 2.427 8.835 7.697 8.835 13.827v19.8c0 7.877 5.257 14.785 12.848 16.886v-36.686c.001-8.427-6.831-15.259-15.259-15.259z"/></g></g></g></svg>