<?xml version="1.0" encoding="utf-8"?>
<!-- Generator: Adobe Illustrator 27.5.0, SVG Export Plug-In . SVG Version: 6.00 Build 0)  -->
<svg version="1.1" id="PRINT" xmlns="http://www.w3.org/2000/svg" xmlns:xlink="http://www.w3.org/1999/xlink" x="0px" y="0px"
	 viewBox="0 0 614.515 425.197" style="enable-background:new 0 0 614.515 425.197;" xml:space="preserve">
<g>
	<g id="Business_card_1_">
		<g>
			<g id="Artwork_138_68_">
			</g>
		</g>
	</g>
	<g>
		<defs>
			<rect id="SVGID_1_" x="-14.173" y="-14.173" width="642.861" height="453.543"/>
		</defs>
		<clipPath id="SVGID_00000116223712506928578270000006197595621493173428_">
			<use xlink:href="#SVGID_1_"  style="overflow:visible;"/>
		</clipPath>
		<g style="clip-path:url(#SVGID_00000116223712506928578270000006197595621493173428_);">
			<rect x="-25.708" y="-17.785" style="fill:#FFFFFF;" width="666.152" height="460.766"/>
			
				<linearGradient id="SVGID_00000031924456003377253400000001322019251518102175_" gradientUnits="userSpaceOnUse" x1="117.8979" y1="314.0807" x2="43.3291" y2="320.427">
				<stop  offset="0" style="stop-color:#FFFFFF"/>
				<stop  offset="0.3209" style="stop-color:#F7F7F7"/>
				<stop  offset="0.7063" style="stop-color:#E8E8E9"/>
				<stop  offset="1" style="stop-color:#D8D9DC"/>
			</linearGradient>
			<polygon style="fill:url(#SVGID_00000031924456003377253400000001322019251518102175_);" points="-37.006,160.304 
				154.707,477.908 -79.183,486.216 			"/>
			
				<linearGradient id="SVGID_00000170272201154789525510000016453326149932924060_" gradientUnits="userSpaceOnUse" x1="504.2906" y1="335.7903" x2="633.036" y2="147.5488">
				<stop  offset="0" style="stop-color:#FFFFFF"/>
				<stop  offset="0.3209" style="stop-color:#F7F7F7"/>
				<stop  offset="0.7063" style="stop-color:#E8E8E9"/>
				<stop  offset="1" style="stop-color:#D8D9DC"/>
			</linearGradient>
			<path style="fill:url(#SVGID_00000170272201154789525510000016453326149932924060_);" d="M635.224-14.173V439.37h-94.018
				l-41.558-233.755c-0.414-2.329-0.621-4.669-0.621-6.989c0-13.148,6.533-25.655,17.735-33.12
				c10.498-6.988,17.052-18.543,17.683-31.143l7.423-148.538H635.224z"/>
			
				<linearGradient id="SVGID_00000096752638889383965190000010807045505698309295_" gradientUnits="userSpaceOnUse" x1="124.5411" y1="361.4738" x2="13.3519" y2="215.1721">
				<stop  offset="0" style="stop-color:#FFFFFF"/>
				<stop  offset="0.3209" style="stop-color:#F7F7F7"/>
				<stop  offset="0.7063" style="stop-color:#E8E8E9"/>
				<stop  offset="1" style="stop-color:#D8D9DC"/>
			</linearGradient>
			<path style="fill:url(#SVGID_00000096752638889383965190000010807045505698309295_);" d="M65.652,285.2
				c-3.468,2.63-6.274,5.974-8.251,9.742c-1.988,3.769-3.147,7.972-3.354,12.331L48.041,439.37h-68.528V-14.173h63.765
				l33.793,272.341C78.355,268.573,74.007,278.875,65.652,285.2z"/>
			<g id="Text_certificate_1_">
				<g>
					<g>
						
							<text transform="matrix(1 0 0 1 177.8134 145.6663)" style="fill:#8192A3; font-family:'Montserrat-Medium'; font-size:10.6547px; letter-spacing:1;">This Certificate is Proudly Presented to</text>
					</g>
				</g>
				
					<text transform="matrix(1 0 0 1 196.3969 217.9153)" style="fill:#454955; font-family:'DancingScript-Bold'; font-size:38.7034px;">Name Surname</text>
				
					<line style="fill:none;stroke:#454955;stroke-width:0.5177;stroke-linecap:round;stroke-miterlimit:10;" x1="165.248" y1="240.053" x2="440.73" y2="240.053"/>
				<rect x="118.483" y="271.452" style="fill:none;" width="374.89" height="30.702"/>
				<text transform="matrix(1 0 0 1 131.7895 277.597)"><tspan x="0" y="0" style="fill:#888C96; font-family:'Montserrat-Medium'; font-size:8.2826px;">Lorem ipsum dolor sit amet, consectetuer adipiscing elit, sed diam nonummy nibh </tspan><tspan x="-13.293" y="9.939" style="fill:#888C96; font-family:'Montserrat-Medium'; font-size:8.2826px;">euismod tincidunt ut laoreet dolore magna aliquam erat volutpat. Ut wisi enim ad minim </tspan><tspan x="58.445" y="19.878" style="fill:#888C96; font-family:'Montserrat-Medium'; font-size:8.2826px;">veniam, quis nostrud exerci tation ullamcorper suscipit</tspan></text>
				<g>
					
						<line style="fill:none;stroke:#454955;stroke-width:0.5177;stroke-linecap:round;stroke-miterlimit:10;" x1="121.187" y1="372.784" x2="216.921" y2="372.784"/>
					<g>
						
							<text transform="matrix(1 0 0 1 157.123 385.9788)" style="fill:#454955; font-family:'Montserrat-Bold'; font-size:8.2826px;">date</text>
					</g>
				</g>
				<g>
					
						<line style="fill:none;stroke:#454955;stroke-width:0.5177;stroke-linecap:round;stroke-miterlimit:10;" x1="400.519" y1="372.784" x2="496.253" y2="372.784"/>
					<g>
						
							<text transform="matrix(1 0 0 1 423.0288 385.9788)" style="fill:#454955; font-family:'Montserrat-Bold'; font-size:8.2826px;">signature</text>
					</g>
				</g>
				<g>
					<g>
						<g>
							
								<text transform="matrix(1 0 0 1 292.5024 366.4241)" style="fill:#303030; font-family:'BebasNeueBold'; font-size:11.7904px;">premium</text>
							
								<text transform="matrix(1 0 0 1 294.5068 375.7923)" style="fill:#303030; font-family:'BebasNeueBold'; font-size:11.7904px;">quality</text>
						</g>
						<g>
							<polygon style="fill:#FFC20E;" points="308.72,341.588 309.743,344.735 313.052,344.735 310.375,346.681 311.397,349.828 
								308.72,347.883 306.043,349.828 307.065,346.681 304.388,344.735 307.697,344.735 							"/>
							<polygon style="fill:#FFC20E;" points="317.761,345.708 318.505,347.996 320.91,347.996 318.964,349.41 319.707,351.697 
								317.761,350.284 315.815,351.697 316.559,349.41 314.612,347.996 317.018,347.996 							"/>
							<polygon style="fill:#F68921;" points="324.564,349.996 325.059,351.518 326.658,351.518 325.364,352.458 325.859,353.98 
								324.564,353.039 323.27,353.98 323.764,352.458 322.47,351.518 324.07,351.518 							"/>
							<polygon style="fill:#FFC20E;" points="299.679,345.708 298.935,347.996 296.53,347.996 298.476,349.41 297.733,351.697 
								299.679,350.284 301.625,351.697 300.882,349.41 302.828,347.996 300.422,347.996 							"/>
							<polygon style="fill:#F68921;" points="292.876,349.996 292.381,351.518 290.782,351.518 292.076,352.458 291.581,353.98 
								292.876,353.039 294.17,353.98 293.676,352.458 294.97,351.518 293.37,351.518 							"/>
						</g>
					</g>
					<g id="badge_1_">
						<g>
							<g>
								<path style="fill:#F68921;" d="M332.207,390.337c0,0,3.366-1.802,4.456-2.797l0.237,4.788l4.03,1.517
									c-1.09,0.853-3.508,2.607-5.594,3.461l-3.745-1.422L332.207,390.337z"/>
								<path style="fill:#F68921;" d="M285.071,390.337c0,0-3.366-1.802-4.456-2.797l-0.237,4.788l-4.03,1.517
									c1.09,0.853,3.508,2.607,5.594,3.461l3.745-1.422L285.071,390.337z"/>
							</g>
							<path style="fill:#FFC20E;" d="M333.298,394.383l-0.478-6.276c-3.684,2.66-14.939,6.685-24.182,6.685
								c-10.198,0-20.498-4.025-24.182-6.685l-0.477,6.276l-5.594,3.138c7.231,4.229,19.236,7.504,30.253,7.504
								c10.13,0,23.022-3.274,30.253-7.504L333.298,394.383z"/>
						</g>
						<g>
							<g>
								<path style="fill:#454955;" d="M325.346,336.637c-0.913-0.949-1.644-2.149-1.191-3.885c0.713,0.498,1.237,1.061,1.432,1.746
									C325.79,335.176,325.718,335.897,325.346,336.637z"/>
								<path style="fill:#454955;" d="M325.313,336.683c-1.166-0.614-2.629-0.616-3.787,0.678c0.635,0.334,1.309,0.406,1.937,0.326
									C324.094,337.596,324.729,337.273,325.313,336.683z"/>
								<path style="fill:#454955;" d="M323.148,335.188c-0.702-1.793-2.398-2.739-4.596-2.205c0.53,0.909,1.175,1.493,1.918,1.877
									C321.208,335.256,322.11,335.317,323.148,335.188z"/>
							</g>
							<g>
								<path style="fill:#454955;" d="M327.933,338.704c-0.941-1.148-1.575-2.655-0.896-4.528c0.794,0.602,1.259,1.384,1.422,2.158
									C328.622,337.109,328.457,337.906,327.933,338.704z"/>
								<path style="fill:#454955;" d="M327.89,338.753c-1.27-0.802-2.874-1.043-4.355,0.329c0.708,0.396,1.393,0.635,2.131,0.59
									C326.401,339.626,327.165,339.332,327.89,338.753z"/>
							</g>
							<g>
								<path style="fill:#454955;" d="M330.73,341.579c-0.464-0.702-0.782-1.524-0.895-2.396c-0.125-0.859-0.004-1.817,0.523-2.838
									c0.783,0.831,1.263,1.724,1.306,2.649C331.728,339.903,331.423,340.776,330.73,341.579z"/>
								<path style="fill:#454955;" d="M330.674,341.626c-0.668-0.526-1.418-0.951-2.26-1.038c-0.856-0.076-1.752,0.143-2.667,0.795
									c0.699,0.573,1.488,0.869,2.29,0.952C328.856,342.398,329.757,342.182,330.674,341.626z"/>
							</g>
							<g>
								<path style="fill:#454955;" d="M333.102,344.814c-0.657-1.557-0.973-3.347,0.347-5.249c0.639,0.946,1.022,1.877,0.938,2.801
									C334.321,343.281,333.897,344.109,333.102,344.814z"/>
								<path style="fill:#454955;" d="M333.04,344.853c-1.121-1.279-2.867-1.961-4.834-0.911c0.592,0.68,1.36,1.062,2.141,1.252
									C331.142,345.371,332.058,345.28,333.04,344.853z"/>
							</g>
							<g>
								<path style="fill:#454955;" d="M335.021,348.334c-0.117-0.407-0.197-0.829-0.227-1.262c-0.047-0.424-0.059-0.85,0.004-1.287
									c0.118-0.867,0.518-1.778,1.272-2.607c0.544,1.001,0.722,2.021,0.571,2.895
									C336.444,346.976,335.907,347.742,335.021,348.334z"/>
								<path style="fill:#454955;" d="M334.954,348.365c-0.239-0.349-0.51-0.676-0.815-0.956c-0.322-0.272-0.692-0.49-1.084-0.645
									c-0.794-0.306-1.687-0.349-2.766,0.052c0.532,0.73,1.164,1.255,1.968,1.517
									C333.013,348.618,333.927,348.654,334.954,348.365z"/>
							</g>
							<g>
								<path style="fill:#454955;" d="M336.451,352.079c-0.078-0.851-0.13-1.703,0.128-2.557c0.266-0.857,0.725-1.679,1.602-2.408
									C339.002,349.267,338.392,351.166,336.451,352.079z"/>
								<path style="fill:#454955;" d="M336.381,352.1c-0.336-0.771-0.94-1.427-1.661-1.845c-0.714-0.424-1.651-0.561-2.757-0.316
									C332.816,351.507,334.277,352.367,336.381,352.1z"/>
							</g>
							<g>
								<path style="fill:#454955;" d="M337.361,355.984c0.001-0.846,0.095-1.702,0.48-2.516c0.357-0.805,0.923-1.557,1.903-2.162
									c0.124,0.558,0.192,1.087,0.149,1.585c-0.056,0.501-0.186,0.96-0.39,1.366C339.092,355.068,338.395,355.654,337.361,355.984
									z"/>
								<path style="fill:#454955;" d="M337.288,355.996c-0.265-0.802-0.746-1.542-1.389-2.058
									c-0.673-0.511-1.585-0.776-2.701-0.688c0.153,0.423,0.379,0.794,0.621,1.126c0.23,0.335,0.514,0.623,0.852,0.861
									C335.342,355.71,336.24,355.99,337.288,355.996z"/>
							</g>
							<g>
								<path style="fill:#454955;" d="M331.254,378.789c1.278-1.094,2.926-1.912,5.12-1.269
									C335.003,379.417,333.039,379.922,331.254,378.789z"/>
								<path style="fill:#454955;" d="M331.199,378.741c0.88-1.46,1.038-3.308-0.601-4.865
									C329.771,375.42,329.826,377.084,331.199,378.741z"/>
							</g>
							<g>
								<path style="fill:#454955;" d="M328.405,381.611c0.738-0.424,1.51-0.801,2.401-0.912c0.865-0.135,1.822-0.045,2.86,0.457
									c-0.414,0.405-0.844,0.737-1.284,0.976c-0.457,0.223-0.916,0.361-1.368,0.405
									C330.118,382.636,329.205,382.297,328.405,381.611z"/>
								<path style="fill:#454955;" d="M328.357,381.555c0.562-0.628,0.931-1.432,1.021-2.255c0.067-0.849-0.182-1.743-0.856-2.637
									c-0.275,0.347-0.477,0.718-0.618,1.104c-0.157,0.37-0.246,0.763-0.266,1.175
									C327.609,379.776,327.795,380.634,328.357,381.555z"/>
							</g>
							<g>
								<path style="fill:#454955;" d="M325.158,383.963c1.557-0.637,3.385-0.905,5.267,0.365c-0.453,0.359-0.949,0.598-1.426,0.761
									c-0.474,0.167-0.948,0.235-1.411,0.196C326.671,385.223,325.851,384.788,325.158,383.963z"/>
								<path style="fill:#454955;" d="M325.12,383.9c1.292-1.11,2.014-2.813,0.92-4.808c-0.307,0.323-0.581,0.634-0.784,0.988
									c-0.2,0.358-0.346,0.734-0.437,1.125C324.646,382.001,324.725,382.921,325.12,383.9z"/>
							</g>
							<g>
								<path style="fill:#454955;" d="M321.591,385.798c1.634-0.434,3.451-0.39,5.123,1.168
									C324.613,388.042,322.745,387.569,321.591,385.798z"/>
								<path style="fill:#454955;" d="M321.561,385.731c1.42-0.928,2.43-2.506,1.663-4.636
									C321.807,382.089,321.003,383.658,321.561,385.731z"/>
							</g>
							<g>
								<path style="fill:#454955;" d="M337.698,359.981c0.085-0.837,0.394-1.677,0.827-2.424c0.447-0.746,1.147-1.416,2.2-1.879
									C340.937,357.981,339.776,359.639,337.698,359.981z"/>
								<path style="fill:#454955;" d="M337.625,359.982c-0.185-0.83-0.461-1.636-1.089-2.231c-0.614-0.598-1.445-0.991-2.565-1.059
									C334.372,358.428,335.489,359.658,337.625,359.982z"/>
							</g>
							<g>
								<path style="fill:#454955;" d="M337.488,364.172c0.111-0.408,0.261-0.81,0.46-1.195c0.195-0.385,0.397-0.754,0.682-1.091
									c0.556-0.674,1.361-1.229,2.462-1.531c-0.094,1.128-0.442,2.075-1.047,2.737
									C339.408,363.756,338.552,364.129,337.488,364.172z"/>
								<path style="fill:#454955;" d="M337.415,364.164c-0.023-0.423-0.086-0.843-0.201-1.242c-0.119-0.399-0.33-0.781-0.581-1.12
									c-0.514-0.68-1.265-1.195-2.371-1.428c0.039,0.91,0.336,1.704,0.864,2.351C335.624,363.366,336.387,363.875,337.415,364.164
									z"/>
							</g>
							<g>
								<path style="fill:#454955;" d="M336.763,368.116c0.163-0.39,0.39-0.763,0.615-1.123c0.224-0.36,0.495-0.697,0.821-0.996
									c0.324-0.299,0.709-0.561,1.144-0.771c0.424-0.211,0.914-0.367,1.478-0.448c-0.081,0.56-0.267,1.065-0.511,1.503
									c-0.239,0.439-0.531,0.81-0.871,1.102C338.745,367.966,337.817,368.216,336.763,368.116z"/>
								<path style="fill:#454955;" d="M336.692,368.097c0.032-0.422,0.05-0.842-0.034-1.257c-0.085-0.415-0.223-0.816-0.429-1.183
									c-0.207-0.368-0.474-0.701-0.835-0.99c-0.371-0.291-0.818-0.533-1.354-0.718c-0.001,0.459,0.02,0.883,0.103,1.284
									c0.088,0.402,0.245,0.782,0.468,1.136C335.047,367.072,335.707,367.669,336.692,368.097z"/>
							</g>
							<g>
								<path style="fill:#454955;" d="M335.488,371.916c0.47-0.711,1-1.389,1.728-1.893c0.749-0.496,1.618-0.845,2.764-0.854
									c-0.319,1.099-0.998,1.919-1.739,2.406C337.471,372.058,336.515,372.17,335.488,371.916z"/>
								<path style="fill:#454955;" d="M335.42,371.888c0.22-0.814,0.2-1.693-0.106-2.478c-0.284-0.779-0.931-1.48-1.937-1.987
									c-0.127,0.895-0.125,1.687,0.233,2.455C333.944,370.633,334.507,371.32,335.42,371.888z"/>
							</g>
							<g>
								<path style="fill:#454955;" d="M333.658,375.483c0.272-0.324,0.577-0.626,0.919-0.893c0.321-0.279,0.675-0.525,1.073-0.719
									c0.81-0.381,1.736-0.593,2.865-0.439c-0.128,0.259-0.263,0.502-0.413,0.724c-0.162,0.217-0.333,0.415-0.512,0.594
									c-0.357,0.356-0.745,0.632-1.155,0.816C335.575,375.914,334.639,375.893,333.658,375.483z"/>
								<path style="fill:#454955;" d="M333.595,375.445c0.157-0.393,0.276-0.801,0.338-1.211c0.04-0.421,0.021-0.845-0.071-1.255
									c-0.17-0.815-0.693-1.595-1.621-2.246c-0.071,0.211-0.121,0.423-0.159,0.632c-0.05,0.203-0.082,0.406-0.096,0.609
									c-0.028,0.405,0.015,0.81,0.129,1.212C332.306,373.967,332.784,374.747,333.595,375.445z"/>
							</g>
							<path style="fill:#454955;" d="M321.919,387.926c-0.285-0.236-1.12-1.109-1.38-1.728c-0.26-0.619-0.334-1.822-0.328-2.184
								c-0.447,0.675-0.198,1.962-0.655,2.264c-0.217,0.177-3.543,1.358-6.992,2.517c-1.721,0.59-3.464,1.209-4.832,1.797
								c-1.368,0.589-2.368,1.125-2.64,1.329c-0.564,0.351-0.78,0.767-0.848,1.042c-0.07,0.275-0.004,0.435-0.004,0.435
								s0.169,0.075,0.443,0.063c0.276-0.014,0.626-0.112,1.132-0.426c0.23-0.176,1.126-0.721,2.411-1.366
								c1.287-0.644,2.972-1.36,4.65-2.045c3.366-1.349,6.65-2.708,6.91-2.784C320.326,386.741,321.068,387.817,321.919,387.926z"/>
						</g>
						<g>
							<g>
								<path style="fill:#454955;" d="M292.475,336.683c1.166-0.614,2.629-0.616,3.787,0.678c-0.635,0.334-1.309,0.406-1.937,0.326
									C293.695,337.596,293.059,337.273,292.475,336.683z"/>
								<path style="fill:#454955;" d="M292.442,336.637c0.913-0.949,1.644-2.149,1.191-3.885c-0.714,0.498-1.237,1.061-1.432,1.746
									C291.998,335.176,292.071,335.897,292.442,336.637z"/>
								<path style="fill:#454955;" d="M294.686,335.266c1.896,0.204,3.308-0.262,4.598-2.148c-0.95-0.281-1.936-0.302-2.747,0.077
									C295.733,333.584,295.04,334.235,294.686,335.266z"/>
							</g>
							<g>
								<path style="fill:#454955;" d="M289.899,338.753c1.27-0.802,2.874-1.043,4.355,0.329c-0.708,0.396-1.393,0.635-2.131,0.59
									C291.387,339.626,290.623,339.332,289.899,338.753z"/>
								<path style="fill:#454955;" d="M289.855,338.704c0.941-1.148,1.575-2.655,0.896-4.528c-0.794,0.602-1.259,1.384-1.422,2.158
									C289.166,337.109,289.331,337.906,289.855,338.704z"/>
							</g>
							<g>
								<path style="fill:#454955;" d="M287.114,341.626c0.668-0.526,1.418-0.951,2.26-1.038c0.856-0.076,1.752,0.143,2.667,0.795
									c-0.699,0.573-1.488,0.869-2.29,0.952C288.932,342.398,288.032,342.182,287.114,341.626z"/>
								<path style="fill:#454955;" d="M287.058,341.579c0.464-0.702,0.782-1.524,0.895-2.396c0.125-0.859,0.004-1.817-0.523-2.838
									c-0.783,0.831-1.263,1.724-1.306,2.649C286.06,339.903,286.365,340.776,287.058,341.579z"/>
							</g>
							<g>
								<path style="fill:#454955;" d="M284.749,344.853c1.121-1.279,2.866-1.961,4.834-0.911c-0.592,0.68-1.36,1.062-2.141,1.252
									C286.646,345.371,285.73,345.28,284.749,344.853z"/>
								<path style="fill:#454955;" d="M284.687,344.814c0.657-1.557,0.973-3.347-0.347-5.249c-0.639,0.946-1.021,1.877-0.938,2.801
									C283.468,343.281,283.891,344.109,284.687,344.814z"/>
							</g>
							<g>
								<path style="fill:#454955;" d="M282.834,348.365c0.239-0.349,0.51-0.676,0.815-0.956c0.322-0.272,0.692-0.49,1.084-0.645
									c0.794-0.306,1.686-0.349,2.766,0.052c-0.531,0.73-1.163,1.255-1.968,1.517
									C284.776,348.618,283.862,348.654,282.834,348.365z"/>
								<path style="fill:#454955;" d="M282.767,348.334c0.117-0.407,0.197-0.829,0.227-1.262c0.047-0.424,0.059-0.85-0.004-1.287
									c-0.118-0.867-0.518-1.778-1.272-2.607c-0.544,1.001-0.721,2.021-0.571,2.895
									C281.344,346.976,281.882,347.742,282.767,348.334z"/>
							</g>
							<g>
								<path style="fill:#454955;" d="M281.408,352.1c0.336-0.771,0.94-1.427,1.661-1.845c0.714-0.424,1.651-0.561,2.757-0.316
									C284.973,351.507,283.512,352.367,281.408,352.1z"/>
								<path style="fill:#454955;" d="M281.338,352.079c0.078-0.851,0.13-1.703-0.128-2.557c-0.266-0.857-0.725-1.679-1.602-2.408
									C278.787,349.267,279.396,351.166,281.338,352.079z"/>
							</g>
							<g>
								<path style="fill:#454955;" d="M280.5,355.996c0.265-0.802,0.746-1.542,1.39-2.058c0.673-0.511,1.585-0.776,2.701-0.688
									c-0.153,0.423-0.379,0.794-0.621,1.126c-0.229,0.335-0.514,0.623-0.851,0.861C282.446,355.71,281.548,355.99,280.5,355.996z
									"/>
								<path style="fill:#454955;" d="M280.428,355.984c-0.001-0.846-0.095-1.702-0.48-2.516c-0.357-0.805-0.923-1.557-1.903-2.162
									c-0.124,0.558-0.192,1.087-0.148,1.585c0.056,0.501,0.186,0.96,0.39,1.366C278.697,355.068,279.394,355.654,280.428,355.984
									z"/>
							</g>
							<g>
								<path style="fill:#454955;" d="M286.59,378.741c-0.88-1.46-1.038-3.308,0.601-4.865
									C288.018,375.42,287.962,377.084,286.59,378.741z"/>
								<path style="fill:#454955;" d="M286.534,378.789c-1.278-1.094-2.927-1.912-5.12-1.269
									C282.786,379.417,284.75,379.922,286.534,378.789z"/>
							</g>
							<g>
								<path style="fill:#454955;" d="M289.431,381.555c-0.562-0.628-0.931-1.432-1.021-2.255
									c-0.067-0.849,0.182-1.743,0.856-2.637c0.275,0.347,0.477,0.718,0.618,1.104c0.157,0.37,0.246,0.763,0.266,1.175
									C290.18,379.776,289.993,380.634,289.431,381.555z"/>
								<path style="fill:#454955;" d="M289.383,381.611c-0.738-0.424-1.51-0.801-2.401-0.912c-0.865-0.135-1.822-0.045-2.86,0.457
									c0.414,0.405,0.844,0.737,1.284,0.976c0.457,0.223,0.916,0.361,1.368,0.405
									C287.671,382.636,288.583,382.297,289.383,381.611z"/>
							</g>
							<g>
								<path style="fill:#454955;" d="M292.669,383.9c-1.292-1.11-2.014-2.813-0.92-4.808c0.307,0.323,0.581,0.634,0.784,0.988
									c0.2,0.358,0.346,0.734,0.438,1.125C293.142,382.001,293.064,382.921,292.669,383.9z"/>
								<path style="fill:#454955;" d="M292.631,383.963c-1.556-0.637-3.385-0.905-5.267,0.365c0.453,0.359,0.949,0.598,1.425,0.761
									c0.474,0.167,0.948,0.235,1.412,0.196C291.118,385.223,291.937,384.788,292.631,383.963z"/>
							</g>
							<g>
								<path style="fill:#454955;" d="M296.227,385.731c-1.42-0.928-2.43-2.506-1.664-4.636
									C295.981,382.089,296.786,383.658,296.227,385.731z"/>
								<path style="fill:#454955;" d="M296.197,385.798c-1.634-0.434-3.451-0.39-5.123,1.168
									C293.175,388.042,295.043,387.569,296.197,385.798z"/>
							</g>
							<g>
								<path style="fill:#454955;" d="M280.164,359.982c0.185-0.83,0.461-1.636,1.089-2.231c0.614-0.598,1.445-0.991,2.565-1.059
									C283.417,358.428,282.299,359.658,280.164,359.982z"/>
								<path style="fill:#454955;" d="M280.09,359.981c-0.085-0.837-0.394-1.677-0.827-2.424c-0.447-0.746-1.147-1.416-2.2-1.879
									C276.852,357.981,278.013,359.639,280.09,359.981z"/>
							</g>
							<g>
								<path style="fill:#454955;" d="M280.373,364.164c0.023-0.423,0.086-0.843,0.201-1.242c0.119-0.399,0.33-0.781,0.581-1.12
									c0.514-0.68,1.265-1.195,2.371-1.428c-0.039,0.91-0.336,1.704-0.864,2.351C282.164,363.366,281.402,363.875,280.373,364.164
									z"/>
								<path style="fill:#454955;" d="M280.3,364.172c-0.111-0.408-0.262-0.81-0.46-1.195c-0.195-0.385-0.397-0.754-0.682-1.091
									c-0.556-0.674-1.361-1.229-2.462-1.531c0.094,1.128,0.442,2.075,1.047,2.737C278.38,363.756,279.236,364.129,280.3,364.172z
									"/>
							</g>
							<g>
								<path style="fill:#454955;" d="M281.096,368.097c-0.032-0.422-0.05-0.842,0.034-1.257c0.085-0.415,0.223-0.816,0.428-1.183
									c0.207-0.368,0.474-0.701,0.835-0.99c0.371-0.291,0.818-0.533,1.354-0.718c0.001,0.459-0.02,0.883-0.103,1.284
									c-0.088,0.402-0.245,0.782-0.468,1.136C282.741,367.072,282.082,367.669,281.096,368.097z"/>
								<path style="fill:#454955;" d="M281.025,368.116c-0.163-0.39-0.39-0.763-0.615-1.123c-0.224-0.36-0.495-0.697-0.821-0.996
									c-0.324-0.299-0.709-0.561-1.144-0.771c-0.424-0.211-0.914-0.367-1.477-0.448c0.081,0.56,0.266,1.065,0.511,1.503
									c0.239,0.439,0.531,0.81,0.871,1.102C279.044,367.966,279.971,368.216,281.025,368.116z"/>
							</g>
							<g>
								<path style="fill:#454955;" d="M282.368,371.888c-0.22-0.814-0.2-1.693,0.106-2.478c0.284-0.779,0.931-1.48,1.937-1.987
									c0.127,0.895,0.125,1.687-0.233,2.455C283.845,370.633,283.281,371.32,282.368,371.888z"/>
								<path style="fill:#454955;" d="M282.3,371.916c-0.47-0.711-1-1.389-1.728-1.893c-0.749-0.496-1.618-0.845-2.764-0.854
									c0.319,1.099,0.998,1.919,1.739,2.406C280.317,372.058,281.274,372.17,282.3,371.916z"/>
							</g>
							<g>
								<path style="fill:#454955;" d="M284.193,375.445c-0.157-0.393-0.276-0.801-0.338-1.211
									c-0.041-0.421-0.021-0.845,0.071-1.255c0.17-0.815,0.693-1.595,1.621-2.246c0.071,0.211,0.121,0.423,0.159,0.632
									c0.05,0.203,0.082,0.406,0.096,0.609c0.028,0.405-0.015,0.81-0.129,1.212C285.482,373.967,285.004,374.747,284.193,375.445z
									"/>
								<path style="fill:#454955;" d="M284.131,375.483c-0.272-0.324-0.577-0.626-0.92-0.893c-0.32-0.279-0.674-0.525-1.073-0.719
									c-0.81-0.381-1.736-0.593-2.865-0.439c0.128,0.259,0.263,0.502,0.413,0.724c0.162,0.217,0.333,0.415,0.512,0.594
									c0.357,0.356,0.745,0.632,1.155,0.816C282.213,375.914,283.15,375.893,284.131,375.483z"/>
							</g>
							<path style="fill:#454955;" d="M297.566,384.042c0.006,0.362-0.068,1.565-0.328,2.184c-0.26,0.619-1.095,1.492-1.38,1.728
								c0.851-0.108,1.593-1.185,2.133-1.086c0.26,0.076,3.545,1.435,6.911,2.784c1.678,0.685,3.362,1.401,4.648,2.044
								c1.283,0.645,2.178,1.189,2.407,1.364c0.504,0.313,0.853,0.409,1.128,0.423c0.273,0.011,0.442-0.064,0.442-0.064
								s0.067-0.16-0.003-0.434c-0.067-0.274-0.281-0.689-0.844-1.039c-0.271-0.204-1.27-0.738-2.636-1.327
								c-1.367-0.587-3.11-1.206-4.83-1.796c-3.449-1.158-6.775-2.34-6.992-2.517C297.765,386.004,298.013,384.716,297.566,384.042z
								"/>
						</g>
						<g>
							<path id="SVGID_x5F_00000088103995965845623540000012530846321260611980_x5F_" style="fill:none;" d="M284.961,397.132
								c20.261,9.927,41.336,3.906,48.578-0.407"/>
							<text>							<textPath  xlink:href="#SVGID_x5F_00000088103995965845623540000012530846321260611980_x5F_" startOffset="0%">
<tspan  style="fill:#FFFFFF; font-family:'BebasNeueBold'; font-size:7.7748px; letter-spacing:75;">Certification</tspan>							</textPath>
</text>
							<text transform="matrix(1 0 0 1 298.332 411.0706)" style="fill:#454955; font-family:'BebasNeueBold'; font-size:5.439px;">since 1980</text>
						</g>
					</g>
				</g>
				<g>
					<g>
						
							<text transform="matrix(1 0 0 1 174.2441 93.7488)" style="fill:#454955; font-family:'Montserrat-Bold'; font-size:38.9259px;">certificate</text>
					</g>
					<g>
						
							<text transform="matrix(1 0 0 1 232.8681 116.1814)" style="fill:#838A98; font-family:'Montserrat-SemiBold'; font-size:17.7446px;">Of Achievement</text>
					</g>
				</g>
			</g>
			
				<linearGradient id="SVGID_00000017492305913874465590000007201447388041645710_" gradientUnits="userSpaceOnUse" x1="171.6672" y1="-7.1969" x2="-76.7934" y2="356.231">
				<stop  offset="0" style="stop-color:#D75AA1"/>
				<stop  offset="0.0412" style="stop-color:#D157A0"/>
				<stop  offset="0.7064" style="stop-color:#7E3694"/>
				<stop  offset="1" style="stop-color:#5D2D90"/>
			</linearGradient>
			<path style="fill:url(#SVGID_00000017492305913874465590000007201447388041645710_);" d="M157.568-14.173l-63.03,165.765
				c-3.593,9.463-10.747,17.135-19.92,21.39l-20.903,9.68c-15.561,7.216-24.537,23.802-22.052,40.781L63.291,439.37h-83.778V-14.173
				H157.568z"/>
			
				<linearGradient id="SVGID_00000011744975095329102370000014627453504491160756_" gradientUnits="userSpaceOnUse" x1="131.5213" y1="61.2936" x2="-33.5742" y2="144.6586">
				<stop  offset="0" style="stop-color:#D75AA1"/>
				<stop  offset="0.0412" style="stop-color:#D157A0"/>
				<stop  offset="0.7064" style="stop-color:#7E3694"/>
				<stop  offset="1" style="stop-color:#5D2D90"/>
			</linearGradient>
			<path style="fill:url(#SVGID_00000011744975095329102370000014627453504491160756_);" d="M91.452-14.173L79.524,105.049
				c-2.516,25.142-15.907,47.924-36.65,62.351l-3.788,2.635c-14.909,10.37-26.173,25.172-32.192,42.306l-27.38,77.933V-14.173
				H91.452z"/>
			
				<linearGradient id="SVGID_00000011717767801067964530000014330828156584972200_" gradientUnits="userSpaceOnUse" x1="399.2579" y1="127.3132" x2="605.1975" y2="227.9351">
				<stop  offset="0" style="stop-color:#D75AA1"/>
				<stop  offset="0.0412" style="stop-color:#D157A0"/>
				<stop  offset="0.7064" style="stop-color:#7E3694"/>
				<stop  offset="1" style="stop-color:#5D2D90"/>
			</linearGradient>
			<path style="fill:url(#SVGID_00000011717767801067964530000014330828156584972200_);" d="M635.224-14.173V439.37H512.393
				l25.873-176.646c2.185-14.878,9.163-28.627,19.889-39.166l10.26-10.084c9.566-9.401,12.248-23.771,6.709-35.988L488.27-14.173
				H635.224z"/>
			
				<linearGradient id="SVGID_00000047038746420040412880000018309573988730248853_" gradientUnits="userSpaceOnUse" x1="424.0909" y1="102.0816" x2="667.5963" y2="275.1517">
				<stop  offset="0" style="stop-color:#D75AA1"/>
				<stop  offset="0.0412" style="stop-color:#D157A0"/>
				<stop  offset="0.7064" style="stop-color:#7E3694"/>
				<stop  offset="1" style="stop-color:#5D2D90"/>
			</linearGradient>
			<path style="fill:url(#SVGID_00000047038746420040412880000018309573988730248853_);" d="M635.224-14.173V439.37H523.947
				l36.374-169.551c2.054-9.576,7.794-17.958,15.979-23.335l25.471-16.734c16.821-11.051,21.832-33.459,11.321-50.623L494.71-14.173
				H635.224z"/>
			
				<linearGradient id="SVGID_00000034080879194237783780000013039817730331030424_" gradientUnits="userSpaceOnUse" x1="67.7516" y1="-20.1781" x2="-34.643" y2="130.1915">
				<stop  offset="0" style="stop-color:#FFEE5F"/>
				<stop  offset="1" style="stop-color:#FBAD18"/>
			</linearGradient>
			<path style="fill:url(#SVGID_00000034080879194237783780000013039817730331030424_);" d="M21.91,116.143
				c4.328,5.487,6.543,12.155,6.543,18.853c0,4.969-1.222,9.97-3.686,14.526l-45.254,83.457V-14.173h78.394L17.582,85.901
				C13.503,96.026,15.159,107.56,21.91,116.143z"/>
			
				<linearGradient id="SVGID_00000123428756632829221710000016319749329655124118_" gradientUnits="userSpaceOnUse" x1="698.8498" y1="221.3994" x2="600.3088" y2="366.1099">
				<stop  offset="0" style="stop-color:#FFEE5F"/>
				<stop  offset="1" style="stop-color:#FBAD18"/>
			</linearGradient>
			<path style="fill:url(#SVGID_00000123428756632829221710000016319749329655124118_);" d="M635.224,190.303V439.37h-58.972
				l-11.948-73.384c-2.857-17.569,7.289-34.662,24.081-40.574c6.036-2.133,11.306-5.746,15.395-10.395
				c4.1-4.659,7.019-10.343,8.355-16.607L635.224,190.303z"/>
			<path style="opacity:0.44;fill:#FFFFFF;" d="M654.046,48.388c1.363-1.701,1.091-4.174-0.61-5.538
				c-1.7-1.363-4.174-1.091-5.538,0.61c-1.364,1.701-1.09,4.175,0.61,5.538C650.209,50.361,652.682,50.089,654.046,48.388z
				 M671.212,42.929c1.627-2.029,1.296-5.019-0.733-6.645c-2.049-1.643-5.018-1.297-6.645,0.732
				c-1.627,2.029-1.317,5.002,0.732,6.645C666.596,45.287,669.586,44.958,671.212,42.929z M678.637,68.099
				c1.364-1.701,1.091-4.174-0.61-5.538c-1.7-1.363-4.174-1.091-5.538,0.61c-1.363,1.701-1.09,4.175,0.61,5.538
				C674.8,70.072,677.273,69.8,678.637,68.099z M666.341,58.243c1.363-1.701,1.091-4.174-0.61-5.538
				c-1.7-1.363-4.174-1.091-5.538,0.61c-1.363,1.701-1.09,4.175,0.61,5.538C662.504,60.217,664.978,59.944,666.341,58.243z
				 M675.832,85.037c1.084-1.353,0.849-3.327-0.504-4.411c-1.352-1.084-3.33-0.884-4.414,0.469c-1.1,1.373-0.865,3.347,0.487,4.43
				C672.754,86.609,674.732,86.41,675.832,85.037z M683.508,52.784c1.627-2.029,1.296-5.019-0.733-6.645
				c-2.028-1.626-5.018-1.297-6.645,0.732c-1.626,2.029-1.296,5.019,0.732,6.645C678.892,55.142,681.882,54.814,683.508,52.784z
				 M680.651,12.089c-2.267,2.828-1.811,6.963,1.017,9.23c2.828,2.267,6.963,1.811,9.229-1.017c2.267-2.828,1.811-6.963-1.017-9.23
				C687.053,8.806,682.917,9.261,680.651,12.089z M710.92,55.538c1.906-2.378,1.523-5.847-0.855-7.752
				c-2.376-1.905-5.846-1.524-7.751,0.854c-1.906,2.378-1.523,5.847,0.854,7.752C705.545,58.296,709.015,57.915,710.92,55.538z
				 M692.946,21.944c-2.266,2.828-1.811,6.963,1.017,9.23c2.828,2.267,6.963,1.811,9.23-1.017s1.811-6.963-1.017-9.23
				C699.348,18.661,695.213,19.117,692.946,21.944z M698.625,45.682c1.906-2.377,1.523-5.847-0.855-7.752
				c-2.376-1.905-5.846-1.524-7.752,0.854c-1.906,2.378-1.522,5.847,0.854,7.751C693.25,48.441,696.719,48.06,698.625,45.682z
				 M695.804,62.64c1.627-2.029,1.296-5.019-0.733-6.645c-2.028-1.626-5.018-1.297-6.645,0.732
				c-1.627,2.029-1.296,5.019,0.732,6.645C691.187,64.998,694.177,64.669,695.804,62.64z M614.354,35.759
				c1.084-1.353,0.849-3.327-0.504-4.411c-1.352-1.083-3.33-0.884-4.414,0.469c-1.101,1.373-0.865,3.347,0.487,4.43
				C611.276,37.332,613.253,37.132,614.354,35.759z M626.649,45.615c1.084-1.353,0.849-3.326-0.504-4.411
				c-1.352-1.084-3.33-0.884-4.414,0.469c-1.1,1.373-0.865,3.347,0.487,4.43C623.571,47.187,625.549,46.987,626.649,45.615z
				 M668.355,2.233c-2.267,2.828-1.811,6.963,1.017,9.23c2.828,2.266,6.963,1.811,9.23-1.017c2.266-2.828,1.811-6.963-1.017-9.229
				C674.757-1.05,670.622-0.594,668.355,2.233z M604.863,8.966c1.364-1.701,1.091-4.174-0.61-5.538
				c-1.7-1.363-4.174-1.091-5.538,0.61c-1.363,1.701-1.09,4.175,0.61,5.538C601.026,10.939,603.499,10.667,604.863,8.966z
				 M602.058,25.904c1.084-1.353,0.849-3.327-0.504-4.411c-1.352-1.084-3.33-0.884-4.414,0.469c-1.1,1.373-0.865,3.347,0.487,4.43
				C598.98,27.476,600.958,27.277,602.058,25.904z M663.536,75.181c1.084-1.353,0.849-3.326-0.504-4.411
				c-1.352-1.084-3.33-0.884-4.414,0.469c-1.1,1.373-0.865,3.347,0.487,4.43C660.458,76.754,662.436,76.554,663.536,75.181z
				 M592.567-0.89c1.364-1.701,1.091-4.174-0.61-5.538c-1.7-1.363-4.174-1.091-5.538,0.61c-1.364,1.701-1.09,4.175,0.61,5.538
				C588.731,1.084,591.204,0.811,592.567-0.89z M651.241,65.326c1.084-1.353,0.849-3.327-0.504-4.411
				c-1.352-1.083-3.33-0.884-4.414,0.469c-1.1,1.373-0.865,3.347,0.487,4.43C648.162,66.898,650.14,66.699,651.241,65.326z
				 M641.75,38.532c1.364-1.701,1.091-4.174-0.61-5.538c-1.7-1.363-4.174-1.091-5.538,0.61c-1.363,1.701-1.09,4.175,0.61,5.538
				C637.913,40.506,640.386,40.233,641.75,38.532z M629.454,28.677c1.364-1.701,1.091-4.174-0.61-5.538
				c-1.7-1.363-4.174-1.091-5.538,0.61c-1.363,1.701-1.09,4.175,0.61,5.538C625.617,30.65,628.091,30.378,629.454,28.677z
				 M617.159,18.821c1.364-1.701,1.091-4.174-0.61-5.538c-1.7-1.363-4.174-1.091-5.538,0.61c-1.364,1.701-1.09,4.175,0.61,5.538
				C613.322,20.795,615.795,20.522,617.159,18.821z M638.945,55.47c1.084-1.353,0.849-3.327-0.504-4.411
				c-1.352-1.083-3.33-0.884-4.414,0.469c-1.1,1.373-0.865,3.347,0.487,4.43C635.867,57.043,637.845,56.843,638.945,55.47z
				 M518.793-60.023c1.363-1.701,1.091-4.174-0.61-5.538c-1.7-1.363-4.174-1.091-5.538,0.61c-1.363,1.701-1.09,4.175,0.61,5.538
				C514.957-58.049,517.43-58.322,518.793-60.023z M525.551-49.557c1.681,1.347,4.174,1.091,5.538-0.61
				c1.363-1.701,1.071-4.19-0.61-5.538c-1.7-1.363-4.174-1.091-5.538,0.61C523.578-53.394,523.851-50.92,525.551-49.557z
				 M610.59,51.961c0.903-1.127,0.72-2.789-0.407-3.692c-1.148-0.92-2.789-0.72-3.692,0.407c-0.903,1.127-0.741,2.772,0.407,3.692
				C608.025,53.271,609.687,53.088,610.59,51.961z M528.284-33.229c1.084-1.353,0.849-3.327-0.504-4.411
				c-1.352-1.084-3.33-0.884-4.414,0.469c-1.1,1.373-0.865,3.347,0.487,4.43C525.206-31.657,527.184-31.857,528.284-33.229z
				 M529.315-64.751c2.029,1.627,5.019,1.298,6.646-0.731c1.627-2.029,1.296-5.019-0.733-6.645
				c-2.028-1.626-5.018-1.297-6.645,0.732C526.956-69.366,527.287-66.377,529.315-64.751z M523.665-75.337
				c1.626-2.029,1.296-5.019-0.733-6.645c-2.028-1.626-5.018-1.297-6.645,0.732c-1.627,2.029-1.296,5.019,0.732,6.645
				C519.048-72.98,522.038-73.308,523.665-75.337z M538.781-82.44c1.906-2.378,1.523-5.847-0.855-7.752
				c-2.376-1.905-5.846-1.523-7.751,0.854c-1.906,2.377-1.523,5.847,0.854,7.751C533.406-79.681,536.876-80.062,538.781-82.44z
				 M499.929-36.738c0.903-1.127,0.72-2.789-0.407-3.692c-1.148-0.92-2.789-0.72-3.692,0.407c-0.903,1.127-0.741,2.772,0.407,3.692
				C497.364-35.428,499.026-35.611,499.929-36.738z M517.825-3.175c-0.674,0.84-0.535,2.096,0.305,2.769
				c0.841,0.674,2.095,0.536,2.769-0.305c0.69-0.861,0.536-2.095-0.305-2.769C519.754-4.153,518.515-4.035,517.825-3.175z
				 M512.204-26.899c0.903-1.127,0.741-2.772-0.386-3.675c-1.148-0.92-2.789-0.72-3.692,0.407c-0.903,1.127-0.741,2.772,0.407,3.692
				C509.66-25.573,511.301-25.773,512.204-26.899z M656.06-7.622c-2.266,2.828-1.811,6.963,1.017,9.23
				c2.828,2.266,6.963,1.811,9.23-1.017c2.267-2.828,1.811-6.963-1.017-9.23C662.461-10.905,658.326-10.45,656.06-7.622z
				 M503.693-52.941c1.084-1.353,0.849-3.327-0.504-4.411c-1.352-1.083-3.33-0.884-4.414,0.469c-1.1,1.373-0.865,3.347,0.487,4.43
				C500.615-51.368,502.592-51.568,503.693-52.941z M515.988-43.085c1.084-1.353,0.849-3.326-0.504-4.411
				c-1.352-1.084-3.33-0.884-4.414,0.469c-1.1,1.373-0.865,3.347,0.487,4.43C512.91-41.513,514.888-41.712,515.988-43.085z
				 M619.173-37.189c-2.267,2.828-1.811,6.963,1.017,9.23c2.828,2.267,6.963,1.811,9.23-1.017c2.267-2.828,1.811-6.963-1.017-9.23
				C625.575-40.472,621.439-40.016,619.173-37.189z M594.581-56.9c-2.267,2.828-1.811,6.963,1.017,9.23
				c2.828,2.267,6.963,1.811,9.23-1.017c2.267-2.828,1.811-6.963-1.017-9.23C600.983-60.183,596.848-59.727,594.581-56.9z
				 M606.877-47.044c-2.267,2.828-1.811,6.963,1.017,9.23c2.828,2.267,6.963,1.811,9.23-1.017c2.267-2.828,1.811-6.963-1.017-9.23
				C613.279-50.327,609.144-49.872,606.877-47.044z M643.764-17.478c-2.266,2.828-1.811,6.963,1.017,9.229
				c2.828,2.267,6.963,1.811,9.23-1.017c2.266-2.828,1.811-6.963-1.017-9.23C650.166-20.761,646.03-20.305,643.764-17.478z
				 M631.468-27.333c-2.267,2.828-1.811,6.963,1.017,9.23c2.828,2.267,6.963,1.811,9.23-1.017c2.267-2.828,1.811-6.963-1.017-9.229
				C637.87-30.617,633.735-30.161,631.468-27.333z M545.399-96.322c-2.267,2.828-1.811,6.963,1.017,9.23
				c2.828,2.267,6.963,1.811,9.23-1.017c2.267-2.828,1.811-6.963-1.017-9.23C551.801-99.605,547.665-99.15,545.399-96.322z
				 M557.694-86.466c-2.267,2.828-1.811,6.963,1.017,9.23c2.828,2.267,6.963,1.811,9.23-1.017c2.266-2.828,1.811-6.963-1.017-9.23
				C564.096-89.75,559.961-89.294,557.694-86.466z M543.35-97.964c2.266-2.828,1.811-6.963-1.017-9.23
				c-2.828-2.267-6.963-1.811-9.23,1.017c-2.267,2.828-1.811,6.963,1.017,9.23C536.948-94.681,541.083-95.137,543.35-97.964z
				 M569.99-76.611c-2.267,2.828-1.811,6.963,1.017,9.229c2.828,2.267,6.963,1.811,9.23-1.017c2.266-2.828,1.811-6.963-1.017-9.23
				C576.392-79.894,572.257-79.438,569.99-76.611z M582.286-66.755c-2.267,2.828-1.811,6.963,1.017,9.23
				c2.828,2.267,6.963,1.811,9.23-1.017c2.267-2.828,1.811-6.963-1.017-9.23C588.688-70.038,584.552-69.583,582.286-66.755z
				 M580.272-10.745c1.363-1.701,1.071-4.19-0.61-5.538c-1.7-1.363-4.174-1.091-5.538,0.61c-1.363,1.701-1.09,4.175,0.61,5.538
				C576.415-8.788,578.908-9.044,580.272-10.745z M508.603-10.566c0.69-0.861,0.535-2.095-0.305-2.769
				c-0.84-0.673-2.079-0.556-2.769,0.305c-0.674,0.84-0.535,2.096,0.305,2.769C506.675-9.588,507.93-9.726,508.603-10.566z
				 M560.552-45.771c1.626-2.029,1.296-5.019-0.733-6.646c-2.028-1.626-5.018-1.297-6.645,0.732
				c-1.627,2.029-1.296,5.019,0.732,6.645C555.935-43.413,558.925-43.742,560.552-45.771z M572.549,2.25
				c-1.1,1.373-0.865,3.347,0.487,4.43c1.353,1.084,3.331,0.885,4.431-0.488c1.084-1.353,0.849-3.327-0.504-4.411
				C575.611,0.698,573.633,0.898,572.549,2.25z M567.976-20.601c1.363-1.701,1.091-4.174-0.61-5.538
				c-1.7-1.363-4.174-1.091-5.538,0.61c-1.364,1.701-1.09,4.175,0.61,5.538C564.139-18.627,566.612-18.9,567.976-20.601z
				 M653.131,9.217c-1.906,2.377-1.522,5.847,0.854,7.751c2.377,1.906,5.847,1.524,7.752-0.853c1.906-2.377,1.523-5.847-0.855-7.752
				C658.507,6.458,655.037,6.84,653.131,9.217z M609.734-6.349c1.627-2.029,1.296-5.019-0.733-6.645
				c-2.028-1.626-5.018-1.297-6.645,0.732c-1.627,2.029-1.296,5.019,0.732,6.645C605.118-3.991,608.108-4.319,609.734-6.349z
				 M622.03,3.507c1.626-2.029,1.296-5.019-0.733-6.645c-2.049-1.643-5.018-1.297-6.645,0.732c-1.627,2.029-1.317,5.002,0.732,6.645
				C617.413,5.865,620.403,5.536,622.03,3.507z M589.762,16.048c1.084-1.353,0.849-3.326-0.504-4.411
				c-1.352-1.084-3.33-0.884-4.414,0.469c-1.1,1.373-0.865,3.346,0.487,4.43C586.684,17.621,588.662,17.421,589.762,16.048z
				 M572.847-35.915c1.627-2.029,1.296-5.019-0.733-6.646c-2.028-1.626-5.018-1.297-6.645,0.732
				c-1.627,2.029-1.296,5.019,0.732,6.645C568.231-33.558,571.221-33.886,572.847-35.915z M585.143-26.06
				c1.626-2.029,1.296-5.019-0.733-6.645c-2.028-1.626-5.018-1.297-6.645,0.732c-1.627,2.029-1.296,5.019,0.732,6.645
				C580.527-23.702,583.516-24.031,585.143-26.06z M597.439-16.204c1.627-2.029,1.296-5.019-0.733-6.646
				c-2.028-1.626-5.018-1.297-6.645,0.732c-1.626,2.029-1.296,5.019,0.732,6.645C592.822-13.847,595.812-14.175,597.439-16.204z
				 M717.538,41.656c-2.266,2.828-1.811,6.963,1.017,9.23c2.828,2.266,6.963,1.811,9.23-1.017c2.267-2.828,1.811-6.963-1.017-9.23
				C723.94,38.372,719.804,38.828,717.538,41.656z M524.521-17.027c0.903-1.127,0.72-2.789-0.407-3.692
				c-1.148-0.92-2.789-0.72-3.692,0.407c-0.903,1.127-0.741,2.772,0.407,3.692C521.955-15.717,523.617-15.9,524.521-17.027z
				 M545.49,19c0.69-0.861,0.535-2.095-0.305-2.769c-0.84-0.673-2.079-0.555-2.769,0.305c-0.674,0.84-0.534,2.096,0.305,2.769
				C543.562,19.979,544.816,19.841,545.49,19z M530.121,6.681c-0.674,0.84-0.555,2.079,0.305,2.769
				c0.84,0.674,2.095,0.535,2.769-0.305c0.69-0.861,0.536-2.095-0.305-2.769C532.029,5.686,530.81,5.82,530.121,6.681z
				 M634.326,13.362c1.627-2.029,1.296-5.019-0.733-6.645c-2.049-1.643-5.018-1.297-6.645,0.732
				c-1.626,2.029-1.317,5.002,0.732,6.645C629.709,15.72,632.699,15.392,634.326,13.362z M705.242,31.8
				c-2.267,2.828-1.811,6.963,1.017,9.23c2.828,2.267,6.963,1.811,9.23-1.017c2.266-2.828,1.811-6.963-1.017-9.23
				C711.644,28.517,707.509,28.972,705.242,31.8z M549.091,2.667c0.903-1.127,0.741-2.772-0.386-3.675
				c-1.148-0.92-2.789-0.72-3.692,0.407s-0.741,2.772,0.407,3.692C546.547,3.994,548.188,3.794,549.091,2.667z M570.082,38.711
				c0.69-0.86,0.535-2.095-0.305-2.769c-0.84-0.673-2.079-0.556-2.769,0.305c-0.674,0.84-0.534,2.096,0.305,2.769
				C568.153,39.69,569.408,39.552,570.082,38.711z M536.816-7.172c0.903-1.127,0.72-2.789-0.407-3.692
				c-1.148-0.92-2.789-0.72-3.692,0.407c-0.903,1.127-0.741,2.772,0.407,3.692C534.251-5.862,535.913-6.045,536.816-7.172z
				 M561.407,12.539c0.903-1.127,0.72-2.789-0.407-3.692c-1.148-0.92-2.789-0.72-3.692,0.407c-0.903,1.127-0.741,2.772,0.407,3.692
				C558.842,13.849,560.504,13.666,561.407,12.539z M665.427,19.073c-1.906,2.377-1.523,5.847,0.854,7.752
				c2.378,1.906,5.847,1.524,7.753-0.853c1.906-2.377,1.523-5.847-0.855-7.752C670.802,16.314,667.333,16.695,665.427,19.073z
				 M540.58-23.374c1.084-1.353,0.849-3.327-0.504-4.411c-1.352-1.083-3.329-0.884-4.414,0.469c-1.1,1.373-0.865,3.347,0.487,4.43
				C537.502-21.802,539.479-22.001,540.58-23.374z M678.577,36.68c2.378,1.906,5.847,1.524,7.753-0.853
				c1.906-2.377,1.523-5.847-0.855-7.752c-2.376-1.905-5.846-1.524-7.751,0.854C675.817,31.306,676.2,34.775,678.577,36.68z
				 M548.444-13.03c1.353,1.084,3.331,0.885,4.431-0.488c1.084-1.353,0.849-3.326-0.504-4.411c-1.352-1.083-3.329-0.884-4.414,0.469
				C546.857-16.088,547.093-14.114,548.444-13.03z M537.237-45.24c-1.363,1.701-1.09,4.175,0.61,5.538
				c1.701,1.364,4.174,1.091,5.538-0.61c1.363-1.701,1.091-4.174-0.61-5.538C541.075-47.212,538.6-46.941,537.237-45.24z
				 M646.621,23.218c1.627-2.029,1.296-5.019-0.733-6.645c-2.049-1.643-5.018-1.297-6.645,0.732
				c-1.627,2.029-1.317,5.002,0.732,6.645C642.005,25.576,644.995,25.247,646.621,23.218z M549.533-35.384
				c-1.364,1.701-1.09,4.175,0.61,5.538c1.681,1.347,4.174,1.091,5.538-0.61c1.364-1.701,1.071-4.19-0.61-5.538
				C553.37-37.357,550.896-37.085,549.533-35.384z M582.377,48.567c0.69-0.861,0.535-2.095-0.305-2.769
				c-0.861-0.69-2.079-0.556-2.769,0.305c-0.674,0.84-0.555,2.079,0.305,2.769C580.449,49.545,581.703,49.407,582.377,48.567z
				 M598.294,42.106c0.903-1.127,0.72-2.789-0.407-3.692c-1.148-0.92-2.789-0.72-3.692,0.407c-0.903,1.127-0.741,2.772,0.407,3.692
				C595.729,43.416,597.391,43.233,598.294,42.106z M573.703,22.395c0.903-1.127,0.72-2.789-0.407-3.692
				c-1.148-0.92-2.789-0.72-3.692,0.407c-0.903,1.127-0.741,2.772,0.407,3.692C571.138,23.705,572.8,23.522,573.703,22.395z
				 M606.969,68.278c0.69-0.861,0.535-2.095-0.305-2.769c-0.839-0.673-2.079-0.556-2.769,0.305c-0.674,0.84-0.534,2.096,0.305,2.769
				C605.04,69.256,606.295,69.118,606.969,68.278z M540.878-61.54c-1.627,2.029-1.296,5.019,0.732,6.645
				c2.029,1.627,5.019,1.298,6.646-0.731c1.626-2.029,1.296-5.019-0.733-6.645C545.495-63.897,542.505-63.569,540.878-61.54z
				 M594.673,58.422c0.69-0.861,0.536-2.095-0.305-2.769c-0.839-0.673-2.079-0.556-2.769,0.305
				c-0.674,0.841-0.534,2.096,0.305,2.769C592.744,59.401,593.999,59.263,594.673,58.422z M585.978,32.234
				c0.903-1.127,0.741-2.772-0.386-3.675c-1.148-0.92-2.789-0.72-3.692,0.407c-0.903,1.127-0.741,2.772,0.407,3.692
				C583.434,33.56,585.075,33.36,585.978,32.234z M560.253-7.605c-1.1,1.373-0.865,3.347,0.487,4.43
				c1.353,1.084,3.331,0.885,4.431-0.488c1.084-1.353,0.849-3.327-0.504-4.411C563.315-9.158,561.337-8.958,560.253-7.605z
				 M616.245-20.349c-1.906,2.377-1.523,5.847,0.854,7.751c2.377,1.906,5.847,1.524,7.752-0.853
				c1.906-2.377,1.523-5.847-0.855-7.752C621.62-23.108,618.15-22.727,616.245-20.349z M603.949-30.205
				c-1.906,2.377-1.523,5.847,0.854,7.751c2.378,1.906,5.847,1.524,7.753-0.853c1.906-2.377,1.523-5.847-0.855-7.752
				C609.324-32.964,605.855-32.582,603.949-30.205z M628.54-10.494c-1.906,2.378-1.522,5.847,0.854,7.752
				c2.377,1.906,5.847,1.525,7.753-0.853c1.906-2.378,1.523-5.847-0.855-7.752C633.915-13.253,630.446-12.871,628.54-10.494z
				 M640.836-0.638c-1.906,2.378-1.523,5.847,0.854,7.751c2.378,1.906,5.847,1.524,7.752-0.853c1.906-2.378,1.523-5.847-0.855-7.752
				C646.211-3.397,642.741-3.016,640.836-0.638z M658.917,33.073c1.627-2.029,1.296-5.019-0.733-6.645
				c-2.049-1.643-5.018-1.297-6.645,0.732c-1.627,2.029-1.317,5.002,0.732,6.645C654.3,35.431,657.29,35.103,658.917,33.073z
				 M567.062-59.771c-1.906,2.377-1.523,5.847,0.854,7.751c2.378,1.906,5.847,1.524,7.753-0.853
				c1.906-2.377,1.523-5.847-0.855-7.752C572.437-62.53,568.968-62.149,567.062-59.771z M554.766-69.627
				c-1.906,2.377-1.523,5.847,0.854,7.751c2.377,1.906,5.847,1.524,7.752-0.853c1.906-2.377,1.523-5.847-0.855-7.752
				C560.141-72.386,556.672-72.005,554.766-69.627z M542.471-79.483c-1.906,2.377-1.523,5.847,0.854,7.751
				c2.378,1.906,5.847,1.524,7.753-0.853c1.906-2.378,1.523-5.847-0.855-7.752C547.846-82.241,544.376-81.86,542.471-79.483z
				 M591.653-40.061c-1.906,2.377-1.522,5.847,0.854,7.752c2.377,1.906,5.847,1.524,7.752-0.853
				c1.906-2.377,1.523-5.847-0.855-7.752C597.028-42.819,593.559-42.438,591.653-40.061z M579.358-49.916
				c-1.906,2.377-1.523,5.847,0.854,7.751c2.378,1.906,5.847,1.525,7.752-0.853c1.906-2.377,1.523-5.847-0.855-7.752
				C584.733-52.675,581.263-52.293,579.358-49.916z M557.786,28.856c0.69-0.861,0.536-2.095-0.305-2.769
				c-0.839-0.673-2.079-0.555-2.769,0.305c-0.674,0.841-0.534,2.096,0.305,2.769C555.858,29.834,557.112,29.696,557.786,28.856z
				 M656.576,165.665c-0.229,0.286-0.164,0.71,0.123,0.94c0.266,0.213,0.694,0.185,0.923-0.102c0.229-0.286,0.164-0.71-0.102-0.923
				C657.233,165.35,656.806,165.379,656.576,165.665z M644.302,155.827c-0.229,0.286-0.186,0.693,0.081,0.906
				c0.287,0.23,0.694,0.185,0.923-0.102c0.229-0.286,0.185-0.693-0.102-0.923C644.938,155.495,644.531,155.54,644.302,155.827z
				 M635.094,129.227c-0.345,0.43-0.26,1.038,0.17,1.382c0.431,0.346,1.042,0.297,1.388-0.133c0.345-0.43,0.26-1.038-0.172-1.383
				C636.05,128.747,635.438,128.796,635.094,129.227z M647.41,139.099c-0.345,0.43-0.281,1.021,0.149,1.366
				c0.431,0.346,1.022,0.28,1.366-0.151c0.345-0.43,0.281-1.021-0.151-1.366C648.345,138.603,647.755,138.669,647.41,139.099z
				 M615.211,92.388c-0.574-0.46-1.401-0.351-1.846,0.203c-0.46,0.574-0.371,1.386,0.203,1.846c0.553,0.444,1.385,0.371,1.846-0.203
				C615.859,93.679,615.764,92.831,615.211,92.388z M627.507,102.243c-0.574-0.46-1.402-0.351-1.846,0.203
				c-0.46,0.574-0.371,1.386,0.203,1.846c0.553,0.443,1.386,0.371,1.846-0.203C628.154,103.535,628.06,102.687,627.507,102.243z
				 M631.255,85.22c-0.861-0.69-2.079-0.555-2.769,0.305c-0.674,0.841-0.556,2.079,0.305,2.769c0.862,0.691,2.095,0.535,2.769-0.305
				C632.25,87.128,632.116,85.91,631.255,85.22z M618.959,75.364c-0.84-0.673-2.079-0.556-2.769,0.305
				c-0.674,0.84-0.534,2.096,0.305,2.769c0.841,0.674,2.095,0.535,2.769-0.305C619.954,77.273,619.8,76.038,618.959,75.364z
				 M650.252,122.158c-0.46,0.574-0.371,1.386,0.203,1.846c0.553,0.443,1.365,0.354,1.825-0.22c0.444-0.554,0.371-1.386-0.182-1.829
				C651.524,121.494,650.696,121.603,650.252,122.158z M639.802,112.099c-0.574-0.46-1.402-0.351-1.846,0.203
				c-0.46,0.574-0.371,1.385,0.203,1.846c0.553,0.444,1.386,0.371,1.846-0.203C640.45,113.391,640.356,112.543,639.802,112.099z
				 M659.685,148.938c-0.345,0.43-0.26,1.038,0.171,1.383c0.431,0.346,1.043,0.296,1.387-0.134c0.345-0.43,0.26-1.038-0.172-1.383
				C660.641,148.458,660.03,148.507,659.685,148.938z M629.159,162.875c-0.114,0.142-0.09,0.365,0.053,0.48
				c0.144,0.115,0.346,0.073,0.459-0.069c0.116-0.144,0.095-0.328-0.049-0.443C629.48,162.728,629.275,162.731,629.159,162.875z
				 M578.324,62.821c-0.574-0.46-1.402-0.351-1.846,0.203c-0.46,0.574-0.371,1.386,0.203,1.846c0.553,0.444,1.386,0.371,1.846-0.203
				C578.972,64.113,578.878,63.265,578.324,62.821z M598.206,99.66c-0.345,0.43-0.26,1.038,0.171,1.382
				c0.431,0.346,1.042,0.297,1.387-0.134c0.345-0.43,0.26-1.038-0.172-1.383C599.163,99.18,598.551,99.23,598.206,99.66z
				 M619.711,136.115c-0.229,0.286-0.185,0.693,0.102,0.923c0.266,0.213,0.694,0.184,0.923-0.102
				c0.229-0.286,0.164-0.71-0.102-0.923C620.346,135.784,619.94,135.829,619.711,136.115z M622.479,58.125
				c-1.148-0.92-2.789-0.72-3.692,0.407c-0.903,1.127-0.741,2.772,0.407,3.692c1.127,0.903,2.768,0.703,3.671-0.424
				C623.768,60.674,623.606,59.028,622.479,58.125z M607.415,126.26c-0.229,0.286-0.185,0.693,0.102,0.923
				c0.266,0.213,0.694,0.185,0.923-0.102c0.229-0.286,0.164-0.71-0.102-0.923C608.051,125.928,607.644,125.974,607.415,126.26z
				 M602.915,82.532c-0.574-0.46-1.402-0.351-1.846,0.203c-0.46,0.574-0.371,1.385,0.203,1.846c0.553,0.444,1.386,0.371,1.846-0.203
				C603.563,83.824,603.469,82.976,602.915,82.532z M622.819,119.388c-0.345,0.43-0.281,1.021,0.149,1.366
				c0.431,0.346,1.042,0.296,1.387-0.134s0.26-1.038-0.172-1.383C623.754,118.892,623.164,118.957,622.819,119.388z
				 M641.476,172.747c-0.114,0.142-0.111,0.348,0.032,0.463c0.144,0.115,0.367,0.09,0.48-0.052c0.116-0.144,0.074-0.345-0.07-0.46
				C641.775,172.583,641.591,172.603,641.476,172.747z M632.006,145.971c-0.229,0.286-0.185,0.693,0.102,0.923
				c0.266,0.213,0.693,0.184,0.923-0.102c0.229-0.286,0.165-0.71-0.102-0.923C632.642,145.639,632.236,145.685,632.006,145.971z
				 M590.62,72.677c-0.574-0.46-1.402-0.351-1.846,0.203c-0.46,0.574-0.371,1.386,0.203,1.846c0.553,0.444,1.386,0.371,1.846-0.203
				C591.267,73.968,591.173,73.12,590.62,72.677z M610.523,109.532c-0.345,0.43-0.281,1.021,0.149,1.366
				c0.431,0.346,1.021,0.28,1.366-0.151c0.345-0.43,0.281-1.021-0.15-1.366C611.458,109.036,610.868,109.102,610.523,109.532z
				 M667.97,97.954c-0.903,1.127-0.741,2.772,0.407,3.692c1.127,0.903,2.789,0.72,3.692-0.407c0.903-1.127,0.72-2.789-0.407-3.692
				C670.514,96.627,668.873,96.827,667.97,97.954z M692.561,117.665c-0.903,1.127-0.741,2.772,0.407,3.692
				c1.127,0.903,2.768,0.703,3.671-0.424c0.903-1.127,0.741-2.772-0.386-3.675C695.105,116.338,693.464,116.538,692.561,117.665z
				 M702.618,82.272c-1.7-1.363-4.174-1.091-5.538,0.61c-1.364,1.701-1.09,4.175,0.61,5.538c1.701,1.363,4.174,1.091,5.538-0.61
				C704.592,86.109,704.319,83.636,702.618,82.272z M709.376,92.738c-1.364,1.701-1.09,4.175,0.61,5.538
				c1.681,1.348,4.174,1.091,5.538-0.61c1.363-1.701,1.071-4.19-0.61-5.538C713.214,90.765,710.74,91.037,709.376,92.738z
				 M683.209,90.95c-1.1,1.373-0.865,3.347,0.487,4.43c1.353,1.084,3.331,0.885,4.431-0.488c1.084-1.353,0.849-3.327-0.504-4.411
				C686.271,89.398,684.294,89.597,683.209,90.95z M695.505,100.806c-1.101,1.373-0.865,3.346,0.487,4.43
				c1.353,1.084,3.331,0.885,4.431-0.488c1.084-1.353,0.849-3.326-0.504-4.411C698.567,99.253,696.589,99.453,695.505,100.806z
				 M690.322,72.417c-1.7-1.363-4.174-1.091-5.538,0.61c-1.363,1.701-1.09,4.175,0.61,5.538c1.701,1.363,4.174,1.091,5.538-0.61
				C692.296,76.253,692.024,73.78,690.322,72.417z M496.308-20.422c0.69-0.86,0.535-2.095-0.305-2.769
				c-0.84-0.673-2.079-0.556-2.769,0.305c-0.674,0.84-0.535,2.096,0.305,2.769C494.379-19.443,495.634-19.581,496.308-20.422z
				 M739.063,50.494c-2.828-2.267-6.963-1.811-9.23,1.017c-2.267,2.828-1.811,6.963,1.017,9.23c2.828,2.266,6.963,1.811,9.23-1.017
				C742.346,56.896,741.891,52.761,739.063,50.494z M726.905,68.35c-1.906,2.378-1.523,5.847,0.854,7.752
				c2.377,1.906,5.847,1.524,7.753-0.853c1.906-2.377,1.523-5.847-0.855-7.752C732.28,65.591,728.811,65.973,726.905,68.35z
				 M643.55,95.075c-0.84-0.673-2.079-0.556-2.769,0.305c-0.674,0.84-0.534,2.096,0.305,2.769c0.841,0.674,2.095,0.535,2.769-0.305
				C644.545,96.984,644.391,95.749,643.55,95.075z M722.361,57.641c-2.376-1.905-5.846-1.524-7.752,0.854
				c-1.906,2.377-1.523,5.847,0.854,7.751c2.378,1.906,5.847,1.524,7.753-0.853C725.122,63.016,724.739,59.547,722.361,57.641z
				 M713.017,76.438c-1.627,2.029-1.296,5.019,0.732,6.645c2.029,1.627,5.019,1.298,6.646-0.731
				c1.627-2.029,1.296-5.019-0.733-6.645C717.634,74.08,714.644,74.408,713.017,76.438z M647.07,77.836
				c-1.148-0.92-2.789-0.72-3.692,0.407c-0.903,1.127-0.741,2.772,0.407,3.692c1.127,0.903,2.789,0.72,3.692-0.407
				C648.38,80.401,648.197,78.739,647.07,77.836z M655.846,104.931c-0.84-0.673-2.079-0.556-2.769,0.305
				c-0.674,0.84-0.535,2.096,0.305,2.769c0.841,0.674,2.095,0.535,2.769-0.305C656.841,106.839,656.687,105.605,655.846,104.931z
				 M674.843,141.869c-0.46,0.574-0.371,1.385,0.182,1.829c0.574,0.46,1.406,0.388,1.867-0.187c0.444-0.554,0.35-1.402-0.224-1.863
				C676.115,141.205,675.288,141.314,674.843,141.869z M680.265,107.809c-0.903,1.127-0.741,2.772,0.407,3.692
				c1.127,0.903,2.789,0.72,3.692-0.407c0.903-1.127,0.72-2.789-0.407-3.692C682.81,106.483,681.168,106.683,680.265,107.809z
				 M634.775,67.981c-1.148-0.92-2.789-0.72-3.692,0.407c-0.903,1.127-0.741,2.772,0.407,3.692c1.127,0.903,2.789,0.72,3.692-0.407
				C636.084,70.546,635.901,68.884,634.775,67.981z M662.548,132.013c-0.46,0.574-0.371,1.386,0.203,1.846
				c0.553,0.443,1.386,0.371,1.846-0.203c0.444-0.554,0.35-1.402-0.203-1.846C663.819,131.35,662.992,131.459,662.548,132.013z
				 M665.373,115.091c-0.674,0.841-0.535,2.096,0.305,2.769c0.841,0.674,2.095,0.536,2.769-0.305c0.69-0.86,0.536-2.095-0.305-2.769
				C667.302,114.114,666.063,114.231,665.373,115.091z M585.932,89.821c-0.345,0.43-0.281,1.021,0.15,1.366
				c0.431,0.346,1.043,0.297,1.387-0.134c0.345-0.43,0.26-1.038-0.172-1.383C586.867,89.325,586.277,89.391,585.932,89.821z
				 M677.668,124.947c-0.674,0.84-0.555,2.079,0.305,2.769c0.862,0.691,2.095,0.536,2.769-0.305c0.69-0.86,0.557-2.078-0.305-2.769
				C679.577,123.952,678.358,124.086,677.668,124.947z M659.366,87.692c-1.148-0.92-2.789-0.72-3.692,0.407
				c-0.903,1.127-0.741,2.772,0.407,3.692c1.127,0.903,2.768,0.703,3.671-0.424C660.655,90.24,660.493,88.595,659.366,87.692z
				 M707.366,65.85c-2.028-1.626-5.018-1.297-6.645,0.732c-1.627,2.029-1.296,5.019,0.732,6.645
				c2.029,1.627,5.019,1.298,6.646-0.731C709.726,70.466,709.396,67.477,707.366,65.85z M566.029,52.966
				c-0.574-0.46-1.423-0.368-1.867,0.187c-0.46,0.574-0.35,1.402,0.224,1.863c0.553,0.444,1.385,0.371,1.846-0.203
				C566.676,54.257,566.582,53.409,566.029,52.966z M530.815,84.048c-0.114,0.142-0.111,0.348,0.032,0.463
				c0.144,0.116,0.367,0.09,0.481-0.052c0.116-0.144,0.074-0.345-0.07-0.46C531.114,83.883,530.931,83.904,530.815,84.048z
				 M509.05,47.416c-0.229,0.286-0.185,0.693,0.081,0.906c0.287,0.23,0.694,0.185,0.923-0.102c0.229-0.286,0.186-0.693-0.102-0.923
				C509.686,47.084,509.279,47.13,509.05,47.416z M518.498,74.175c-0.114,0.142-0.09,0.365,0.053,0.48
				c0.144,0.115,0.346,0.073,0.459-0.069c0.116-0.144,0.095-0.328-0.049-0.443C518.819,74.028,518.614,74.031,518.498,74.175z
				 M496.754,37.56c-0.229,0.286-0.185,0.693,0.102,0.923c0.266,0.213,0.694,0.185,0.923-0.102c0.229-0.286,0.164-0.71-0.102-0.923
				C497.39,37.228,496.983,37.274,496.754,37.56z M543.111,93.903c-0.114,0.142-0.111,0.348,0.032,0.463
				c0.144,0.116,0.346,0.073,0.46-0.069c0.115-0.144,0.095-0.328-0.049-0.443C543.41,93.739,543.226,93.759,543.111,93.903z
				 M492.255-6.167c-0.574-0.46-1.402-0.351-1.846,0.203c-0.46,0.574-0.371,1.386,0.203,1.846c0.553,0.444,1.385,0.371,1.846-0.203
				C492.902-4.876,492.808-5.724,492.255-6.167z M479.959-16.023c-0.574-0.46-1.401-0.351-1.846,0.203
				c-0.46,0.574-0.371,1.386,0.203,1.846c0.553,0.444,1.385,0.371,1.846-0.203C480.607-14.731,480.512-15.579,479.959-16.023z
				 M475.271,1.122c-0.345,0.43-0.281,1.021,0.15,1.366c0.431,0.346,1.021,0.28,1.366-0.15c0.345-0.43,0.281-1.021-0.151-1.367
				C476.206,0.625,475.616,0.691,475.271,1.122z M499.841,20.816c-0.345,0.43-0.26,1.038,0.171,1.382
				c0.431,0.346,1.022,0.28,1.366-0.151c0.345-0.43,0.281-1.021-0.151-1.366C500.797,20.336,500.186,20.385,499.841,20.816z
				 M521.324,57.254c-0.229,0.286-0.164,0.71,0.123,0.94c0.266,0.213,0.694,0.185,0.923-0.102c0.229-0.286,0.164-0.71-0.102-0.923
				C521.981,56.939,521.554,56.968,521.324,57.254z M481.632,44.626c-0.114,0.142-0.111,0.348,0.032,0.463
				c0.144,0.115,0.367,0.09,0.481-0.052c0.115-0.144,0.074-0.345-0.07-0.46C481.932,44.461,481.748,44.482,481.632,44.626z
				 M457.041,24.915c-0.114,0.142-0.111,0.348,0.032,0.463c0.144,0.116,0.367,0.09,0.48-0.052c0.116-0.144,0.074-0.345-0.07-0.46
				C457.341,24.75,457.157,24.771,457.041,24.915z M459.867,7.994c-0.229,0.286-0.186,0.693,0.102,0.923
				c0.266,0.213,0.694,0.184,0.923-0.102c0.229-0.286,0.164-0.71-0.102-0.923C460.503,7.662,460.097,7.707,459.867,7.994z
				 M469.316,34.753c-0.114,0.142-0.09,0.365,0.053,0.479c0.144,0.116,0.346,0.073,0.46-0.069c0.116-0.144,0.095-0.328-0.049-0.444
				C469.636,34.606,469.431,34.609,469.316,34.753z M444.746,15.059c-0.114,0.142-0.111,0.348,0.032,0.463
				c0.144,0.115,0.367,0.09,0.48-0.052c0.116-0.144,0.074-0.345-0.07-0.46C445.045,14.895,444.861,14.915,444.746,15.059z
				 M484.012-30.278c0.69-0.861,0.535-2.095-0.305-2.769c-0.84-0.673-2.079-0.556-2.769,0.305c-0.674,0.841-0.534,2.096,0.305,2.769
				C482.084-29.299,483.338-29.437,484.012-30.278z M472.163,17.849c-0.229,0.286-0.185,0.693,0.102,0.923
				c0.266,0.213,0.694,0.184,0.923-0.102c0.229-0.286,0.164-0.71-0.102-0.923C472.799,17.517,472.392,17.563,472.163,17.849z
				 M484.458,27.705c-0.229,0.286-0.186,0.693,0.102,0.923c0.266,0.213,0.694,0.184,0.923-0.102c0.229-0.286,0.164-0.71-0.102-0.923
				C485.094,27.373,484.688,27.419,484.458,27.705z M462.954-8.751c-0.345,0.43-0.26,1.038,0.171,1.383
				c0.431,0.346,1.042,0.297,1.387-0.134c0.345-0.43,0.26-1.038-0.171-1.383C463.911-9.23,463.299-9.181,462.954-8.751z
				 M512.158,30.688c-0.345,0.43-0.281,1.021,0.15,1.366c0.431,0.346,1.022,0.28,1.366-0.15c0.345-0.43,0.281-1.021-0.151-1.367
				C513.093,30.192,512.503,30.258,512.158,30.688z M506.224,64.337c-0.114,0.142-0.111,0.348,0.032,0.463
				c0.144,0.115,0.367,0.09,0.48-0.052c0.115-0.144,0.074-0.345-0.07-0.46C506.523,64.172,506.339,64.193,506.224,64.337z
				 M493.907,54.464c-0.114,0.142-0.09,0.365,0.053,0.479c0.144,0.115,0.346,0.073,0.46-0.069c0.115-0.144,0.095-0.328-0.049-0.444
				C494.227,54.317,494.023,54.32,493.907,54.464z M487.567,10.977c-0.345,0.43-0.281,1.021,0.15,1.366
				c0.431,0.346,1.043,0.297,1.387-0.134c0.345-0.43,0.26-1.038-0.172-1.383C488.502,10.481,487.912,10.547,487.567,10.977z
				 M541.416,33.238c-0.553-0.444-1.381-0.334-1.825,0.22c-0.46,0.574-0.371,1.386,0.182,1.829c0.574,0.46,1.407,0.388,1.867-0.187
				C542.085,34.546,541.991,33.698,541.416,33.238z M561.319,70.093c-0.345,0.43-0.26,1.038,0.171,1.382
				c0.431,0.346,1.042,0.297,1.387-0.134c0.345-0.43,0.26-1.038-0.172-1.383C562.276,69.614,561.664,69.663,561.319,70.093z
				 M592.293,133.325c-0.114,0.142-0.111,0.348,0.032,0.463c0.144,0.115,0.367,0.09,0.481-0.052c0.116-0.144,0.074-0.345-0.07-0.46
				C592.593,133.161,592.409,133.181,592.293,133.325z M549.045,60.255c-0.345,0.43-0.281,1.021,0.149,1.366
				c0.431,0.346,1.022,0.28,1.366-0.15c0.345-0.43,0.281-1.021-0.151-1.367C549.98,59.758,549.39,59.824,549.045,60.255z
				 M582.824,106.549c-0.229,0.286-0.186,0.693,0.102,0.923c0.266,0.213,0.693,0.185,0.923-0.102
				c0.229-0.286,0.164-0.71-0.102-0.923C583.459,106.217,583.053,106.263,582.824,106.549z M570.528,96.693
				c-0.229,0.286-0.185,0.693,0.102,0.923c0.266,0.213,0.694,0.184,0.923-0.102c0.229-0.286,0.165-0.71-0.102-0.923
				C571.164,96.362,570.757,96.407,570.528,96.693z M595.119,116.404c-0.229,0.286-0.186,0.693,0.102,0.923
				c0.266,0.213,0.694,0.185,0.923-0.102c0.229-0.286,0.164-0.71-0.102-0.923C595.755,116.073,595.349,116.118,595.119,116.404z
				 M604.568,143.164c-0.114,0.142-0.09,0.365,0.053,0.48c0.144,0.115,0.346,0.073,0.459-0.069c0.115-0.144,0.095-0.328-0.049-0.444
				C604.888,143.017,604.683,143.02,604.568,143.164z M616.885,153.036c-0.114,0.142-0.111,0.348,0.032,0.463
				c0.144,0.115,0.367,0.09,0.48-0.052c0.115-0.144,0.074-0.345-0.07-0.46C617.184,152.872,617,152.892,616.885,153.036z
				 M573.636,79.966c-0.345,0.43-0.281,1.021,0.15,1.366c0.431,0.346,1.022,0.28,1.366-0.15c0.345-0.43,0.281-1.021-0.15-1.367
				C574.571,79.469,573.981,79.535,573.636,79.966z M553.733,43.11c-0.574-0.46-1.401-0.351-1.846,0.203
				c-0.46,0.574-0.371,1.386,0.203,1.846c0.553,0.444,1.385,0.371,1.846-0.203C554.381,44.402,554.286,43.554,553.733,43.11z
				 M536.728,50.382c-0.345,0.43-0.26,1.038,0.171,1.382c0.431,0.346,1.021,0.28,1.366-0.151c0.345-0.43,0.281-1.021-0.15-1.366
				C537.685,49.903,537.073,49.952,536.728,50.382z M567.702,113.614c-0.114,0.142-0.111,0.348,0.032,0.463
				c0.144,0.116,0.367,0.09,0.481-0.052c0.115-0.144,0.074-0.345-0.07-0.46C568.001,113.45,567.818,113.47,567.702,113.614z
				 M545.937,76.982c-0.229,0.286-0.186,0.693,0.102,0.923c0.266,0.213,0.694,0.185,0.923-0.102c0.229-0.286,0.164-0.71-0.102-0.923
				C546.573,76.65,546.166,76.696,545.937,76.982z M524.433,40.527c-0.345,0.43-0.26,1.038,0.171,1.382
				c0.431,0.346,1.043,0.297,1.387-0.134c0.345-0.43,0.26-1.038-0.172-1.383C525.389,40.047,524.778,40.097,524.433,40.527z
				 M504.55,3.688c-0.574-0.46-1.402-0.351-1.846,0.203c-0.46,0.574-0.371,1.386,0.203,1.846c0.553,0.444,1.386,0.371,1.846-0.203
				C505.198,4.98,505.104,4.132,504.55,3.688z M555.385,103.742c-0.114,0.142-0.09,0.365,0.053,0.479
				c0.144,0.116,0.346,0.073,0.46-0.069c0.115-0.144,0.095-0.328-0.049-0.443C555.706,103.594,555.501,103.598,555.385,103.742z
				 M579.977,123.453c-0.114,0.142-0.09,0.365,0.053,0.479c0.144,0.116,0.345,0.073,0.459-0.069
				c0.116-0.144,0.095-0.328-0.049-0.443C580.297,123.306,580.092,123.309,579.977,123.453z M558.232,86.838
				c-0.229,0.286-0.186,0.693,0.102,0.923c0.266,0.213,0.693,0.184,0.923-0.102c0.229-0.286,0.164-0.71-0.102-0.923
				C558.868,86.506,558.462,86.552,558.232,86.838z M529.142,23.399c-0.574-0.46-1.402-0.351-1.846,0.203
				c-0.46,0.574-0.371,1.385,0.203,1.846c0.553,0.444,1.386,0.371,1.846-0.203C529.789,24.691,529.695,23.843,529.142,23.399z
				 M516.846,13.544c-0.574-0.46-1.402-0.351-1.846,0.203c-0.46,0.574-0.371,1.386,0.203,1.846c0.553,0.443,1.365,0.354,1.825-0.22
				C517.473,14.818,517.399,13.987,516.846,13.544z M533.641,67.127c-0.229,0.286-0.186,0.693,0.102,0.923
				c0.266,0.213,0.694,0.185,0.923-0.102c0.229-0.286,0.164-0.71-0.102-0.923C534.277,66.795,533.87,66.841,533.641,67.127z"/>
			<path style="opacity:0.44;fill:#FFFFFF;" d="M-61.314,353.41c-1.363,1.701-1.091,4.174,0.61,5.538
				c1.7,1.363,4.174,1.091,5.538-0.61c1.364-1.701,1.09-4.175-0.61-5.538C-57.477,351.436-59.951,351.709-61.314,353.41z
				 M-78.481,358.869c-1.626,2.029-1.296,5.019,0.733,6.645c2.049,1.643,5.018,1.297,6.645-0.732
				c1.627-2.029,1.317-5.002-0.732-6.645C-73.865,356.511-76.855,356.84-78.481,358.869z M-85.905,333.699
				c-1.364,1.701-1.091,4.174,0.61,5.538c1.7,1.363,4.174,1.091,5.538-0.61c1.363-1.701,1.09-4.175-0.61-5.538
				C-82.069,331.725-84.542,331.998-85.905,333.699z M-73.61,343.554c-1.363,1.701-1.091,4.174,0.61,5.538
				c1.7,1.363,4.174,1.091,5.538-0.61c1.363-1.701,1.09-4.175-0.61-5.538C-69.773,341.581-72.246,341.853-73.61,343.554z
				 M-83.1,316.761c-1.084,1.353-0.849,3.327,0.504,4.411c1.352,1.084,3.329,0.884,4.414-0.469c1.1-1.373,0.865-3.347-0.487-4.43
				C-80.022,315.188-82,315.388-83.1,316.761z M-90.777,349.013c-1.627,2.029-1.296,5.019,0.733,6.645
				c2.028,1.626,5.018,1.297,6.645-0.732c1.627-2.029,1.296-5.019-0.732-6.645C-86.16,346.655-89.15,346.984-90.777,349.013z
				 M-87.919,389.709c2.267-2.828,1.811-6.963-1.017-9.23c-2.828-2.267-6.963-1.811-9.23,1.017c-2.267,2.828-1.811,6.963,1.017,9.23
				C-94.321,392.992-90.186,392.536-87.919,389.709z M-118.189,346.26c-1.906,2.378-1.523,5.847,0.855,7.752
				c2.376,1.905,5.846,1.524,7.751-0.854c1.906-2.378,1.522-5.847-0.854-7.751C-112.814,343.501-116.283,343.883-118.189,346.26z
				 M-100.215,379.853c2.267-2.828,1.811-6.963-1.017-9.23c-2.828-2.267-6.963-1.811-9.23,1.017
				c-2.267,2.828-1.811,6.963,1.017,9.23C-106.617,383.137-102.482,382.681-100.215,379.853z M-105.894,356.116
				c-1.906,2.378-1.522,5.847,0.855,7.752c2.376,1.905,5.846,1.524,7.751-0.854c1.906-2.378,1.523-5.847-0.854-7.751
				C-100.518,353.357-103.988,353.738-105.894,356.116z M-103.072,339.158c-1.627,2.029-1.296,5.019,0.733,6.645
				c2.028,1.626,5.018,1.297,6.645-0.732c1.626-2.029,1.296-5.019-0.732-6.645C-98.456,336.8-101.446,337.128-103.072,339.158z
				 M-21.622,366.039c-1.084,1.353-0.849,3.327,0.504,4.411c1.352,1.083,3.33,0.884,4.414-0.469c1.101-1.373,0.865-3.347-0.487-4.43
				C-18.544,364.466-20.522,364.666-21.622,366.039z M-33.918,356.183c-1.084,1.353-0.849,3.327,0.504,4.411
				c1.352,1.084,3.33,0.884,4.414-0.469c1.1-1.373,0.865-3.347-0.487-4.43C-30.84,354.611-32.818,354.81-33.918,356.183z
				 M-75.624,399.564c2.267-2.828,1.811-6.963-1.017-9.23c-2.828-2.266-6.963-1.811-9.23,1.017c-2.267,2.828-1.811,6.963,1.017,9.23
				C-82.026,402.848-77.89,402.392-75.624,399.564z M-12.132,392.832c-1.363,1.701-1.091,4.174,0.61,5.538
				c1.7,1.363,4.174,1.091,5.538-0.61c1.363-1.701,1.09-4.175-0.61-5.538C-8.295,390.858-10.768,391.131-12.132,392.832z
				 M-9.327,375.894c-1.084,1.353-0.849,3.327,0.504,4.411c1.352,1.084,3.33,0.884,4.414-0.469c1.1-1.373,0.865-3.347-0.487-4.43
				C-6.248,374.322-8.226,374.521-9.327,375.894z M-70.805,326.616c-1.084,1.353-0.849,3.327,0.504,4.411
				c1.352,1.083,3.329,0.884,4.414-0.469c1.101-1.373,0.865-3.347-0.487-4.43C-67.727,325.044-69.704,325.243-70.805,326.616z
				 M0.164,402.687c-1.363,1.701-1.091,4.174,0.61,5.538c1.7,1.363,4.174,1.091,5.538-0.61c1.363-1.701,1.09-4.175-0.61-5.538
				C4.001,400.714,1.528,400.986,0.164,402.687z M-58.509,336.472c-1.084,1.353-0.849,3.327,0.504,4.411
				c1.352,1.084,3.33,0.884,4.414-0.469c1.1-1.373,0.865-3.347-0.487-4.43C-55.431,334.9-57.409,335.099-58.509,336.472z
				 M-49.019,363.265c-1.363,1.701-1.091,4.174,0.61,5.538c1.7,1.363,4.174,1.091,5.538-0.61c1.364-1.701,1.09-4.175-0.61-5.538
				C-45.182,361.292-47.655,361.564-49.019,363.265z M-36.723,373.121c-1.363,1.701-1.091,4.174,0.61,5.538
				c1.7,1.363,4.174,1.091,5.538-0.61c1.364-1.701,1.09-4.175-0.61-5.538C-32.886,371.147-35.359,371.42-36.723,373.121z
				 M-24.427,382.976c-1.364,1.701-1.091,4.174,0.61,5.538c1.7,1.363,4.174,1.091,5.538-0.61c1.364-1.701,1.09-4.175-0.61-5.538
				C-20.59,381.003-23.064,381.275-24.427,382.976z M-46.214,346.327c-1.084,1.353-0.849,3.327,0.504,4.411
				c1.352,1.084,3.33,0.884,4.414-0.469c1.1-1.373,0.865-3.347-0.487-4.43C-43.135,344.755-45.113,344.955-46.214,346.327z
				 M73.938,461.82c-1.363,1.701-1.091,4.174,0.61,5.538c1.7,1.363,4.174,1.091,5.538-0.61c1.364-1.701,1.09-4.175-0.61-5.538
				C77.775,459.847,75.301,460.12,73.938,461.82z M67.18,451.355c-1.681-1.348-4.174-1.091-5.538,0.61
				c-1.363,1.701-1.071,4.19,0.61,5.538c1.7,1.363,4.174,1.091,5.538-0.61C69.154,455.192,68.88,452.718,67.18,451.355z
				 M-17.859,349.836c-0.903,1.127-0.72,2.789,0.407,3.692c1.148,0.92,2.789,0.72,3.692-0.407c0.903-1.127,0.741-2.772-0.407-3.692
				C-15.293,348.526-16.955,348.709-17.859,349.836z M64.447,435.027c-1.084,1.353-0.849,3.327,0.504,4.411
				c1.352,1.084,3.329,0.884,4.414-0.469c1.101-1.373,0.865-3.347-0.487-4.43C67.525,433.455,65.548,433.654,64.447,435.027z
				 M63.417,466.548c-2.029-1.626-5.019-1.298-6.646,0.731s-1.296,5.019,0.733,6.645c2.028,1.626,5.018,1.297,6.645-0.732
				C65.775,471.164,65.445,468.174,63.417,466.548z M69.067,477.135c-1.627,2.029-1.296,5.019,0.733,6.645
				c2.028,1.626,5.018,1.297,6.645-0.732c1.626-2.029,1.296-5.019-0.732-6.645C73.683,474.777,70.693,475.106,69.067,477.135z
				 M53.95,484.237c-1.906,2.377-1.523,5.847,0.855,7.752c2.376,1.905,5.846,1.524,7.751-0.854c1.906-2.378,1.523-5.846-0.854-7.751
				C59.325,481.479,55.856,481.86,53.95,484.237z M92.802,438.536c-0.903,1.127-0.72,2.789,0.407,3.692
				c1.148,0.92,2.789,0.72,3.692-0.407c0.903-1.127,0.741-2.772-0.407-3.692C95.367,437.226,93.705,437.409,92.802,438.536z
				 M74.906,404.973c0.674-0.841,0.534-2.096-0.305-2.769c-0.84-0.674-2.095-0.535-2.769,0.305c-0.69,0.861-0.536,2.095,0.305,2.769
				C72.977,405.95,74.217,405.833,74.906,404.973z M80.527,428.697c-0.903,1.127-0.741,2.772,0.386,3.675
				c1.148,0.92,2.789,0.72,3.692-0.407c0.903-1.127,0.741-2.772-0.407-3.692C83.072,427.371,81.431,427.57,80.527,428.697z
				 M-63.328,409.42c2.267-2.828,1.811-6.963-1.017-9.23c-2.828-2.267-6.963-1.811-9.23,1.017c-2.267,2.828-1.811,6.963,1.017,9.23
				C-69.73,412.703-65.595,412.247-63.328,409.42z M89.039,454.738c-1.084,1.353-0.849,3.327,0.504,4.411
				c1.352,1.083,3.33,0.884,4.414-0.469c1.1-1.373,0.865-3.347-0.487-4.43C92.117,453.166,90.139,453.365,89.039,454.738z
				 M76.743,444.883c-1.084,1.353-0.849,3.327,0.504,4.411c1.352,1.084,3.33,0.884,4.414-0.469c1.1-1.373,0.865-3.347-0.487-4.43
				C79.821,443.31,77.843,443.51,76.743,444.883z M-26.441,438.986c2.267-2.828,1.811-6.963-1.017-9.23
				c-2.828-2.266-6.963-1.811-9.23,1.017c-2.267,2.828-1.811,6.963,1.017,9.23C-32.843,442.27-28.708,441.814-26.441,438.986z
				 M-1.85,458.697c2.266-2.828,1.811-6.963-1.017-9.23c-2.828-2.267-6.963-1.811-9.23,1.017c-2.267,2.828-1.811,6.963,1.017,9.23
				C-8.252,461.981-4.117,461.525-1.85,458.697z M-14.146,448.842c2.267-2.828,1.811-6.963-1.017-9.23
				c-2.828-2.267-6.963-1.811-9.23,1.017c-2.267,2.828-1.811,6.963,1.017,9.23C-20.548,452.125-16.412,451.67-14.146,448.842z
				 M-51.033,419.275c2.267-2.828,1.811-6.963-1.017-9.23c-2.828-2.267-6.963-1.811-9.23,1.017c-2.267,2.828-1.811,6.963,1.017,9.23
				S-53.299,422.103-51.033,419.275z M-38.737,429.131c2.266-2.828,1.811-6.963-1.017-9.23c-2.828-2.266-6.963-1.811-9.23,1.017
				c-2.267,2.828-1.811,6.963,1.017,9.23C-45.139,432.414-41.004,431.958-38.737,429.131z M47.333,498.119
				c2.267-2.828,1.811-6.963-1.017-9.23c-2.828-2.267-6.963-1.811-9.23,1.017c-2.267,2.828-1.811,6.963,1.017,9.23
				C40.931,501.403,45.066,500.947,47.333,498.119z M35.037,488.264c2.267-2.828,1.811-6.963-1.017-9.23
				c-2.828-2.267-6.963-1.811-9.23,1.017c-2.267,2.828-1.811,6.963,1.017,9.23C28.635,491.547,32.77,491.092,35.037,488.264z
				 M49.382,499.762c-2.267,2.828-1.811,6.963,1.017,9.23s6.963,1.811,9.23-1.017c2.267-2.828,1.811-6.963-1.017-9.23
				C55.784,496.479,51.648,496.934,49.382,499.762z M22.741,478.408c2.267-2.828,1.811-6.963-1.017-9.23
				c-2.828-2.267-6.963-1.811-9.23,1.017c-2.266,2.828-1.811,6.963,1.017,9.23C16.339,481.692,20.475,481.236,22.741,478.408z
				 M10.446,468.553c2.266-2.828,1.811-6.963-1.017-9.23c-2.828-2.267-6.963-1.811-9.23,1.017c-2.267,2.828-1.811,6.963,1.017,9.23
				C4.044,471.836,8.179,471.381,10.446,468.553z M12.46,412.543c-1.364,1.701-1.071,4.19,0.61,5.538
				c1.7,1.363,4.174,1.091,5.538-0.61c1.364-1.701,1.09-4.175-0.61-5.538C16.316,410.586,13.823,410.842,12.46,412.543z
				 M84.128,412.364c-0.69,0.861-0.535,2.095,0.305,2.769c0.84,0.673,2.079,0.556,2.769-0.305c0.674-0.841,0.535-2.096-0.305-2.769
				C86.056,411.385,84.802,411.524,84.128,412.364z M32.18,447.569c-1.627,2.029-1.296,5.019,0.733,6.645
				c2.028,1.626,5.018,1.297,6.645-0.732c1.626-2.029,1.296-5.019-0.732-6.645C36.796,445.211,33.806,445.539,32.18,447.569z
				 M20.183,399.547c1.1-1.373,0.865-3.347-0.487-4.43c-1.353-1.084-3.331-0.885-4.431,0.488c-1.084,1.353-0.849,3.327,0.504,4.411
				C17.121,401.1,19.098,400.9,20.183,399.547z M24.755,422.398c-1.363,1.701-1.091,4.174,0.61,5.538
				c1.7,1.363,4.174,1.091,5.538-0.61c1.364-1.701,1.09-4.175-0.61-5.538C28.592,420.425,26.119,420.697,24.755,422.398z
				 M-60.4,392.581c1.906-2.378,1.523-5.846-0.854-7.751c-2.377-1.906-5.847-1.524-7.752,0.853s-1.523,5.846,0.855,7.752
				C-65.775,395.339-62.306,394.958-60.4,392.581z M-17.003,408.146c-1.627,2.029-1.296,5.019,0.733,6.645
				c2.028,1.626,5.018,1.297,6.644-0.732c1.627-2.029,1.296-5.019-0.732-6.645C-12.387,405.789-15.376,406.117-17.003,408.146z
				 M-29.299,398.291c-1.626,2.029-1.296,5.019,0.733,6.645c2.049,1.643,5.018,1.297,6.645-0.732
				c1.627-2.029,1.317-5.002-0.732-6.645C-24.682,395.933-27.672,396.262-29.299,398.291z M2.969,385.75
				c-1.084,1.353-0.849,3.327,0.504,4.411c1.352,1.084,3.33,0.884,4.414-0.469c1.1-1.373,0.865-3.347-0.487-4.43
				C6.047,384.177,4.069,384.377,2.969,385.75z M19.884,437.713c-1.627,2.029-1.296,5.019,0.733,6.645
				c2.028,1.626,5.018,1.297,6.645-0.732c1.627-2.029,1.296-5.019-0.732-6.645C24.5,435.355,21.511,435.684,19.884,437.713z
				 M7.588,427.857c-1.626,2.029-1.296,5.019,0.733,6.645c2.028,1.626,5.018,1.297,6.645-0.732c1.626-2.029,1.296-5.019-0.732-6.645
				C12.205,425.5,9.215,425.828,7.588,427.857z M-4.707,418.002c-1.627,2.029-1.296,5.019,0.733,6.645
				c2.028,1.626,5.018,1.297,6.645-0.732c1.627-2.029,1.296-5.019-0.732-6.645C-0.091,415.644-3.081,415.973-4.707,418.002z
				 M-124.806,360.142c2.266-2.828,1.811-6.963-1.017-9.23c-2.828-2.267-6.963-1.811-9.23,1.017s-1.811,6.963,1.017,9.23
				C-131.208,363.426-127.073,362.97-124.806,360.142z M68.211,418.825c-0.903,1.127-0.72,2.789,0.407,3.692
				c1.148,0.92,2.789,0.72,3.692-0.407c0.903-1.127,0.741-2.772-0.407-3.692C70.776,417.515,69.114,417.698,68.211,418.825z
				 M47.241,382.798c-0.69,0.861-0.535,2.095,0.305,2.769c0.84,0.673,2.079,0.555,2.769-0.305c0.674-0.841,0.535-2.096-0.305-2.769
				C49.169,381.819,47.915,381.957,47.241,382.798z M62.611,395.117c0.674-0.841,0.556-2.079-0.305-2.769
				c-0.84-0.674-2.095-0.535-2.769,0.305c-0.69,0.86-0.535,2.095,0.305,2.769C60.702,396.112,61.921,395.977,62.611,395.117z
				 M-41.594,388.435c-1.626,2.029-1.296,5.019,0.733,6.645c2.049,1.643,5.018,1.297,6.645-0.732
				c1.627-2.029,1.317-5.002-0.732-6.645C-36.978,386.078-39.968,386.406-41.594,388.435z M-112.511,369.998
				c2.267-2.828,1.811-6.963-1.017-9.23c-2.828-2.267-6.963-1.811-9.23,1.017c-2.266,2.828-1.811,6.963,1.017,9.23
				C-118.913,373.281-114.777,372.825-112.511,369.998z M43.641,399.131c-0.903,1.127-0.741,2.772,0.386,3.675
				c1.148,0.92,2.789,0.72,3.692-0.407c0.903-1.127,0.741-2.772-0.407-3.692C46.185,397.804,44.544,398.004,43.641,399.131z
				 M22.65,363.086c-0.69,0.861-0.536,2.095,0.305,2.769c0.84,0.673,2.079,0.555,2.769-0.305c0.674-0.84,0.535-2.096-0.305-2.769
				C24.578,362.108,23.323,362.246,22.65,363.086z M55.915,408.969c-0.903,1.127-0.72,2.789,0.407,3.692
				c1.148,0.92,2.789,0.72,3.692-0.407c0.903-1.127,0.741-2.772-0.407-3.692C58.48,407.659,56.818,407.843,55.915,408.969z
				 M31.324,389.258c-0.903,1.127-0.72,2.789,0.407,3.692c1.148,0.92,2.789,0.72,3.692-0.407c0.903-1.127,0.741-2.772-0.407-3.692
				C33.889,387.948,32.227,388.132,31.324,389.258z M-72.696,382.725c1.906-2.378,1.523-5.847-0.854-7.752
				c-2.378-1.906-5.847-1.524-7.753,0.853c-1.906,2.377-1.523,5.847,0.855,7.752C-78.071,385.484-74.602,385.103-72.696,382.725z
				 M52.152,425.172c-1.084,1.353-0.849,3.327,0.504,4.411c1.352,1.084,3.329,0.884,4.414-0.469c1.1-1.373,0.865-3.347-0.487-4.43
				C55.23,423.599,53.252,423.799,52.152,425.172z M-85.845,365.118c-2.377-1.906-5.847-1.524-7.752,0.853
				c-1.906,2.378-1.523,5.847,0.855,7.752c2.376,1.905,5.846,1.524,7.751-0.854C-83.086,370.492-83.469,367.023-85.845,365.118z
				 M44.287,414.828c-1.353-1.084-3.33-0.885-4.431,0.488c-1.084,1.353-0.849,3.327,0.504,4.411c1.352,1.083,3.33,0.884,4.414-0.469
				C45.874,417.885,45.639,415.912,44.287,414.828z M55.494,447.037c1.363-1.701,1.09-4.175-0.61-5.538
				c-1.701-1.363-4.174-1.091-5.538,0.61c-1.363,1.701-1.091,4.174,0.61,5.538C51.657,449.01,54.131,448.738,55.494,447.037z
				 M-53.89,378.58c-1.627,2.029-1.296,5.019,0.733,6.645c2.049,1.642,5.018,1.297,6.645-0.732c1.626-2.029,1.317-5.002-0.732-6.645
				C-49.273,376.222-52.263,376.551-53.89,378.58z M43.199,437.182c1.364-1.701,1.09-4.175-0.61-5.538
				c-1.681-1.347-4.174-1.091-5.538,0.61c-1.363,1.701-1.071,4.19,0.61,5.538C39.361,439.154,41.835,438.883,43.199,437.182z
				 M10.354,353.231c-0.69,0.861-0.536,2.095,0.305,2.769c0.86,0.69,2.079,0.556,2.769-0.305c0.674-0.84,0.556-2.079-0.305-2.769
				C12.283,352.252,11.028,352.391,10.354,353.231z M-5.563,359.692c-0.903,1.127-0.72,2.789,0.407,3.692
				c1.148,0.92,2.789,0.72,3.692-0.407c0.903-1.127,0.741-2.772-0.407-3.692C-2.998,358.382-4.66,358.565-5.563,359.692z
				 M19.028,379.403c-0.903,1.127-0.72,2.789,0.407,3.692c1.148,0.92,2.789,0.72,3.692-0.407c0.903-1.127,0.741-2.772-0.407-3.692
				C21.593,378.093,19.931,378.276,19.028,379.403z M-14.237,333.52c-0.69,0.861-0.536,2.095,0.305,2.769
				c0.84,0.673,2.079,0.556,2.769-0.305c0.674-0.84,0.535-2.096-0.305-2.769C-12.309,332.541-13.563,332.679-14.237,333.52z
				 M51.853,463.337c1.627-2.029,1.296-5.019-0.732-6.645c-2.029-1.626-5.019-1.298-6.646,0.731
				c-1.626,2.029-1.296,5.019,0.733,6.646C47.237,465.695,50.226,465.367,51.853,463.337z M-1.941,343.375
				c-0.69,0.861-0.536,2.095,0.305,2.769c0.839,0.673,2.079,0.555,2.769-0.305c0.674-0.84,0.535-2.096-0.305-2.769
				C-0.013,342.397-1.268,342.535-1.941,343.375z M6.754,369.564c-0.903,1.127-0.741,2.772,0.386,3.675
				c1.148,0.92,2.789,0.72,3.692-0.407c0.903-1.127,0.741-2.772-0.407-3.692C9.298,368.237,7.657,368.437,6.754,369.564z
				 M32.478,409.403c1.1-1.373,0.865-3.347-0.487-4.43c-1.353-1.084-3.331-0.885-4.431,0.488c-1.084,1.353-0.849,3.327,0.504,4.411
				C29.416,410.955,31.394,410.755,32.478,409.403z M-23.513,422.147c1.906-2.378,1.523-5.846-0.854-7.751
				c-2.378-1.906-5.847-1.524-7.752,0.853c-1.906,2.378-1.523,5.847,0.855,7.752C-28.888,424.906-25.419,424.525-23.513,422.147z
				 M-11.218,432.003c1.906-2.378,1.523-5.847-0.854-7.751c-2.377-1.906-5.847-1.524-7.752,0.853
				c-1.906,2.378-1.523,5.847,0.855,7.752C-16.593,434.761-13.123,434.38-11.218,432.003z M-35.809,412.292
				c1.906-2.377,1.522-5.847-0.854-7.751c-2.377-1.906-5.847-1.524-7.752,0.853c-1.906,2.377-1.523,5.847,0.855,7.752
				C-41.184,415.05-37.715,414.669-35.809,412.292z M-48.104,402.436c1.906-2.377,1.523-5.846-0.854-7.751
				c-2.377-1.906-5.847-1.524-7.752,0.853c-1.906,2.378-1.523,5.847,0.855,7.752C-53.479,405.195-50.01,404.814-48.104,402.436z
				 M-66.186,368.724c-1.626,2.029-1.296,5.019,0.733,6.645c2.049,1.643,5.018,1.297,6.645-0.732
				c1.626-2.029,1.317-5.002-0.732-6.645C-61.569,366.367-64.559,366.695-66.186,368.724z M25.669,461.569
				c1.906-2.377,1.523-5.846-0.854-7.751c-2.377-1.906-5.847-1.524-7.752,0.853c-1.906,2.378-1.523,5.847,0.855,7.752
				C20.294,464.328,23.764,463.947,25.669,461.569z M37.965,471.425c1.906-2.377,1.523-5.847-0.854-7.752
				c-2.377-1.906-5.847-1.524-7.752,0.853c-1.906,2.378-1.522,5.847,0.855,7.752C32.59,474.184,36.059,473.802,37.965,471.425z
				 M50.261,481.28c1.906-2.378,1.522-5.847-0.854-7.751c-2.377-1.906-5.847-1.524-7.752,0.853
				c-1.906,2.377-1.523,5.846,0.855,7.752C44.886,484.039,48.355,483.658,50.261,481.28z M1.078,441.858
				c1.906-2.377,1.523-5.847-0.854-7.751c-2.378-1.906-5.847-1.524-7.752,0.853c-1.906,2.377-1.523,5.847,0.855,7.752
				C-4.297,444.617-0.828,444.236,1.078,441.858z M13.374,451.714c1.906-2.377,1.523-5.847-0.854-7.751
				c-2.378-1.906-5.847-1.524-7.752,0.853s-1.523,5.847,0.855,7.752C7.999,454.472,11.468,454.091,13.374,451.714z M34.945,372.942
				c-0.69,0.861-0.535,2.095,0.305,2.769c0.84,0.673,2.079,0.555,2.769-0.305c0.674-0.841,0.534-2.096-0.305-2.769
				C36.874,371.963,35.619,372.101,34.945,372.942z M-63.845,236.133c0.229-0.286,0.164-0.71-0.123-0.94
				c-0.266-0.213-0.694-0.184-0.923,0.102c-0.229,0.286-0.164,0.71,0.102,0.923C-64.502,236.447-64.075,236.419-63.845,236.133z
				 M-51.571,245.971c0.229-0.286,0.186-0.693-0.081-0.906c-0.287-0.23-0.694-0.185-0.923,0.102
				c-0.229,0.286-0.186,0.693,0.102,0.923C-52.206,246.303-51.8,246.257-51.571,245.971z M-42.362,272.571
				c0.345-0.43,0.26-1.038-0.171-1.382c-0.431-0.346-1.043-0.297-1.388,0.134c-0.345,0.43-0.26,1.038,0.172,1.383
				C-43.318,273.051-42.707,273.001-42.362,272.571z M-54.679,262.699c0.345-0.43,0.281-1.021-0.15-1.366
				c-0.431-0.346-1.022-0.28-1.366,0.151c-0.345,0.43-0.281,1.021,0.151,1.366C-55.614,263.195-55.024,263.129-54.679,262.699z
				 M-22.48,309.41c0.574,0.46,1.402,0.351,1.846-0.203c0.46-0.574,0.371-1.386-0.203-1.846c-0.553-0.444-1.385-0.371-1.846,0.203
				C-23.127,308.118-23.033,308.966-22.48,309.41z M-34.775,299.554c0.574,0.46,1.402,0.351,1.846-0.203
				c0.46-0.574,0.371-1.386-0.203-1.846c-0.553-0.444-1.386-0.371-1.846,0.203C-35.423,298.263-35.329,299.111-34.775,299.554z
				 M-38.523,316.578c0.86,0.69,2.079,0.556,2.769-0.305c0.674-0.841,0.556-2.079-0.305-2.769c-0.861-0.691-2.095-0.536-2.769,0.305
				C-39.518,314.669-39.385,315.887-38.523,316.578z M-26.228,326.433c0.84,0.673,2.079,0.556,2.769-0.305
				c0.674-0.841,0.535-2.096-0.305-2.769c-0.84-0.674-2.095-0.535-2.769,0.305C-27.222,324.525-27.068,325.759-26.228,326.433z
				 M-57.521,279.64c0.46-0.574,0.371-1.386-0.203-1.846c-0.553-0.444-1.365-0.354-1.825,0.22c-0.444,0.554-0.371,1.386,0.182,1.829
				C-58.792,280.303-57.965,280.194-57.521,279.64z M-47.071,289.699c0.574,0.46,1.402,0.351,1.846-0.203
				c0.46-0.574,0.371-1.385-0.203-1.846c-0.553-0.444-1.385-0.371-1.846,0.203C-47.719,288.407-47.624,289.255-47.071,289.699z
				 M-66.953,252.86c0.345-0.43,0.26-1.038-0.171-1.382c-0.431-0.346-1.043-0.297-1.387,0.134c-0.345,0.43-0.26,1.038,0.172,1.383
				C-67.91,253.339-67.298,253.29-66.953,252.86z M-36.428,238.923c0.114-0.142,0.09-0.365-0.053-0.48
				c-0.144-0.115-0.345-0.073-0.459,0.069c-0.115,0.144-0.095,0.328,0.049,0.443C-36.748,239.07-36.543,239.067-36.428,238.923z
				 M14.407,338.976c0.574,0.46,1.402,0.351,1.846-0.203c0.46-0.574,0.371-1.386-0.203-1.846c-0.553-0.443-1.386-0.371-1.846,0.203
				C13.759,337.685,13.854,338.533,14.407,338.976z M-5.475,302.138c0.345-0.43,0.26-1.037-0.17-1.382
				c-0.431-0.346-1.043-0.297-1.387,0.133c-0.345,0.43-0.26,1.038,0.172,1.383C-6.431,302.617-5.82,302.568-5.475,302.138z
				 M-26.979,265.682c0.229-0.286,0.185-0.693-0.102-0.923c-0.266-0.213-0.693-0.184-0.923,0.102
				c-0.229,0.286-0.164,0.71,0.102,0.923C-27.615,266.014-27.209,265.968-26.979,265.682z M-29.747,343.672
				c1.148,0.92,2.789,0.72,3.692-0.407c0.903-1.127,0.741-2.772-0.407-3.692c-1.127-0.903-2.768-0.703-3.671,0.424
				C-31.036,341.124-30.874,342.769-29.747,343.672z M-14.684,275.538c0.229-0.286,0.186-0.693-0.102-0.923
				c-0.266-0.213-0.694-0.185-0.923,0.102c-0.229,0.286-0.164,0.71,0.102,0.923C-15.319,275.87-14.913,275.824-14.684,275.538z
				 M-10.184,319.265c0.574,0.46,1.401,0.351,1.846-0.203c0.46-0.574,0.371-1.385-0.203-1.846c-0.553-0.444-1.385-0.371-1.846,0.203
				C-10.832,317.974-10.738,318.822-10.184,319.265z M-30.087,282.41c0.345-0.43,0.281-1.021-0.149-1.366
				c-0.431-0.346-1.043-0.296-1.387,0.134c-0.345,0.43-0.26,1.038,0.171,1.383C-31.022,282.906-30.432,282.84-30.087,282.41z
				 M-48.745,229.05c0.114-0.142,0.111-0.348-0.032-0.463c-0.144-0.116-0.367-0.09-0.481,0.052c-0.116,0.144-0.074,0.345,0.07,0.46
				C-49.044,229.214-48.86,229.194-48.745,229.05z M-39.275,255.827c0.229-0.286,0.185-0.693-0.102-0.923
				c-0.266-0.213-0.694-0.185-0.923,0.102c-0.229,0.286-0.165,0.71,0.102,0.923C-39.911,256.159-39.504,256.113-39.275,255.827z
				 M2.112,329.121c0.574,0.46,1.402,0.351,1.846-0.203c0.46-0.574,0.371-1.386-0.203-1.846c-0.553-0.443-1.386-0.371-1.846,0.203
				C1.464,327.829,1.558,328.677,2.112,329.121z M-17.792,292.265c0.345-0.43,0.281-1.021-0.149-1.366
				c-0.431-0.346-1.022-0.28-1.367,0.151c-0.345,0.43-0.281,1.021,0.151,1.366C-18.727,292.762-18.137,292.696-17.792,292.265z
				 M-75.238,303.844c0.903-1.127,0.741-2.772-0.407-3.692c-1.127-0.903-2.789-0.72-3.692,0.407
				c-0.903,1.127-0.72,2.789,0.407,3.692C-77.782,305.17-76.141,304.97-75.238,303.844z M-99.83,284.133
				c0.903-1.127,0.741-2.772-0.407-3.692c-1.127-0.903-2.768-0.703-3.671,0.424c-0.903,1.127-0.741,2.772,0.386,3.675
				C-102.374,285.459-100.733,285.259-99.83,284.133z M-109.887,319.526c1.7,1.362,4.174,1.091,5.538-0.61
				c1.364-1.701,1.09-4.175-0.61-5.538c-1.701-1.363-4.174-1.091-5.538,0.61C-111.86,315.689-111.588,318.162-109.887,319.526z
				 M-116.645,309.06c1.363-1.701,1.09-4.175-0.61-5.538c-1.681-1.347-4.174-1.091-5.538,0.61c-1.364,1.701-1.071,4.19,0.61,5.538
				C-120.482,311.033-118.008,310.761-116.645,309.06z M-90.478,310.847c1.1-1.373,0.865-3.347-0.487-4.43
				c-1.353-1.084-3.331-0.885-4.431,0.488c-1.084,1.353-0.849,3.327,0.504,4.411C-93.54,312.4-91.562,312.2-90.478,310.847z
				 M-102.774,300.992c1.1-1.373,0.865-3.347-0.487-4.43c-1.353-1.084-3.331-0.885-4.431,0.488
				c-1.084,1.353-0.849,3.327,0.504,4.411C-105.836,302.544-103.858,302.345-102.774,300.992z M-97.591,329.381
				c1.7,1.363,4.174,1.091,5.538-0.61c1.364-1.701,1.09-4.175-0.61-5.538c-1.701-1.363-4.174-1.091-5.538,0.61
				C-99.565,325.544-99.292,328.018-97.591,329.381z M96.424,422.22c-0.69,0.861-0.535,2.095,0.305,2.769
				c0.839,0.673,2.079,0.556,2.769-0.305c0.674-0.84,0.535-2.096-0.305-2.769C98.352,421.241,97.097,421.379,96.424,422.22z
				 M-146.332,351.303c2.828,2.267,6.963,1.811,9.23-1.017c2.266-2.828,1.811-6.963-1.017-9.23s-6.963-1.811-9.23,1.017
				C-149.615,344.901-149.16,349.037-146.332,351.303z M-134.174,333.447c1.906-2.378,1.523-5.847-0.854-7.751
				c-2.378-1.906-5.847-1.524-7.753,0.853c-1.906,2.377-1.523,5.846,0.855,7.752C-139.549,336.206-136.08,335.825-134.174,333.447z
				 M-50.819,306.722c0.84,0.673,2.079,0.556,2.769-0.305c0.674-0.841,0.535-2.096-0.305-2.769c-0.84-0.674-2.095-0.535-2.769,0.305
				C-51.814,304.814-51.66,306.049-50.819,306.722z M-129.63,344.157c2.376,1.905,5.846,1.524,7.751-0.854
				c1.906-2.377,1.523-5.847-0.854-7.751c-2.378-1.906-5.847-1.524-7.752,0.853C-132.39,338.782-132.007,342.251-129.63,344.157z
				 M-120.286,325.36c1.627-2.029,1.296-5.019-0.732-6.645c-2.029-1.627-5.019-1.298-6.646,0.731
				c-1.626,2.029-1.296,5.019,0.733,6.645C-124.902,327.718-121.913,327.389-120.286,325.36z M-54.339,323.961
				c1.148,0.92,2.789,0.72,3.692-0.407c0.903-1.127,0.741-2.772-0.407-3.692c-1.127-0.903-2.789-0.72-3.692,0.407
				C-55.649,321.396-55.465,323.058-54.339,323.961z M-63.115,296.867c0.84,0.673,2.079,0.556,2.769-0.305
				c0.674-0.841,0.535-2.096-0.305-2.769c-0.84-0.674-2.095-0.535-2.769,0.305C-64.109,294.958-63.955,296.193-63.115,296.867z
				 M-82.112,259.929c0.46-0.574,0.371-1.385-0.182-1.829c-0.574-0.46-1.407-0.388-1.867,0.187c-0.444,0.554-0.35,1.402,0.224,1.863
				C-83.384,260.593-82.556,260.483-82.112,259.929z M-87.534,293.988c0.903-1.127,0.741-2.772-0.407-3.692
				c-1.127-0.903-2.789-0.72-3.692,0.407s-0.72,2.789,0.407,3.692C-90.078,295.315-88.437,295.115-87.534,293.988z M-42.043,333.817
				c1.148,0.92,2.789,0.72,3.692-0.407c0.903-1.127,0.741-2.772-0.407-3.692c-1.127-0.903-2.789-0.72-3.692,0.407
				C-43.353,331.252-43.17,332.914-42.043,333.817z M-69.816,269.784c0.46-0.574,0.371-1.386-0.203-1.846
				c-0.553-0.443-1.386-0.371-1.846,0.203c-0.444,0.554-0.35,1.402,0.203,1.846C-71.088,270.448-70.261,270.339-69.816,269.784z
				 M-72.641,286.706c0.674-0.841,0.535-2.096-0.305-2.769c-0.84-0.674-2.095-0.536-2.769,0.305
				c-0.69,0.861-0.536,2.095,0.305,2.769C-74.571,287.684-73.331,287.567-72.641,286.706z M6.799,311.977
				c0.345-0.43,0.281-1.021-0.15-1.366c-0.431-0.346-1.043-0.297-1.387,0.134c-0.345,0.43-0.26,1.038,0.172,1.383
				C5.864,312.473,6.455,312.407,6.799,311.977z M-84.937,276.851c0.674-0.84,0.556-2.079-0.305-2.769
				c-0.861-0.691-2.095-0.536-2.769,0.305c-0.69,0.861-0.556,2.078,0.305,2.769C-86.845,277.845-85.627,277.711-84.937,276.851z
				 M-66.634,314.106c1.148,0.92,2.789,0.72,3.692-0.407c0.903-1.127,0.741-2.772-0.407-3.692c-1.127-0.903-2.768-0.703-3.671,0.424
				C-67.923,311.558-67.761,313.203-66.634,314.106z M-114.635,335.948c2.028,1.626,5.018,1.297,6.645-0.732
				c1.627-2.029,1.296-5.019-0.732-6.645c-2.029-1.627-5.019-1.298-6.646,0.731C-116.995,331.331-116.664,334.321-114.635,335.948z
				 M26.703,348.832c0.574,0.46,1.423,0.368,1.867-0.187c0.46-0.574,0.35-1.402-0.224-1.863c-0.553-0.444-1.386-0.371-1.846,0.203
				C26.055,347.54,26.149,348.388,26.703,348.832z M61.916,317.75c0.114-0.142,0.111-0.348-0.032-0.463
				c-0.144-0.116-0.367-0.09-0.48,0.052c-0.115,0.144-0.074,0.345,0.07,0.46C61.617,317.914,61.801,317.894,61.916,317.75z
				 M83.681,354.382c0.229-0.286,0.186-0.693-0.081-0.906c-0.287-0.23-0.694-0.185-0.923,0.102
				c-0.229,0.286-0.186,0.693,0.102,0.923C83.046,354.714,83.452,354.668,83.681,354.382z M74.233,327.622
				c0.114-0.142,0.09-0.365-0.053-0.479c-0.144-0.116-0.346-0.073-0.46,0.069c-0.115,0.144-0.095,0.328,0.049,0.443
				C73.912,327.77,74.117,327.766,74.233,327.622z M95.977,364.237c0.229-0.286,0.186-0.693-0.102-0.923
				c-0.266-0.213-0.694-0.185-0.923,0.102c-0.229,0.286-0.165,0.71,0.102,0.923C95.341,364.569,95.748,364.524,95.977,364.237z
				 M49.621,307.894c0.114-0.142,0.111-0.348-0.032-0.463c-0.144-0.116-0.346-0.073-0.459,0.069
				c-0.115,0.144-0.095,0.328,0.049,0.443C49.321,308.059,49.505,308.039,49.621,307.894z M100.477,407.965
				c0.574,0.46,1.402,0.351,1.846-0.203c0.46-0.574,0.371-1.385-0.203-1.846c-0.553-0.444-1.386-0.371-1.846,0.203
				C99.829,406.673,99.923,407.521,100.477,407.965z M112.772,417.82c0.574,0.46,1.402,0.351,1.846-0.203
				c0.46-0.574,0.371-1.386-0.203-1.846c-0.553-0.443-1.385-0.371-1.846,0.203C112.125,416.529,112.219,417.377,112.772,417.82z
				 M117.46,400.676c0.345-0.43,0.281-1.021-0.15-1.366c-0.431-0.346-1.022-0.28-1.366,0.151c-0.345,0.43-0.281,1.021,0.151,1.366
				C116.525,401.172,117.115,401.106,117.46,400.676z M92.89,380.982c0.345-0.43,0.26-1.038-0.17-1.383
				c-0.431-0.345-1.021-0.28-1.366,0.151c-0.345,0.43-0.281,1.021,0.15,1.366C91.934,381.461,92.545,381.412,92.89,380.982z
				 M71.407,344.543c0.229-0.286,0.164-0.71-0.123-0.94c-0.266-0.213-0.694-0.184-0.923,0.102c-0.229,0.286-0.165,0.71,0.102,0.923
				C70.75,344.858,71.177,344.829,71.407,344.543z M111.099,357.172c0.114-0.142,0.111-0.348-0.032-0.463
				c-0.144-0.115-0.367-0.09-0.481,0.052c-0.115,0.144-0.074,0.345,0.07,0.46C110.799,357.336,110.983,357.316,111.099,357.172z
				 M135.69,376.883c0.114-0.142,0.111-0.348-0.032-0.463c-0.144-0.115-0.367-0.09-0.481,0.052c-0.115,0.144-0.074,0.345,0.07,0.46
				C135.391,377.047,135.575,377.027,135.69,376.883z M132.864,393.804c0.229-0.286,0.186-0.693-0.102-0.923
				c-0.266-0.213-0.694-0.184-0.923,0.102c-0.229,0.286-0.165,0.71,0.102,0.923C132.228,394.136,132.635,394.09,132.864,393.804z
				 M123.415,367.044c0.114-0.142,0.09-0.365-0.053-0.48c-0.144-0.115-0.346-0.073-0.459,0.069
				c-0.116,0.144-0.095,0.328,0.049,0.443C123.095,367.192,123.3,367.188,123.415,367.044z M147.986,386.738
				c0.114-0.142,0.111-0.348-0.032-0.463c-0.144-0.115-0.367-0.09-0.48,0.052c-0.116,0.144-0.074,0.345,0.07,0.46
				C147.686,386.903,147.87,386.883,147.986,386.738z M108.719,432.075c-0.69,0.861-0.535,2.095,0.305,2.769
				c0.839,0.673,2.079,0.556,2.769-0.305c0.674-0.841,0.534-2.096-0.305-2.769C110.648,431.096,109.393,431.234,108.719,432.075z
				 M120.569,383.948c0.229-0.286,0.185-0.693-0.102-0.923c-0.266-0.213-0.694-0.185-0.923,0.102
				c-0.229,0.286-0.164,0.71,0.102,0.923C119.933,384.28,120.339,384.235,120.569,383.948z M108.273,374.093
				c0.229-0.286,0.185-0.693-0.102-0.923c-0.266-0.213-0.694-0.185-0.923,0.102c-0.229,0.286-0.164,0.71,0.102,0.923
				C107.637,374.425,108.043,374.379,108.273,374.093z M129.777,410.548c0.345-0.43,0.26-1.038-0.171-1.383
				c-0.431-0.346-1.043-0.297-1.387,0.134c-0.345,0.43-0.26,1.038,0.171,1.383C128.821,411.028,129.432,410.979,129.777,410.548z
				 M80.573,371.11c0.345-0.43,0.281-1.021-0.15-1.366c-0.431-0.346-1.022-0.28-1.366,0.151c-0.345,0.43-0.281,1.021,0.151,1.366
				C79.638,371.606,80.228,371.54,80.573,371.11z M86.507,337.461c0.114-0.142,0.111-0.348-0.032-0.462
				c-0.144-0.116-0.367-0.09-0.48,0.052c-0.115,0.144-0.074,0.345,0.07,0.46C86.208,337.625,86.392,337.605,86.507,337.461z
				 M98.824,347.333c0.114-0.142,0.09-0.365-0.053-0.479c-0.144-0.116-0.346-0.073-0.46,0.069c-0.115,0.144-0.095,0.328,0.049,0.443
				C98.504,347.481,98.709,347.477,98.824,347.333z M105.165,390.821c0.345-0.43,0.281-1.021-0.149-1.366
				c-0.431-0.346-1.043-0.296-1.388,0.134c-0.345,0.43-0.26,1.037,0.172,1.383C104.229,391.317,104.82,391.251,105.165,390.821z
				 M51.315,368.56c0.553,0.443,1.381,0.334,1.825-0.22c0.46-0.574,0.371-1.386-0.182-1.829c-0.574-0.46-1.407-0.388-1.867,0.186
				C50.646,367.251,50.741,368.099,51.315,368.56z M31.412,331.704c0.345-0.43,0.26-1.038-0.17-1.382
				c-0.431-0.346-1.043-0.297-1.388,0.134c-0.345,0.43-0.26,1.038,0.172,1.383C30.456,332.184,31.067,332.135,31.412,331.704z
				 M0.438,268.472c0.114-0.142,0.111-0.348-0.032-0.463c-0.144-0.115-0.367-0.09-0.481,0.052c-0.115,0.144-0.074,0.345,0.07,0.46
				C0.139,268.637,0.322,268.616,0.438,268.472z M43.686,341.543c0.345-0.43,0.281-1.021-0.15-1.366
				c-0.431-0.346-1.021-0.28-1.366,0.151c-0.345,0.43-0.281,1.021,0.15,1.366C42.751,342.039,43.341,341.973,43.686,341.543z
				 M9.908,295.249c0.229-0.286,0.186-0.693-0.102-0.923c-0.266-0.213-0.694-0.185-0.923,0.102c-0.229,0.286-0.165,0.71,0.102,0.923
				C9.272,295.581,9.678,295.535,9.908,295.249z M22.203,305.104c0.229-0.286,0.186-0.693-0.102-0.923
				c-0.266-0.213-0.694-0.185-0.923,0.102c-0.229,0.286-0.164,0.71,0.102,0.923C21.567,305.436,21.974,305.39,22.203,305.104z
				 M-2.388,285.393c0.229-0.286,0.186-0.693-0.102-0.923c-0.266-0.213-0.694-0.185-0.923,0.102
				c-0.229,0.286-0.164,0.71,0.102,0.923C-3.024,285.725-2.617,285.68-2.388,285.393z M-11.837,258.634
				c0.114-0.142,0.09-0.365-0.053-0.48c-0.144-0.115-0.346-0.073-0.46,0.069c-0.116,0.144-0.095,0.328,0.049,0.444
				C-12.157,258.781-11.952,258.778-11.837,258.634z M-24.153,248.761c0.114-0.142,0.111-0.348-0.032-0.462
				c-0.144-0.116-0.367-0.09-0.48,0.052c-0.115,0.144-0.074,0.345,0.07,0.46C-24.453,248.926-24.269,248.905-24.153,248.761z
				 M19.095,321.832c0.345-0.43,0.281-1.021-0.15-1.366c-0.431-0.346-1.022-0.28-1.366,0.151c-0.345,0.43-0.281,1.021,0.15,1.366
				C18.16,322.328,18.75,322.262,19.095,321.832z M38.998,358.687c0.574,0.46,1.402,0.351,1.846-0.203
				c0.46-0.574,0.371-1.386-0.203-1.846c-0.553-0.443-1.385-0.371-1.846,0.203C38.351,357.396,38.445,358.244,38.998,358.687z
				 M56.003,351.415c0.345-0.43,0.26-1.038-0.171-1.382c-0.431-0.346-1.022-0.28-1.366,0.151c-0.345,0.43-0.281,1.021,0.15,1.366
				C55.047,351.895,55.658,351.846,56.003,351.415z M25.029,288.183c0.114-0.142,0.111-0.348-0.032-0.463
				c-0.144-0.116-0.367-0.09-0.48,0.052c-0.116,0.144-0.074,0.345,0.07,0.46C24.73,288.348,24.914,288.327,25.029,288.183z
				 M46.795,324.815c0.229-0.286,0.185-0.693-0.102-0.923c-0.266-0.213-0.694-0.185-0.923,0.102
				c-0.229,0.286-0.165,0.71,0.102,0.923C46.159,325.147,46.565,325.102,46.795,324.815z M68.299,361.271
				c0.345-0.43,0.26-1.038-0.171-1.382c-0.431-0.346-1.043-0.297-1.387,0.134c-0.345,0.43-0.26,1.038,0.171,1.383
				C67.342,361.75,67.954,361.701,68.299,361.271z M88.181,398.109c0.574,0.46,1.402,0.351,1.846-0.203
				c0.46-0.574,0.371-1.386-0.203-1.846c-0.553-0.444-1.386-0.371-1.846,0.203C87.533,396.818,87.628,397.666,88.181,398.109z
				 M37.346,298.056c0.114-0.142,0.09-0.365-0.053-0.479c-0.144-0.116-0.346-0.073-0.459,0.069
				c-0.116,0.144-0.095,0.328,0.049,0.444C37.026,298.203,37.23,298.2,37.346,298.056z M12.755,278.345
				c0.114-0.142,0.09-0.365-0.053-0.479c-0.144-0.116-0.346-0.073-0.459,0.069c-0.115,0.144-0.095,0.328,0.049,0.444
				C12.434,278.492,12.639,278.489,12.755,278.345z M34.499,314.96c0.229-0.286,0.186-0.693-0.102-0.923
				c-0.266-0.213-0.694-0.185-0.923,0.102c-0.229,0.286-0.165,0.71,0.102,0.923C33.863,315.292,34.27,315.246,34.499,314.96z
				 M63.59,378.398c0.574,0.46,1.402,0.351,1.846-0.203c0.461-0.574,0.371-1.385-0.203-1.846c-0.553-0.444-1.386-0.371-1.846,0.203
				C62.942,377.107,63.036,377.955,63.59,378.398z M75.885,388.254c0.574,0.46,1.402,0.351,1.846-0.203
				c0.46-0.574,0.371-1.385-0.203-1.846c-0.553-0.444-1.365-0.354-1.825,0.22C75.259,386.979,75.332,387.81,75.885,388.254z
				 M59.09,334.671c0.229-0.286,0.185-0.693-0.102-0.923c-0.266-0.213-0.694-0.185-0.923,0.102c-0.229,0.286-0.165,0.71,0.102,0.923
				C58.454,335.003,58.861,334.957,59.09,334.671z"/>
		</g>
	</g>
</g>
</svg>
