<svg id="Capa_1" enable-background="new 0 0 512 512" height="512" viewBox="0 0 512 512" width="512" xmlns="http://www.w3.org/2000/svg"><g><path d="m104.594 13.261c-57.673 0-104.594 46.921-104.594 104.594v173.443c0 57.674 46.921 104.595 104.594 104.595h83.75l55.048 95.346c2.679 4.641 7.631 7.5 12.99 7.5l40-282.288-40-203.19h-151.788z" fill="#9ee2f8"/><path d="m406.834 13.261h-150.452v485.479c5.359 0 10.311-2.859 12.99-7.5l55.048-95.346h82.986c57.673 0 104.594-46.921 104.594-104.595v-172.872c0-57.989-47.177-105.166-105.166-105.166z" fill="#8cbcff"/><g><g><path d="m372.625 334.648c-5.122 0-9.893-2.614-12.648-6.938l-66.198-103.854c-2.944-4.618-3.137-10.474-.503-15.275 2.634-4.803 7.675-7.787 13.152-7.787h13.079v-29.343c0-8.284 6.716-15 15-15h76.238c8.284 0 15 6.716 15 15v29.343h11.255c5.443 0 10.459 2.948 13.106 7.704s2.511 10.572-.356 15.198l-64.375 103.854c-2.718 4.385-7.497 7.064-12.655 7.098-.032 0-.063 0-.095 0z" fill="#09607d"/></g><g><path d="m410.745 126.451h-76.238c-8.284 0-15-6.716-15-15s6.716-15 15-15h76.238c8.284 0 15 6.716 15 15s-6.716 15-15 15z" fill="#09607d"/></g></g><g fill="#f0f8ff"><path d="m175.857 126.451h-100.448c-8.284 0-15-6.716-15-15s6.716-15 15-15h100.448c8.284 0 15 6.716 15 15s-6.716 15-15 15z"/><path d="m202.89 246.451h-127.481c-8.284 0-15-6.716-15-15s6.716-15 15-15h127.481c8.284 0 15 6.716 15 15s-6.716 15-15 15z"/><path d="m241.382 186.451h-165.973c-8.284 0-15-6.716-15-15s6.716-15 15-15h165.973c8.284 0 15 6.716 15 15s-6.716 15-15 15z"/><path d="m75.409 276.451c-8.284 0-15 6.716-15 15s6.716 15 15 15h180.973l20-15-20-15z"/></g><path d="m273.86 276.451h-17.479v30h17.479c8.284 0 15-6.716 15-15s-6.715-15-15-15z" fill="#e3eeff"/></g></svg>