<svg id="Capa_1" enable-background="new 0 0 497 497" height="512" viewBox="0 0 497 497" width="512" xmlns="http://www.w3.org/2000/svg"><g><path d="m248.5 497c137.243 0 248.5-111.257 248.5-248.5l-248.5-124.25-248.5 124.25c0 137.243 111.257 248.5 248.5 248.5z" fill="#b4d5e0"/><path d="m248.5 0c-137.243 0-248.5 111.257-248.5 248.5h497c0-137.243-111.257-248.5-248.5-248.5z" fill="#d6f9fa"/><path d="m248.5 30v437c120.674 0 218.5-97.826 218.5-218.5s-97.826-218.5-218.5-218.5z" fill="#6f8cac"/><path d="m248.5 30c-120.674 0-218.5 97.826-218.5 218.5s97.826 218.5 218.5 218.5c104.106 0 188.5-97.826 188.5-218.5s-84.394-218.5-188.5-218.5z" fill="#92b1c6"/><circle cx="248.5" cy="158.5" fill="#fff" r="22.5"/><path d="m256 331 15 30h30v-30z" fill="#d6f9fa"/><path d="m271 233.5c0-12.426-10.074-22.5-22.5-22.5h-52.5v30h30v97.5c0 12.426 10.074 22.5 22.5 22.5h22.5z" fill="#fff"/></g></svg>