<svg id="Layer_1" height="512" viewBox="0 0 64 64" width="512" xmlns="http://www.w3.org/2000/svg"><g><path d="m51.981 32.02c0 6.44-3.19 12.6-8.44 16.32-7.46 5.29-17.88 4.74-24.75-1.29s-8.78-16.28-4.5-24.36c4.26-8.07 13.72-12.29 22.57-10.07 8.79 2.2 15.12 10.35 15.12 19.4z" fill="#e2e2e2"/><g fill="#9b9b9b"><path d="m31.751 20.5c1.83 0 3.38 1.52 3.21 3.38-.26 2.68-3.75 3.64-5.56 1.81-1.94-1.97-.29-5.19 2.35-5.19z"/><path d="m27.651 40.59c.6-.01 1.73.26 2.04-.47.32-.76.05-2.12.05-2.9 0-1.54 0-3.08 0-4.62h-2.09v-2.94c1.81-.12 3.6-.41 5.22-1.26h1.33c0 3.72 0 7.43.01 11.14 0 1.3.97 1.05 2.09 1.05v2.94h-8.65z"/></g></g></svg>