<svg id="Layer_1" height="512" viewBox="0 0 48 48" width="512" xmlns="http://www.w3.org/2000/svg" data-name="Layer 1"><circle cx="24" cy="24" fill="#eaeff0" r="22"/><path d="m30 38a19.979 19.979 0 0 1 -13.569-34.663 22 22 0 1 0 28.232 28.232 19.922 19.922 0 0 1 -14.663 6.431z" fill="#d9e1e2"/><circle cx="23.75" cy="14.5" fill="#2d4a60" r="3.75"/><path d="m29 37h-10v-1a3.618 3.618 0 0 0 2-3.236v-7.528a3.618 3.618 0 0 0 -2-3.236v-1h8v11.866a3.454 3.454 0 0 0 2 3.134z" fill="#2d4a60"/><path d="m19.968 35.283a3.615 3.615 0 0 1 -.968.717v1h4.777a19.9 19.9 0 0 1 -3.809-1.717z" fill="#263f52"/></svg>