<svg height="512pt" viewBox="0 0 512 512" width="512pt" xmlns="http://www.w3.org/2000/svg"><path d="m512 256c0 68.378906-26.628906 132.671875-74.980469 181.019531-48.347656 48.351563-112.640625 74.980469-181.019531 74.980469s-132.671875-26.628906-181.019531-74.980469c-48.351563-48.347656-74.980469-112.640625-74.980469-181.019531s26.628906-132.671875 74.980469-181.019531c48.347656-48.351563 112.640625-74.980469 181.019531-74.980469s132.671875 26.628906 181.019531 74.980469c48.351563 48.347656 74.980469 112.640625 74.980469 181.019531zm0 0" fill="#daf0fa"/><path d="m512 256c0 68.378906-26.628906 132.671875-74.980469 181.019531-48.347656 48.351563-112.640625 74.980469-181.019531 74.980469v-512c68.378906 0 132.671875 26.628906 181.019531 74.980469 48.351563 48.347656 74.980469 112.640625 74.980469 181.019531zm0 0" fill="#b0e1ff"/><path d="m318.070312 355.199219v40.242187c0 4.589844-3.710937 8.296875-8.300781 8.296875h-107.539062c-4.589844 0-8.300781-3.707031-8.300781-8.296875v-40.242187c0-4.578125 3.710937-8.300781 8.300781-8.300781h16.109375c.679687 0 1.230468-.546876 1.230468-1.226563v-82.023437c0-.679688-.550781-1.226563-1.230468-1.226563h-16.109375c-4.589844 0-8.300781-3.710937-8.300781-8.292969v-40.25c0-4.578125 3.710937-8.300781 8.300781-8.300781h81.980469c4.589843 0 8.300781 3.722656 8.300781 8.300781v131.792969c0 .679687.546875 1.226563 1.226562 1.226563h16.03125c4.589844 0 8.300781 3.722656 8.300781 8.300781zm0 0" fill="#0db2ff"/><path d="m292.75 145.011719c0 20.292969-16.453125 36.75-36.75 36.75s-36.75-16.457031-36.75-36.75c0-20.296875 16.453125-36.75 36.75-36.75s36.75 16.453125 36.75 36.75zm0 0" fill="#0db2ff"/><g fill="#0089ff"><path d="m256 181.761719v-73.5c20.300781 0 36.75 16.449219 36.75 36.75 0 20.296875-16.449219 36.75-36.75 36.75zm0 0"/><path d="m318.070312 355.199219v40.242187c0 4.589844-3.710937 8.296875-8.300781 8.296875h-53.769531v-198.160156h28.210938c4.589843 0 8.300781 3.722656 8.300781 8.300781v131.792969c0 .679687.546875 1.226563 1.226562 1.226563h16.03125c4.589844 0 8.300781 3.722656 8.300781 8.300781zm0 0"/></g></svg>