<svg height="512pt" viewBox="-59 0 512 512" width="512pt" xmlns="http://www.w3.org/2000/svg"><path d="m378.171875 0h-362.84375c-8.464844 0-15.328125 6.863281-15.328125 15.328125v481.34375c0 8.464844 6.863281 15.328125 15.328125 15.328125h362.84375c8.46875 0 15.332031-6.863281 15.332031-15.328125v-481.34375c0-8.464844-6.863281-15.328125-15.332031-15.328125zm0 0" fill="#eebf00"/><path d="m378.171875 0h-362.84375c-8.464844 0-15.328125 6.863281-15.328125 15.328125v481.34375c0 8.464844 6.863281 15.328125 15.328125 15.328125h255.207031l122.96875-122.96875v-373.703125c0-8.464844-6.863281-15.328125-15.332031-15.328125zm0 0" fill="#fff1b6"/><path d="m378.167969 0h-181.417969v512h73.785156l122.964844-122.972656v-373.699219c0-8.460937-6.859375-15.328125-15.332031-15.328125zm0 0" fill="#ffeb99"/><path d="m285.863281 389.03125c-8.464843 0-15.328125 6.863281-15.328125 15.328125v107.640625l122.96875-122.96875zm0 0" fill="#ffda44"/><path d="m378.167969 0h-362.835938c-8.46875 0-15.32812475 6.867188-15.32812475 15.328125v83.046875h393.49609375v-83.046875c0-8.460937-6.859375-15.328125-15.332031-15.328125zm0 0" fill="#ff7037"/><path d="m393.5 15.328125v83.046875h-196.75v-98.375h181.417969c8.472656 0 15.332031 6.867188 15.332031 15.328125zm0 0" fill="#ff4c04"/><g fill="#4895ff"><path d="m327.050781 174.398438c0 8.460937-6.867187 15.328124-15.328125 15.328124h-229.941406c-8.460938 0-15.328125-6.867187-15.328125-15.328124 0-8.472657 6.867187-15.332032 15.328125-15.332032h229.941406c8.460938 0 15.328125 6.859375 15.328125 15.332032zm0 0"/><path d="m327.050781 243.707031c0 8.460938-6.867187 15.328125-15.328125 15.328125h-229.941406c-8.460938 0-15.328125-6.867187-15.328125-15.328125 0-8.472656 6.867187-15.332031 15.328125-15.332031h229.941406c8.460938 0 15.328125 6.859375 15.328125 15.332031zm0 0"/><path d="m327.050781 313.015625c0 8.460937-6.867187 15.328125-15.328125 15.328125h-229.941406c-8.460938 0-15.328125-6.867188-15.328125-15.328125 0-8.472656 6.867187-15.328125 15.328125-15.328125h229.941406c8.460938 0 15.328125 6.855469 15.328125 15.328125zm0 0"/></g><path d="m327.050781 313.015625c0 8.460937-6.867187 15.328125-15.328125 15.328125h-114.972656v-30.65625h114.972656c8.460938 0 15.328125 6.855469 15.328125 15.328125zm0 0" fill="#2682ff"/><path d="m327.050781 243.707031c0 8.460938-6.867187 15.328125-15.328125 15.328125h-114.972656v-30.660156h114.972656c8.460938 0 15.328125 6.859375 15.328125 15.332031zm0 0" fill="#2682ff"/><path d="m311.722656 189.726562h-114.972656v-30.660156h114.972656c8.460938 0 15.328125 6.859375 15.328125 15.332032 0 8.460937-6.867187 15.328124-15.328125 15.328124zm0 0" fill="#2682ff"/></svg>