<svg id="Capa_1" enable-background="new 0 0 512 512" height="512" viewBox="0 0 512 512" width="512" xmlns="http://www.w3.org/2000/svg"><g><circle cx="101.76" cy="327.227" fill="#c96148" r="50.88"/><path d="m154.24 512c18.932 0 49.279-3.663 49.279-32.134 0-56.11-45.649-101.76-101.76-101.76s-101.759 45.65-101.759 101.76v17.134c0 8.284 6.716 15 15 15z" fill="#00edee"/><path d="m101.76 276.347c28.055 0 50.88 22.825 50.88 50.88s-22.825 50.88-50.88 50.88z" fill="#9e3727"/><circle cx="410.24" cy="327.227" fill="#fed2c2" r="50.88"/><path d="m410.24 276.347c28.055 0 50.88 22.825 50.88 50.88s-22.825 50.88-50.88 50.88z" fill="#fbb0a8"/><circle cx="256" cy="327.227" fill="#fdc584" r="50.88"/><path d="m256 276.347c28.055 0 50.88 22.825 50.88 50.88s-22.825 50.88-50.88 50.88z" fill="#f8a671"/><path d="m154.24 512c18.932 0 49.279-3.663 49.279-32.134 0-56.11-45.649-101.76-101.76-101.76v133.894z" fill="#00c1e8"/><path d="m357.76 512c-18.932 0-49.279-3.663-49.279-32.134 0-56.11 45.649-101.76 101.76-101.76s101.759 45.65 101.759 101.76v17.134c0 8.284-6.716 15-15 15z" fill="#ff6f64"/><path d="m357.657 512h-205.02v-32.134c0-56.11 45.986-101.76 102.51-101.76s102.51 45.649 102.51 101.76z" fill="#ffe835"/><path d="m357.76 512v-32.134c0-56.11-45.649-101.76-101.76-101.76v133.894z" fill="#ffc833"/><path d="m410.24 378.106c56.11 0 101.76 45.649 101.76 101.76v17.134c0 8.284-6.716 15-15 15h-86.76z" fill="#ff2776"/><path d="m255.949 238.867c-1.744 0-3.488-.304-5.152-.912l-80.282-29.362c-5.914-2.162-9.848-7.789-9.848-14.087v-96.095c0-4.898 2.392-9.487 6.405-12.294 4.015-2.806 9.146-3.475 13.746-1.794l75.182 27.494 75.182-27.494c4.596-1.682 9.73-1.014 13.746 1.794 4.014 2.807 6.405 7.396 6.405 12.294v96.079c0 6.299-3.936 11.927-9.852 14.089l-80.384 29.377c-1.661.607-3.405.911-5.148.911z" fill="#91766f"/><path d="m256 111.817 75.182-27.494c4.596-1.682 9.73-1.014 13.746 1.794 4.014 2.807 6.405 7.396 6.405 12.294v96.079c0 6.299-3.936 11.927-9.852 14.089l-80.384 29.377c-1.662.607-3.405.911-5.148.911z" fill="#5c504a"/><path d="m410.24 190.667c-8.284 0-15-6.716-15-15v-89.273c0-8.284 6.716-15 15-15h15v104.273c0 8.285-6.716 15-15 15z" fill="#e9e9e6"/><path d="m255.949 142.789c-1.744 0-3.488-.305-5.152-.913l-154.19-56.395c-5.915-2.163-9.848-7.79-9.848-14.088s3.935-11.925 9.85-14.087l154.241-56.393c3.326-1.217 6.975-1.217 10.301 0l154.24 56.394c5.916 2.163 9.85 7.79 9.85 14.089 0 6.298-3.936 11.926-9.851 14.088l-154.291 56.395c-1.663.606-3.407.91-5.15.91z" fill="#5c504a"/><path d="m261.099 141.877 154.291-56.394c5.915-2.162 9.851-7.79 9.851-14.088 0-6.299-3.934-11.926-9.85-14.089l-154.241-56.393c-1.663-.609-3.406-.913-5.15-.913v142.786c1.726-.005 3.452-.307 5.099-.909z" fill="#262927"/></g></svg>